<svg width="477" height="475" viewBox="0 0 477 475" fill="none" xmlns="http://www.w3.org/2000/svg">
<path d="M144.19 46.9198C144.19 46.9198 68.4199 85.5199 30.6299 145C-7.16006 204.48 -4.17006 281 41.7499 337.8C87.6699 394.6 175.44 387.14 248.93 423.12C322.42 459.1 403.5 451.69 438.25 375.46C473 299.23 420.6 270.74 411.6 182.52C402.6 94.2999 323.07 -34.8802 144.19 46.9198Z" fill="#92E3A9"/>
<path d="M144.19 46.9198C144.19 46.9198 68.4199 85.5199 30.6299 145C-7.16006 204.48 -4.17006 281 41.7499 337.8C87.6699 394.6 175.44 387.14 248.93 423.12C322.42 459.1 403.5 451.69 438.25 375.46C473 299.23 420.6 270.74 411.6 182.52C402.6 94.2999 323.07 -34.8802 144.19 46.9198Z" fill="#F5F3ED"/>
<path d="M100.5 353.48C103.5 352.48 108.82 347.59 108.82 347.58C108.82 347.57 104.54 345.09 104.25 344.97C100.88 343.55 93.53 342.79 90.86 345.9C90.4377 346.429 90.1306 347.041 89.9584 347.696C89.7862 348.35 89.7527 349.034 89.86 349.702C89.9674 350.371 90.2132 351.009 90.5817 351.577C90.9502 352.145 91.4333 352.63 92 353C94.36 354.68 97.9 354.32 100.5 353.48Z" fill="#D3C7AE"/>
<path d="M155.91 306.34C155.98 306.34 153.71 301.91 153.53 301.64C151.53 298.64 145.79 293.91 141.85 295.03C141.2 295.234 140.601 295.573 140.091 296.024C139.58 296.475 139.171 297.028 138.888 297.647C138.605 298.267 138.455 298.939 138.449 299.62C138.442 300.301 138.579 300.975 138.85 301.6C139.92 304.28 143.07 305.94 145.71 306.67C148.81 307.53 155.9 306.35 155.91 306.34Z" fill="#D3C7AE"/>
<path d="M116.19 367.39C118.77 365.7 122.33 360.05 122.61 359.6C125.838 361.643 129.198 363.467 132.67 365.06C134.67 366 136.75 366.89 138.83 367.75C137.83 367.49 136.92 367.28 136.83 367.26C133.2 366.78 125.91 367.99 124.16 371.69C123.886 372.315 123.746 372.991 123.751 373.674C123.756 374.356 123.905 375.03 124.188 375.651C124.471 376.272 124.882 376.827 125.395 377.278C125.907 377.729 126.508 378.067 127.16 378.27C129.88 379.27 133.16 377.96 135.49 376.46C137.82 374.96 140.94 370.17 141.75 368.9L144.15 369.9C148 371.43 151.84 372.9 155.57 374.54C156.88 375.1 158.15 375.71 159.43 376.3C158.53 376.08 157.78 375.9 157.66 375.89C154.03 375.41 146.75 376.62 144.99 380.32C144.716 380.945 144.577 381.62 144.581 382.302C144.586 382.984 144.735 383.657 145.019 384.277C145.302 384.897 145.713 385.451 146.225 385.901C146.737 386.352 147.339 386.689 147.99 386.89C150.72 387.89 154.04 386.58 156.32 385.08C158.6 383.58 161.46 379.26 162.44 377.76C163.72 378.41 165.01 379.06 166.23 379.76C167.05 380.25 167.88 380.66 168.68 381.2L171.06 382.73C172.53 383.73 174.06 384.81 175.48 385.85C176.48 386.57 177.4 387.27 178.34 387.97C177.04 387.4 174.47 386.32 174.24 386.26C170.73 385.26 163.34 385.33 161.05 388.72C160.683 389.294 160.441 389.939 160.341 390.612C160.24 391.286 160.283 391.973 160.466 392.629C160.649 393.285 160.968 393.895 161.403 394.419C161.838 394.943 162.379 395.369 162.99 395.67C165.53 397.04 168.99 396.28 171.5 395.14C174.23 393.89 178.5 389.06 178.98 388.45C180.53 389.62 182.03 390.77 183.42 391.88C187.48 395.09 190.86 397.98 193.42 400.24L195.42 398.42C192.74 396.16 189.16 393.22 184.85 389.96C183.28 388.77 181.58 387.52 179.85 386.26C180.773 384.412 181.588 382.513 182.29 380.57C185.36 380.88 191.14 379.29 191.89 379.08C192.54 380.91 193.15 382.7 193.7 384.39C195.28 389.22 196.49 393.39 197.38 396.7L199.62 394.7C198.69 391.61 197.49 387.84 196 383.59C195.35 381.73 194.62 379.76 193.84 377.74C194.53 377.35 200.09 374.11 201.84 371.67C203.43 369.45 204.84 366.18 203.98 363.41C203.798 362.755 203.482 362.145 203.05 361.62C202.618 361.095 202.08 360.667 201.473 360.362C200.865 360.058 200.2 359.884 199.521 359.853C198.841 359.822 198.163 359.933 197.53 360.18C193.76 361.79 192.26 369.02 192.59 372.66C192.59 372.88 193.09 375.19 193.41 376.66C193.09 375.83 192.79 375.03 192.41 374.19C191.75 372.51 191.04 370.86 190.29 369.08C189.89 368.23 189.5 367.38 189.09 366.52C188.68 365.66 188.2 364.79 187.75 363.91C186.68 361.91 185.49 359.91 184.24 357.91C185.71 357.33 190.88 355.19 192.8 353.23C194.72 351.27 196.6 348.23 196.16 345.4C196.083 344.724 195.864 344.073 195.518 343.487C195.172 342.902 194.706 342.396 194.151 342.002C193.596 341.609 192.965 341.337 192.298 341.204C191.631 341.071 190.943 341.08 190.28 341.23C186.28 342.23 183.73 349.17 183.51 352.82C183.51 353.04 183.63 355.68 183.73 357.13C182.97 355.95 182.22 354.77 181.42 353.6C179.1 350.23 176.64 346.89 174.21 343.55C173.46 342.55 172.73 341.5 172 340.47C172.52 340.27 178.72 337.86 180.87 335.67C182.78 333.67 184.67 330.67 184.24 327.83C184.161 327.154 183.941 326.502 183.594 325.917C183.247 325.331 182.78 324.825 182.225 324.432C181.669 324.038 181.037 323.766 180.37 323.634C179.702 323.501 179.014 323.51 178.35 323.66C174.35 324.66 171.8 331.6 171.58 335.25C171.58 335.53 171.76 339.32 171.86 340.25C170.24 337.98 168.65 335.71 167.17 333.41C165.152 330.317 163.342 327.093 161.75 323.76C161.99 323.67 168.47 321.18 170.67 318.93C172.58 316.93 174.47 313.93 174.04 311.1C173.963 310.424 173.744 309.773 173.398 309.187C173.052 308.602 172.586 308.096 172.031 307.702C171.476 307.309 170.845 307.037 170.178 306.904C169.511 306.771 168.823 306.78 168.16 306.93C164.16 307.93 161.61 314.87 161.39 318.52C161.39 318.76 161.52 321.65 161.62 323.02L161.4 323.08C159.879 319.686 158.667 316.162 157.78 312.55C157.27 310.55 156.89 308.64 156.56 306.77C157.81 306.43 163.56 304.82 165.74 303.01C167.92 301.2 170.06 298.48 169.95 295.59C169.944 294.91 169.796 294.238 169.514 293.619C169.233 292.999 168.824 292.446 168.315 291.994C167.806 291.543 167.208 291.203 166.559 290.998C165.911 290.792 165.226 290.725 164.55 290.8C160.5 291.37 157.17 297.97 156.55 301.58C156.55 301.77 156.39 303.8 156.32 305.28C156.19 304.43 156.03 303.56 155.92 302.74C155.49 299.67 155.28 296.84 155.11 294.33C155.03 292.9 154.99 291.6 154.96 290.39C156.01 289.39 160.23 285.39 161.33 282.86C162.43 280.33 163.08 276.86 161.65 274.34C161.333 273.737 160.893 273.208 160.358 272.786C159.823 272.364 159.205 272.06 158.545 271.893C157.885 271.726 157.196 271.7 156.525 271.817C155.854 271.933 155.215 272.19 154.65 272.57C151.31 274.95 151.4 282.34 152.51 285.83C152.61 286.13 154.64 290.67 154.7 290.62L154.76 290.56C154.76 291.72 154.76 292.97 154.84 294.34C154.95 296.86 155.09 299.71 155.46 302.8C155.821 306.13 156.375 309.435 157.12 312.7C157.936 316.366 159.081 319.95 160.54 323.41L160.6 323.53C159.82 322.62 157.55 320.15 157.35 319.98C154.59 317.58 147.84 314.57 144.35 316.69C143.777 317.058 143.288 317.542 142.915 318.111C142.541 318.68 142.292 319.321 142.184 319.993C142.075 320.665 142.11 321.352 142.285 322.01C142.46 322.668 142.772 323.281 143.2 323.81C144.94 326.12 148.41 326.89 151.15 326.9C154.23 326.9 160.31 324.15 160.8 323.9C162.366 327.386 164.163 330.764 166.18 334.01C167.34 335.9 168.57 337.78 169.83 339.64C169.13 338.88 168.5 338.2 168.4 338.11C165.64 335.72 158.89 332.7 155.4 334.82C154.827 335.188 154.338 335.672 153.965 336.241C153.591 336.81 153.342 337.451 153.234 338.123C153.125 338.795 153.16 339.482 153.335 340.14C153.51 340.798 153.822 341.411 154.25 341.94C155.98 344.26 159.46 345.02 162.2 345.03C164.94 345.04 170.2 342.79 171.58 342.18C172.07 342.89 172.58 343.61 173.05 344.32C175.41 347.71 177.78 351.1 180.05 354.48C180.84 355.68 181.57 356.88 182.3 358.08C181.68 357.4 181.15 356.84 181.06 356.76C178.3 354.36 171.55 351.35 168.06 353.47C167.488 353.838 167 354.323 166.627 354.892C166.255 355.462 166.007 356.104 165.899 356.776C165.792 357.447 165.827 358.134 166.003 358.792C166.179 359.449 166.491 360.062 166.92 360.59C168.65 362.9 172.13 363.67 174.86 363.68C177.59 363.69 182.36 361.68 184 360.94C184.72 362.19 185.44 363.44 186.07 364.69C186.49 365.55 186.95 366.35 187.31 367.24C187.67 368.13 188.08 368.98 188.45 369.83C189.12 371.51 189.81 373.23 190.45 374.88C190.88 376.02 191.27 377.12 191.66 378.22C190.9 377.02 189.34 374.71 189.19 374.53C187.011 372.152 184.256 370.375 181.19 369.37C180.962 369.093 180.708 368.838 180.43 368.61C179.918 368.162 179.318 367.827 178.668 367.627C178.018 367.426 177.334 367.364 176.658 367.445C175.983 367.526 175.333 367.749 174.749 368.097C174.165 368.446 173.661 368.914 173.27 369.47C171.01 372.89 173.75 379.75 176.04 382.61C176.17 382.78 177.84 384.44 178.91 385.47L176.65 384C175.18 383 173.65 382 172.07 380.91L169.66 379.43C168.86 378.92 167.96 378.48 167.1 378C165.1 376.92 163.01 375.92 160.89 375C161.79 373.71 164.89 369.08 165.44 366.38C165.99 363.68 165.86 360.14 163.93 357.99C163.492 357.47 162.949 357.048 162.336 356.751C161.724 356.455 161.056 356.29 160.376 356.268C159.696 356.247 159.019 356.368 158.389 356.625C157.76 356.882 157.191 357.269 156.72 357.76C153.97 360.76 155.64 367.99 157.46 371.16C157.58 371.36 159.14 373.48 160.03 374.63C158.75 374.07 157.47 373.5 156.16 372.97C152.36 371.44 148.47 369.97 144.6 368.56C143.41 368.12 142.23 367.66 141.05 367.21C141.38 366.76 145.22 361.33 145.8 358.31C146.32 355.63 146.23 352.07 144.29 349.92C143.852 349.4 143.309 348.978 142.696 348.681C142.084 348.385 141.416 348.22 140.736 348.198C140.056 348.177 139.379 348.298 138.749 348.555C138.12 348.812 137.551 349.199 137.08 349.69C134.33 352.69 136 359.92 137.83 363.09C137.96 363.33 140.22 366.38 140.83 367.09C138.23 366.09 135.65 365.09 133.14 363.98C129.752 362.513 126.464 360.823 123.3 358.92C123.45 358.71 127.49 353.06 128.08 349.97C128.59 347.29 128.5 343.73 126.57 341.58C126.132 341.06 125.589 340.638 124.976 340.341C124.364 340.045 123.696 339.88 123.016 339.858C122.336 339.837 121.659 339.958 121.029 340.215C120.4 340.472 119.831 340.859 119.36 341.35C116.61 344.35 118.28 351.58 120.1 354.75C120.22 354.96 121.94 357.29 122.79 358.38L122.63 358.55C119.493 356.555 116.541 354.282 113.81 351.76C112.28 350.39 110.9 349 109.59 347.61C110.45 346.61 114.33 342.14 115.18 339.41C116.03 336.68 116.28 333.25 114.6 330.91C114.219 330.346 113.723 329.869 113.146 329.509C112.568 329.149 111.921 328.914 111.247 328.82C110.573 328.726 109.887 328.774 109.233 328.962C108.579 329.15 107.971 329.473 107.45 329.91C104.39 332.63 105.26 339.97 106.72 343.32C106.8 343.5 107.82 345.26 108.58 346.53C108 345.9 107.39 345.26 106.84 344.64C104.84 342.32 103.05 340.07 101.53 338.06C100.67 336.91 99.92 335.86 99.22 334.87C99.57 333.47 100.89 327.82 100.39 325.07C99.89 322.32 98.53 319.07 95.95 317.79C95.3545 317.463 94.6966 317.264 94.0193 317.208C93.342 317.152 92.6605 317.239 92.019 317.463C91.3775 317.688 90.7905 318.045 90.2962 318.511C89.8019 318.978 89.4113 319.543 89.15 320.17C87.68 323.99 91.83 330.1 94.67 332.4C94.92 332.6 99.12 335.26 99.14 335.19C99.1421 335.16 99.1421 335.13 99.14 335.1C99.79 336.1 100.5 337.1 101.29 338.22C102.77 340.22 104.47 342.56 106.48 344.93C108.621 347.509 110.908 349.963 113.33 352.28C116.035 354.866 118.963 357.209 122.08 359.28L122.2 359.35C121.05 359.02 117.79 358.21 117.53 358.18C113.9 357.7 106.62 358.91 104.86 362.61C104.586 363.235 104.446 363.911 104.451 364.594C104.456 365.276 104.605 365.95 104.888 366.571C105.171 367.192 105.582 367.747 106.095 368.198C106.607 368.649 107.208 368.987 107.86 369.19C110.59 370.17 113.91 368.9 116.19 367.39Z" fill="#D3C7AE"/>
<path d="M303.28 113.71C305.42 117.29 313.13 122.54 313.14 122.54C313.15 122.54 315.06 116.41 315.14 116C315.96 111.33 314.8 101.81 310.14 99.3298C309.348 98.9391 308.483 98.7195 307.601 98.6854C306.718 98.6512 305.839 98.8032 305.019 99.1315C304.199 99.4597 303.458 99.9569 302.843 100.591C302.228 101.224 301.753 101.98 301.45 102.81C300 106.29 301.46 110.67 303.28 113.71Z" fill="#D3C7AE"/>
<path d="M378.89 170.25C378.89 170.34 383.89 166.19 384.16 165.89C387.43 162.44 391.71 153.89 389.16 149.2C388.715 148.437 388.114 147.777 387.397 147.261C386.679 146.746 385.862 146.387 384.997 146.209C384.132 146.031 383.239 146.037 382.376 146.226C381.513 146.416 380.7 146.785 379.99 147.31C376.9 149.44 375.71 153.9 375.54 157.44C375.35 161.6 378.89 170.24 378.89 170.25Z" fill="#D3C7AE"/>
<path d="M290.19 137.58C293.08 140.35 301.26 143.23 301.91 143.45C300.26 148.126 298.924 152.906 297.91 157.76C297.3 160.58 296.77 163.45 296.28 166.33C296.28 164.98 296.28 163.77 296.28 163.6C295.84 158.88 292.21 150 287.02 148.85C286.153 148.681 285.259 148.697 284.399 148.896C283.538 149.096 282.728 149.474 282.024 150.007C281.319 150.54 280.734 151.216 280.308 151.99C279.882 152.764 279.624 153.619 279.55 154.5C279.11 158.23 281.69 162.07 284.25 164.5C286.81 166.93 293.77 169.59 295.61 170.25C295.43 171.35 295.24 172.46 295.07 173.56C294.24 178.87 293.44 184.17 292.49 189.35C292.16 191.17 291.76 192.96 291.37 194.75C291.37 193.55 291.37 192.54 291.37 192.39C290.93 187.66 287.3 178.79 282.11 177.63C281.243 177.463 280.35 177.48 279.489 177.681C278.629 177.881 277.821 178.261 277.117 178.795C276.413 179.329 275.83 180.005 275.405 180.78C274.98 181.554 274.722 182.409 274.65 183.29C274.21 187.01 276.78 190.85 279.34 193.29C281.9 195.73 288.19 198.11 290.34 198.91C289.89 200.73 289.44 202.55 288.92 204.29C288.53 205.47 288.25 206.63 287.8 207.8L286.54 211.25C285.67 213.41 284.78 215.65 283.87 217.75C283.25 219.2 282.63 220.58 282.01 221.97C282.36 220.16 283.01 216.6 283.01 216.3C283.29 211.56 281.01 202.24 276.09 200.3C275.258 200.002 274.372 199.882 273.49 199.949C272.609 200.016 271.751 200.269 270.974 200.689C270.196 201.11 269.516 201.69 268.978 202.392C268.44 203.093 268.055 203.9 267.85 204.76C266.85 208.37 268.85 212.56 270.97 215.37C273.35 218.47 280.68 222.43 281.6 222.92C280.6 225.21 279.54 227.44 278.54 229.52C275.64 235.59 272.96 240.69 270.84 244.6L273.73 246.66C275.83 242.66 278.51 237.25 281.39 230.85C282.45 228.52 283.54 226.01 284.63 223.42C287.232 224.063 289.87 224.547 292.53 224.87C293.03 228.87 296.7 235.71 297.18 236.59C295.05 237.94 292.97 239.23 290.98 240.41C285.33 243.81 280.36 246.55 276.47 248.62L279.62 250.87C283.27 248.81 287.69 246.21 292.62 243.1C294.79 241.74 297.08 240.24 299.41 238.68C300.1 239.44 305.8 245.54 309.41 247.06C312.68 248.43 317.22 249.28 320.47 247.39C321.25 246.975 321.933 246.4 322.475 245.702C323.017 245.005 323.406 244.201 323.617 243.343C323.827 242.485 323.854 241.593 323.696 240.724C323.538 239.855 323.199 239.029 322.7 238.3C319.58 233.99 310 234.18 305.48 235.65C305.22 235.74 302.43 237 300.69 237.83C301.64 237.19 302.57 236.57 303.54 235.9C305.47 234.58 307.36 233.21 309.39 231.75L312.29 229.5C313.29 228.76 314.22 227.87 315.2 227.05C317.43 225.11 319.6 223.05 321.73 220.89C322.89 222.57 327.09 228.5 330.12 230.36C333.15 232.22 337.51 233.74 341 232.36C341.834 232.067 342.596 231.602 343.238 230.995C343.88 230.388 344.387 229.652 344.726 228.836C345.064 228.02 345.227 227.142 345.204 226.259C345.181 225.375 344.971 224.507 344.59 223.71C342.16 218.98 332.65 217.71 327.97 218.48C327.68 218.53 324.38 219.48 322.58 220C323.85 218.71 325.13 217.42 326.37 216.06C329.97 212.16 333.49 208.06 337.01 204.06C338.09 202.82 339.19 201.6 340.27 200.38C340.68 200.98 345.51 208.13 348.91 210.22C351.91 212.07 356.3 213.6 359.8 212.22C360.633 211.926 361.394 211.46 362.035 210.853C362.676 210.245 363.182 209.509 363.52 208.693C363.857 207.877 364.019 207 363.995 206.117C363.971 205.234 363.762 204.366 363.38 203.57C360.95 198.84 351.44 197.57 346.76 198.34C346.41 198.39 341.66 199.74 340.47 200.14C342.87 197.44 345.28 194.77 347.77 192.23C351.108 188.79 354.666 185.57 358.42 182.59C358.61 182.87 363.62 190.36 367.1 192.5C370.1 194.35 374.49 195.87 377.99 194.5C378.823 194.206 379.584 193.74 380.225 193.133C380.866 192.525 381.372 191.789 381.71 190.973C382.047 190.157 382.209 189.28 382.185 188.397C382.161 187.514 381.952 186.646 381.57 185.85C379.14 181.12 369.63 179.85 364.95 180.63C364.64 180.63 361.03 181.7 359.32 182.22L359.18 181.95C363.043 179.054 367.156 176.507 371.47 174.34C373.83 173.12 376.15 172.09 378.47 171.13C379.26 172.62 382.95 179.39 385.87 181.66C388.79 183.93 392.87 185.83 396.47 184.85C397.33 184.649 398.137 184.27 398.841 183.737C399.544 183.204 400.128 182.529 400.553 181.755C400.979 180.982 401.236 180.128 401.31 179.248C401.383 178.368 401.271 177.483 400.98 176.65C399.08 171.65 389.78 169.37 385.04 169.65C384.78 169.65 382.17 170.1 380.28 170.43C381.28 170.02 382.38 169.57 383.38 169.19C387.14 167.76 390.66 166.68 393.8 165.75C395.58 165.23 397.21 164.75 398.73 164.41C400.27 165.47 406.52 169.66 410.1 170.31C413.68 170.96 418.21 170.8 420.97 168.26C421.641 167.686 422.183 166.976 422.562 166.178C422.941 165.381 423.147 164.512 423.168 163.629C423.189 162.746 423.024 161.869 422.683 161.054C422.342 160.239 421.833 159.505 421.19 158.9C417.19 155.37 407.9 157.61 403.81 160.01C403.45 160.22 398.3 164.11 398.38 164.17L398.47 164.23C397 164.57 395.42 164.96 393.7 165.41C390.55 166.28 386.98 167.29 383.18 168.64C379.067 170.073 375.04 171.742 371.12 173.64C366.72 175.732 362.514 178.208 358.55 181.04L358.42 181.15C359.34 179.9 361.82 176.32 361.98 176.02C364.22 171.83 366.09 162.43 362.4 158.6C361.768 157.983 361.013 157.507 360.185 157.2C359.356 156.894 358.473 156.765 357.592 156.821C356.71 156.878 355.851 157.119 355.068 157.529C354.286 157.938 353.598 158.508 353.05 159.2C350.63 162.07 350.66 166.69 351.44 170.15C352.32 174.05 357.55 180.96 357.97 181.51C354.011 184.496 350.256 187.744 346.73 191.23C344.66 193.23 342.65 195.35 340.65 197.48C341.42 196.37 342.09 195.37 342.17 195.22C344.41 191.04 346.28 181.63 342.59 177.81C341.96 177.191 341.206 176.712 340.379 176.404C339.551 176.095 338.667 175.966 337.786 176.022C336.904 176.079 336.045 176.321 335.263 176.732C334.482 177.144 333.796 177.715 333.25 178.41C330.82 181.27 330.85 185.89 331.63 189.35C332.41 192.81 336.77 198.85 337.94 200.41L335.66 202.88C332.04 206.88 328.45 210.83 324.8 214.62C323.52 215.96 322.2 217.23 320.89 218.51C321.57 217.51 322.14 216.69 322.21 216.51C324.45 212.33 326.32 202.92 322.63 199.1C321.999 198.481 321.245 198.003 320.417 197.695C319.589 197.387 318.705 197.256 317.824 197.312C316.942 197.367 316.082 197.608 315.299 198.018C314.516 198.427 313.828 198.997 313.28 199.69C310.86 202.56 310.89 207.18 311.67 210.64C312.45 214.1 316.38 219.55 317.77 221.42C316.39 222.68 315.01 223.95 313.61 225.12C312.61 225.89 311.76 226.7 310.74 227.43L307.79 229.61C305.87 230.94 303.89 232.31 301.98 233.56C300.65 234.43 299.38 235.24 298.09 236.06C299.39 234.74 301.87 232.11 302.09 231.87C304.468 228.435 305.928 224.448 306.33 220.29C306.612 219.92 306.86 219.525 307.07 219.11C307.489 218.332 307.74 217.475 307.806 216.594C307.873 215.713 307.753 214.828 307.455 213.996C307.157 213.164 306.687 212.404 306.077 211.766C305.466 211.127 304.728 210.624 303.91 210.29C298.91 208.42 291.04 213.86 288.09 217.58C287.91 217.8 286.29 220.39 285.29 222.04C285.73 220.98 286.17 219.96 286.61 218.86C287.49 216.7 288.31 214.52 289.19 212.17C289.58 211.02 289.98 209.86 290.37 208.69C290.76 207.52 291.08 206.27 291.45 205.05C292.24 202.19 292.9 199.27 293.5 196.3C295.39 197.07 302.16 199.7 305.72 199.58C309.28 199.46 313.72 198.32 315.91 195.25C316.442 194.545 316.82 193.736 317.02 192.876C317.219 192.015 317.234 191.122 317.065 190.255C316.896 189.389 316.547 188.567 316.039 187.844C315.532 187.121 314.878 186.513 314.12 186.06C309.49 183.45 300.86 187.64 297.38 190.86C297.16 191.07 294.92 193.66 293.72 195.11C294.06 193.33 294.42 191.55 294.72 189.73C295.56 184.48 296.25 179.15 296.97 173.83C297.18 172.2 297.42 170.58 297.65 168.96C298.32 169.24 306.3 172.54 310.29 172.4C313.83 172.28 318.29 171.14 320.47 168.07C321.003 167.366 321.382 166.557 321.581 165.697C321.781 164.837 321.798 163.945 321.63 163.078C321.462 162.211 321.113 161.389 320.607 160.666C320.1 159.943 319.447 159.334 318.69 158.88C314.05 156.28 305.42 160.46 301.94 163.69C301.68 163.93 298.46 167.69 297.69 168.69C298.2 165.12 298.69 161.56 299.41 158.07C300.307 153.354 301.506 148.701 303 144.14C303.31 144.27 311.62 147.76 315.71 147.62C319.25 147.49 323.71 146.36 325.89 143.29C326.423 142.585 326.802 141.776 327.002 140.915C327.202 140.054 327.218 139.161 327.05 138.293C326.882 137.425 326.534 136.603 326.027 135.879C325.521 135.155 324.867 134.545 324.11 134.09C319.47 131.49 310.85 135.67 307.36 138.9C307.13 139.11 304.68 141.96 303.54 143.34L303.28 143.19C304.884 138.646 306.892 134.255 309.28 130.07C310.58 127.75 311.94 125.6 313.28 123.54C314.76 124.35 321.57 127.96 325.28 128.25C328.82 128.51 333.39 127.87 335.88 125.06C336.486 124.418 336.951 123.655 337.243 122.822C337.535 121.989 337.649 121.103 337.576 120.223C337.504 119.343 337.246 118.488 336.822 117.714C336.397 116.94 335.813 116.264 335.11 115.73C330.79 112.63 321.76 115.84 317.94 118.67C317.74 118.82 315.8 120.61 314.41 121.94C315.04 121.02 315.68 120.06 316.31 119.19C318.65 115.93 321 113.08 323.09 110.57C324.3 109.16 325.42 107.9 326.47 106.74C328.34 106.74 335.87 106.82 339.21 105.39C342.55 103.96 346.21 101.32 347.15 97.6798C347.393 96.8291 347.454 95.9367 347.329 95.0609C347.203 94.1851 346.895 93.3456 346.423 92.5972C345.951 91.8488 345.326 91.2083 344.59 90.7177C343.854 90.227 343.022 89.8973 342.15 89.7498C336.89 88.9898 330.35 96.0098 328.26 100.27C328.08 100.64 325.93 106.73 326.02 106.73H326.14C325.14 107.83 323.99 109.02 322.81 110.35C320.66 112.81 318.24 115.62 315.81 118.84C313.16 122.292 310.712 125.894 308.48 129.63C305.966 133.802 303.828 138.189 302.09 142.74L302.03 142.91C302.12 141.35 302.2 137 302.17 136.66C301.73 131.93 298.1 123.06 292.91 121.91C292.043 121.743 291.151 121.76 290.291 121.96C289.432 122.16 288.624 122.539 287.92 123.072C287.217 123.605 286.633 124.28 286.207 125.053C285.782 125.826 285.524 126.68 285.45 127.56C285.06 131.29 287.63 135.13 290.19 137.58Z" fill="#D3C7AE"/>
<path d="M350.67 313.61V310.26C350.67 293.01 372.51 292.26 372.51 279.98C372.51 274.65 368.17 271.17 361.71 271.17C354.64 271.17 350.17 275.02 350.17 280.48V281.85C350.17 283.21 349.43 283.85 348.06 283.85L334.79 283.35C333.55 283.35 332.68 282.73 332.68 281.87V280.5C332.68 265.5 344.59 255.19 362.09 255.19C379.21 255.19 390.25 264.87 390.25 279.38C390.25 299.98 368.04 300.11 368.04 311.38V313.61C368.074 313.895 368.042 314.184 367.948 314.456C367.854 314.727 367.7 314.974 367.497 315.177C367.294 315.38 367.047 315.534 366.776 315.628C366.504 315.722 366.215 315.754 365.93 315.72H352.78C352.495 315.754 352.206 315.722 351.934 315.628C351.663 315.534 351.416 315.38 351.213 315.177C351.01 314.974 350.856 314.727 350.762 314.456C350.668 314.184 350.636 313.895 350.67 313.61ZM349.55 333.61C349.55 328.15 354.39 323.68 360.22 323.68C365.81 323.68 370.77 328.15 370.77 333.61C370.77 339.07 365.77 343.54 360.1 343.54C354.43 343.54 349.55 339.05 349.55 333.59V333.61Z" fill="#424C61"/>
<path d="M88.47 171.51V168.6C88.47 153.6 107.47 152.97 107.47 142.3C107.47 137.66 103.7 134.65 98.1 134.65C91.95 134.65 88.1 137.99 88.1 142.73V143.92C88.1 145.1 87.46 145.64 86.27 145.64L74.74 145.21C73.66 145.21 72.91 144.67 72.91 143.92V142.73C72.91 129.73 83.25 120.73 98.45 120.73C113.32 120.73 122.92 129.14 122.92 141.73C122.92 159.62 103.62 159.73 103.62 169.54V171.48C103.649 171.727 103.621 171.978 103.54 172.213C103.458 172.448 103.324 172.662 103.148 172.838C102.972 173.014 102.758 173.148 102.523 173.23C102.288 173.311 102.037 173.339 101.79 173.31H90.3C90.0555 173.338 89.8078 173.311 89.5751 173.231C89.3424 173.151 89.1306 173.02 88.9551 172.847C88.7797 172.674 88.6451 172.465 88.5611 172.233C88.4772 172.002 88.4461 171.755 88.47 171.51ZM87.47 188.86C87.47 184.12 91.67 180.24 96.73 180.24C101.58 180.24 105.9 184.12 105.9 188.86C105.9 193.6 101.58 197.48 96.63 197.48C94.2785 197.539 91.999 196.666 90.2886 195.051C88.5783 193.437 87.5758 191.211 87.5 188.86H87.47Z" fill="#424C61"/>
<path d="M329.83 56.7599V55.2899C329.83 47.7199 339.41 47.3899 339.41 41.9999C339.41 39.6599 337.5 38.1299 334.67 38.1299C331.57 38.1299 329.61 39.8199 329.61 42.2199V42.8199C329.61 43.4199 329.28 43.6899 328.68 43.6899L322.86 43.4699C322.31 43.4699 321.93 43.1999 321.93 42.8199V42.2199C321.93 35.6299 327.16 31.1099 334.84 31.1099C342.35 31.1099 347.2 35.3599 347.2 41.7299C347.2 50.7299 337.45 50.8199 337.45 55.7299V56.7299C337.465 56.8551 337.451 56.982 337.409 57.1011C337.367 57.2201 337.299 57.328 337.209 57.4167C337.12 57.5054 337.011 57.5724 336.892 57.6129C336.772 57.6533 336.645 57.6659 336.52 57.6499H330.75C330.628 57.6654 330.504 57.6533 330.388 57.6145C330.271 57.5757 330.165 57.5112 330.076 57.4258C329.988 57.3403 329.92 57.2361 329.877 57.1209C329.835 57.0056 329.819 56.8822 329.83 56.7599ZM329.34 65.5299C329.276 64.5948 329.494 63.6621 329.967 62.853C330.44 62.0439 331.146 61.3958 331.992 60.993C332.839 60.5903 333.786 60.4515 334.713 60.5947C335.639 60.7379 336.501 61.1565 337.186 61.7961C337.871 62.4356 338.348 63.2665 338.554 64.1807C338.761 65.0949 338.688 66.0501 338.344 66.9221C338 67.7941 337.402 68.5425 336.628 69.07C335.853 69.5975 334.937 69.8797 334 69.8799C333.408 69.9012 332.818 69.8056 332.263 69.5984C331.708 69.3911 331.2 69.0764 330.767 68.6723C330.334 68.2682 329.985 67.7826 329.74 67.2433C329.495 66.7041 329.359 66.1218 329.34 65.5299Z" fill="#424C61"/>
<path d="M49 259V257.15C49 247.61 61.08 247.2 61.08 240.4C61.08 237.45 58.68 235.53 55.08 235.53C51.17 235.53 48.7 237.66 48.7 240.68V241.43C48.7 242.19 48.29 242.53 47.53 242.53L40.19 242.26C39.5 242.26 39.02 241.91 39.02 241.43V240.68C39.02 232.38 45.61 226.68 55.29 226.68C64.76 226.68 70.86 232.03 70.86 240.06C70.86 251.45 58.58 251.52 58.58 257.77V259C58.5994 259.158 58.5825 259.319 58.5306 259.469C58.4787 259.62 58.3931 259.757 58.2803 259.87C58.1675 259.983 58.0305 260.068 57.8797 260.12C57.729 260.172 57.5683 260.189 57.41 260.17H50.15C49.9933 260.186 49.8349 260.166 49.6867 260.113C49.5384 260.06 49.4041 259.974 49.2937 259.861C49.1832 259.749 49.0995 259.613 49.0486 259.464C48.9978 259.315 48.9812 259.156 49 259ZM48.38 270.05C48.3017 268.872 48.5799 267.697 49.1784 266.679C49.7769 265.662 50.6679 264.847 51.7355 264.343C52.8031 263.839 53.9978 263.668 55.1641 263.852C56.3304 264.036 57.4142 264.567 58.2745 265.376C59.1348 266.184 59.7317 267.233 59.9874 268.386C60.2432 269.539 60.1461 270.742 59.7086 271.838C59.2711 272.935 58.5136 273.875 57.5347 274.535C56.5557 275.195 55.4007 275.545 54.22 275.54C52.7151 275.588 51.2524 275.037 50.1536 274.008C49.0547 272.978 48.4096 271.555 48.36 270.05H48.38Z" stroke="#9F854E" stroke-miterlimit="10"/>
<path d="M188.79 104.23V102.96C188.79 96.4 197.1 96.11 197.1 91.44C197.1 89.44 195.45 88.09 192.99 88.09C190.3 88.09 188.6 89.55 188.6 91.63V92.15C188.6 92.67 188.32 92.9 187.8 92.9L182.8 92.71C182.33 92.71 182 92.48 182 92.15V91.63C182 85.92 186.53 82 193.18 82C199.83 82 203.79 85.68 203.79 91.2C203.79 99.04 195.34 99.09 195.34 103.38V104.23C195.353 104.338 195.341 104.448 195.305 104.551C195.27 104.654 195.211 104.747 195.134 104.824C195.057 104.901 194.964 104.96 194.861 104.995C194.758 105.031 194.648 105.043 194.54 105.03H189.54C189.436 105.035 189.332 105.017 189.235 104.978C189.138 104.939 189.052 104.879 188.98 104.803C188.909 104.727 188.855 104.637 188.822 104.538C188.789 104.439 188.778 104.334 188.79 104.23ZM188.37 111.83C188.326 111.031 188.523 110.237 188.935 109.551C189.346 108.865 189.955 108.318 190.681 107.981C191.407 107.645 192.217 107.533 193.007 107.662C193.797 107.791 194.53 108.153 195.111 108.703C195.693 109.252 196.096 109.964 196.269 110.745C196.442 111.526 196.377 112.342 196.082 113.086C195.787 113.829 195.275 114.468 194.613 114.918C193.952 115.368 193.17 115.609 192.37 115.61C191.337 115.645 190.333 115.269 189.577 114.564C188.821 113.859 188.376 112.883 188.34 111.85L188.37 111.83Z" fill="#9F854E"/>
<path d="M289 360.53V359.26C289 352.7 297.31 352.42 297.31 347.74C297.31 345.74 295.66 344.39 293.2 344.39C290.51 344.39 288.81 345.85 288.81 347.93V348.45C288.81 348.97 288.53 349.21 288.01 349.21L283.01 349.02C282.54 349.02 282.21 348.78 282.21 348.45V347.93C282.21 342.22 286.74 338.3 293.39 338.3C300.04 338.3 304.11 341.98 304.11 347.51C304.11 355.34 295.66 355.39 295.66 359.68V360.53C295.673 360.638 295.661 360.748 295.625 360.852C295.589 360.955 295.531 361.049 295.454 361.127C295.377 361.204 295.284 361.264 295.181 361.301C295.078 361.338 294.969 361.351 294.86 361.34H289.86C289.747 361.361 289.63 361.356 289.519 361.323C289.409 361.291 289.307 361.233 289.224 361.154C289.14 361.075 289.076 360.977 289.037 360.869C288.998 360.76 288.985 360.644 289 360.53ZM288.58 368.13C288.536 367.331 288.733 366.537 289.145 365.851C289.556 365.165 290.165 364.618 290.891 364.281C291.617 363.944 292.427 363.833 293.217 363.962C294.007 364.09 294.74 364.453 295.321 365.003C295.903 365.552 296.306 366.264 296.479 367.045C296.652 367.826 296.587 368.642 296.292 369.385C295.997 370.129 295.485 370.767 294.823 371.217C294.162 371.667 293.38 371.909 292.58 371.91C291.551 371.934 290.553 371.55 289.806 370.842C289.058 370.134 288.621 369.159 288.59 368.13H288.58Z" stroke="#9F854E" stroke-miterlimit="10"/>
<path d="M249.85 383.29C249.78 383.08 249.71 382.87 249.63 382.66C249.55 382.45 249.49 382.23 249.41 382.02C249.33 381.81 249.27 381.6 249.19 381.39C249.11 381.18 249.05 380.96 248.97 380.75C248.89 380.54 248.83 380.33 248.75 380.12C248.67 379.91 248.61 379.69 248.53 379.48L248.31 378.85C248.24 378.63 248.16 378.42 248.09 378.21L247.87 377.58C247.8 377.36 247.72 377.15 247.65 376.94L247.43 376.31C247.36 376.09 247.28 375.88 247.21 375.67L247 375C246.93 374.78 246.85 374.57 246.78 374.36L246.55 373.73C246.48 373.51 246.41 373.3 246.33 373.09C246.25 372.88 246.19 372.67 246.11 372.46C246.03 372.25 245.97 372.03 245.89 371.82C245.81 371.61 245.75 371.4 245.67 371.19C242.41 361.27 232.33 353.99 221.24 353.99C210.49 353.99 201.14 360.25 197.24 369.07C197.14 369.27 197.05 369.48 196.96 369.68L196.69 370.3C196.59 370.5 196.5 370.7 196.41 370.91C196.32 371.12 196.22 371.32 196.13 371.52L195.86 372.13C195.76 372.34 195.67 372.54 195.58 372.75C195.49 372.96 195.39 373.15 195.3 373.36C195.21 373.57 195.11 373.76 195.02 373.97L194.75 374.58C194.65 374.78 194.56 374.99 194.47 375.19C194.38 375.39 194.28 375.6 194.19 375.8L193.92 376.42C193.82 376.62 193.73 376.82 193.64 377.03C193.55 377.24 193.45 377.44 193.36 377.64L193.09 378.25C192.99 378.46 192.9 378.66 192.81 378.87C192.72 379.08 192.62 379.27 192.53 379.48L192.26 380.09C192.16 380.29 192.07 380.5 191.98 380.7C191.89 380.9 191.79 381.11 191.7 381.32C189.984 384.974 189.103 388.964 189.12 393C189.12 409.1 203.02 422.26 220.21 422.26C237.03 422.26 251.66 409.1 251.66 393C251.657 389.931 251.119 386.885 250.07 384C250 383.71 249.93 383.5 249.85 383.29Z" fill="#917947"/>
<path d="M226.06 161.8C174.49 161.8 139.38 192.15 139.38 236.41V240.41C139.389 241.071 139.569 241.718 139.902 242.289C140.235 242.86 140.709 243.336 141.28 243.67C141.496 243.877 141.73 244.065 141.98 244.23C142.197 244.44 142.435 244.628 142.69 244.79C142.907 245 143.145 245.188 143.4 245.35C143.615 245.563 143.853 245.751 144.11 245.91C144.323 246.12 144.558 246.308 144.81 246.47C145.026 246.684 145.264 246.875 145.52 247.04C145.739 247.248 145.977 247.435 146.23 247.6C146.447 247.81 146.685 247.997 146.94 248.16C147.154 248.37 147.388 248.557 147.64 248.72C147.875 248.946 148.133 249.147 148.41 249.32C148.614 249.506 148.831 249.676 149.06 249.83C149.279 250.038 149.517 250.225 149.77 250.39C149.986 250.597 150.22 250.785 150.47 250.95C150.689 251.158 150.927 251.345 151.18 251.51C151.397 251.72 151.635 251.907 151.89 252.07C152.104 252.28 152.338 252.467 152.59 252.63C152.807 252.84 153.045 253.027 153.3 253.19C153.514 253.4 153.748 253.587 154 253.75C154.219 253.958 154.457 254.145 154.71 254.31C154.924 254.52 155.158 254.707 155.41 254.87C156.565 255.887 158.073 256.411 159.61 256.33L191.77 257.53C195.08 257.53 196.88 256.03 196.88 252.72V249.42C196.88 236.19 207.7 226.88 224.88 226.88C240.51 226.88 251.03 235.29 251.03 248.22C251.03 249.693 250.89 251.163 250.61 252.61C234.47 273.77 192.46 283.1 192.46 324.17V334.05C192.46 338.05 194.65 340.26 198.68 340.26H237.4C241.4 340.26 243.62 338.07 243.62 334.05V327.46C243.62 294.18 309.09 293.81 309.09 233.1C309.09 190.32 276.53 161.8 226.06 161.8Z" fill="#917947"/>
<path d="M192.41 334.07V324.19C192.41 273.35 256.78 271.19 256.78 234.95C256.78 219.22 243.98 208.95 224.96 208.95C204.11 208.95 190.96 220.29 190.96 236.38V240.38C190.96 244.38 188.76 246.24 184.74 246.24L145.6 244.77C141.95 244.77 139.39 242.94 139.39 240.38V236.38C139.39 192.12 174.5 161.77 226.07 161.77C276.54 161.77 309.07 190.29 309.07 233.09C309.07 293.8 243.6 294.17 243.6 327.45V334.04C243.6 338.04 241.4 340.25 237.38 340.25H198.63C194.6 340.28 192.41 338.09 192.41 334.07ZM189.12 393C189.12 376.91 203.38 363.74 220.57 363.74C237.03 363.74 251.66 376.91 251.66 393C251.66 409.09 237 422.21 220.21 422.21C203 422.21 189.12 409.05 189.12 393Z" fill="#9F854E" stroke="#9F854E" stroke-miterlimit="10"/>
<path d="M218.61 455C248.77 455 273.22 449.533 273.22 442.79C273.22 436.047 248.77 430.58 218.61 430.58C188.45 430.58 164 436.047 164 442.79C164 449.533 188.45 455 218.61 455Z" fill="#917947"/>
</svg>
