<svg width="244" height="273" viewBox="0 0 244 273" fill="none" xmlns="http://www.w3.org/2000/svg">
<path d="M25.4787 176.002C32.0362 173.854 43.665 163.354 43.665 163.332C43.665 163.311 34.3095 157.985 33.6756 157.728C26.3093 154.679 10.2433 153.047 4.40705 159.725C3.48395 160.861 2.81268 162.174 2.43626 163.58C2.05985 164.986 1.9866 166.454 2.2212 167.889C2.4558 169.324 2.99309 170.696 3.79862 171.915C4.60414 173.135 5.66013 174.176 6.89892 174.971C12.0575 178.578 19.7955 177.805 25.4787 176.002Z" fill="#D3C7AE" fill-opacity="0.15"/>
<path d="M146.597 74.7754C146.75 74.7754 141.788 65.2628 141.394 64.683C137.023 58.241 124.476 48.084 115.864 50.4891C114.444 50.9279 113.134 51.655 112.018 52.6232C110.903 53.5914 110.007 54.7791 109.388 56.1092C108.77 57.4394 108.443 58.8823 108.429 60.3445C108.415 61.8067 108.714 63.2556 109.306 64.5971C111.645 70.3519 118.53 73.9165 124.301 75.4841C131.077 77.3308 146.575 74.7969 146.597 74.7754Z" fill="#D3C7AE" fill-opacity="0.15"/>
<path d="M59.7746 205.871C65.4141 202.242 73.1958 190.11 73.8078 189.143C80.8629 193.529 88.2093 197.446 95.7975 200.868C100.169 202.886 104.716 204.797 109.262 206.644C107.076 206.086 105.087 205.635 104.891 205.592C96.956 204.561 81.0211 207.159 77.1959 215.105C76.5963 216.447 76.2918 217.898 76.3024 219.364C76.313 220.83 76.6385 222.277 77.2574 223.61C77.8764 224.944 78.7749 226.134 79.8944 227.103C81.0138 228.072 82.3288 228.798 83.7534 229.234C89.699 231.381 96.8686 228.568 101.962 225.347C107.055 222.126 113.875 211.841 115.645 209.113L120.891 211.261C129.307 214.546 137.7 217.703 145.854 221.224C148.717 222.427 151.493 223.737 154.291 225.004C152.324 224.531 150.684 224.145 150.422 224.123C142.487 223.093 126.574 225.691 122.727 233.636C122.128 234.977 121.823 236.427 121.834 237.891C121.845 239.355 122.171 240.801 122.79 242.133C123.409 243.465 124.308 244.653 125.427 245.62C126.546 246.587 127.861 247.311 129.285 247.744C135.252 249.891 142.509 247.078 147.493 243.857C152.477 240.636 158.728 231.36 160.87 228.139C163.668 229.535 166.488 230.93 169.155 232.434C170.947 233.486 172.761 234.366 174.51 235.526L179.712 238.811C182.926 240.958 186.27 243.278 189.374 245.511C191.56 247.057 193.571 248.56 195.625 250.063C192.784 248.839 187.166 246.52 186.663 246.391C178.991 244.244 162.838 244.394 157.832 251.674C157.03 252.906 156.502 254.29 156.282 255.737C156.062 257.183 156.155 258.659 156.555 260.067C156.955 261.476 157.653 262.786 158.604 263.911C159.555 265.036 160.737 265.952 162.073 266.598C167.625 269.54 175.188 267.908 180.674 265.46C186.642 262.775 195.975 252.404 197.024 251.094C200.412 253.606 203.691 256.076 206.73 258.459C215.604 265.352 222.992 271.558 228.588 276.411L232.96 272.503C227.102 267.65 219.276 261.337 209.855 254.336C206.424 251.781 202.708 249.097 198.926 246.391C200.944 242.423 202.724 238.344 204.26 234.173C210.97 234.839 223.604 231.424 225.244 230.973C226.665 234.903 227.998 238.747 229.2 242.376C232.654 252.747 235.299 261.702 237.244 268.809L242.14 264.515C240.108 257.879 237.485 249.784 234.228 240.658C232.807 236.664 231.211 232.434 229.506 228.096C231.014 227.258 243.168 220.301 246.993 215.062C250.468 210.295 253.551 203.273 251.671 197.325C251.274 195.918 250.581 194.608 249.637 193.481C248.693 192.354 247.519 191.433 246.19 190.78C244.861 190.126 243.408 189.753 241.923 189.686C240.439 189.619 238.956 189.858 237.572 190.389C229.331 193.846 226.052 209.371 226.774 217.187C226.774 217.66 227.867 222.62 228.566 225.777C227.867 223.994 227.211 222.277 226.38 220.473C224.938 216.865 223.386 213.322 221.746 209.5C220.872 207.675 220.02 205.849 219.123 204.003C218.227 202.156 217.178 200.288 216.194 198.398C213.855 194.104 211.254 189.809 208.522 185.514C211.735 184.269 223.036 179.673 227.233 175.465C231.43 171.256 235.539 164.728 234.577 158.651C234.408 157.2 233.93 155.8 233.173 154.543C232.417 153.286 231.399 152.199 230.186 151.354C228.974 150.509 227.593 149.925 226.135 149.64C224.677 149.354 223.174 149.373 221.725 149.697C212.981 151.844 207.407 166.747 206.926 174.584C206.926 175.057 207.189 180.726 207.407 183.839C205.746 181.305 204.107 178.772 202.358 176.259C197.287 169.023 191.909 161.851 186.598 154.678C184.958 152.531 183.363 150.276 181.767 148.065C182.904 147.635 196.456 142.46 201.156 137.757C205.331 133.463 209.462 127.021 208.522 120.922C208.35 119.47 207.869 118.07 207.11 116.813C206.351 115.556 205.332 114.469 204.117 113.625C202.903 112.78 201.521 112.196 200.062 111.911C198.602 111.625 197.098 111.645 195.647 111.968C186.904 114.115 181.33 129.018 180.849 136.856C180.849 137.457 181.243 145.595 181.461 147.592C177.92 142.718 174.445 137.843 171.209 132.904C166.799 126.262 162.841 119.339 159.362 112.183C159.887 111.989 174.051 106.643 178.86 101.811C183.035 97.5164 187.166 91.0744 186.226 84.9974C186.057 83.5464 185.579 82.1466 184.822 80.8893C184.066 79.6321 183.048 78.5456 181.835 77.7007C180.623 76.8558 179.242 76.2715 177.784 75.9859C176.326 75.7002 174.823 75.7197 173.373 76.043C164.63 78.1903 159.056 93.0928 158.575 100.931C158.575 101.446 158.859 107.652 159.078 110.594L158.597 110.722C155.271 103.435 152.623 95.867 150.684 88.111C149.569 83.8164 148.739 79.715 148.018 75.6994C150.75 74.9693 163.319 71.5122 168.084 67.6255C172.849 63.7388 177.527 57.898 177.286 51.6922C177.274 50.2311 176.95 48.7889 176.334 47.4588C175.718 46.1286 174.825 44.9403 173.713 43.9707C172.6 43.0011 171.292 42.2718 169.875 41.8301C168.457 41.3884 166.961 41.2441 165.483 41.4065C156.63 42.6304 149.351 56.8029 147.996 64.5547C147.996 64.9627 147.646 69.3219 147.493 72.4999C147.209 70.6747 146.859 68.8065 146.619 67.0457C145.679 60.4533 145.22 54.3764 144.848 48.9866C144.673 45.9159 144.586 43.1244 144.52 40.5261C146.815 38.3788 156.04 29.7894 158.444 24.3566C160.848 18.9238 162.269 11.4726 159.144 6.06133C158.451 4.76634 157.489 3.62913 156.32 2.72374C155.15 1.81836 153.8 1.16512 152.356 0.806554C150.913 0.447989 149.409 0.392138 147.942 0.642659C146.475 0.893181 145.078 1.44446 143.843 2.26057C136.542 7.37123 136.739 23.24 139.165 30.7342C139.383 31.3784 143.821 41.1273 143.952 41.02L144.083 40.8911C144.083 43.382 144.083 46.0662 144.258 49.0081C144.498 54.4193 144.804 60.5392 145.613 67.1745C146.402 74.3239 147.613 81.4222 149.242 88.4332C151.026 96.304 153.528 104.001 156.717 111.431L156.848 111.689C155.143 109.735 150.182 104.431 149.744 104.066C143.711 98.9122 128.957 92.4487 121.328 97.001C120.076 97.7897 119.007 98.8291 118.191 100.051C117.375 101.273 116.831 102.651 116.593 104.094C116.356 105.537 116.431 107.012 116.814 108.425C117.197 109.837 117.878 111.154 118.815 112.29C122.618 117.25 130.203 118.904 136.192 118.925C142.924 118.925 156.214 113.02 157.286 112.483C160.709 119.969 164.638 127.222 169.045 134.193C171.581 138.251 174.27 142.288 177.024 146.282C175.494 144.65 174.117 143.19 173.898 142.997C167.865 137.865 153.111 131.38 145.482 135.932C144.229 136.721 143.16 137.76 142.344 138.982C141.529 140.205 140.984 141.582 140.747 143.025C140.51 144.468 140.585 145.943 140.968 147.356C141.351 148.768 142.032 150.085 142.968 151.221C146.75 156.203 154.357 157.835 160.346 157.857C166.335 157.878 177.833 153.046 180.849 151.737C181.92 153.261 183.035 154.807 184.062 156.332C189.221 163.611 194.401 170.891 199.363 178.149C201.09 180.726 202.686 183.302 204.281 185.879C202.926 184.419 201.768 183.217 201.571 183.045C195.538 177.891 180.783 171.428 173.155 175.98C171.904 176.771 170.837 177.811 170.023 179.034C169.209 180.257 168.667 181.635 168.432 183.078C168.197 184.52 168.274 185.996 168.658 187.407C169.043 188.818 169.726 190.134 170.663 191.269C174.445 196.229 182.051 197.883 188.019 197.904C193.986 197.926 204.413 193.61 207.997 192.021C209.571 194.705 211.145 197.389 212.522 200.073C213.44 201.92 214.446 203.638 215.233 205.549C216.019 207.46 216.916 209.285 217.724 211.11C219.189 214.718 220.697 218.411 222.096 221.955C223.036 224.402 223.889 226.765 224.741 229.127C223.08 226.55 219.67 221.589 219.342 221.203C214.578 216.095 208.556 212.279 201.855 210.123C201.357 209.526 200.801 208.98 200.194 208.491C199.075 207.529 197.763 206.81 196.343 206.379C194.922 205.948 193.426 205.815 191.95 205.989C190.474 206.163 189.052 206.641 187.776 207.39C186.5 208.139 185.398 209.143 184.543 210.337C179.603 217.681 185.592 232.412 190.598 238.553C190.882 238.918 194.533 242.483 196.871 244.695L191.931 241.538C188.718 239.391 185.374 237.244 181.92 234.903L176.652 231.725C174.904 230.63 172.936 229.685 171.056 228.654C166.685 226.335 162.116 224.188 157.482 222.212C159.45 219.442 166.226 209.5 167.428 203.702C168.63 197.904 168.346 190.303 164.127 185.686C163.169 184.569 161.982 183.663 160.644 183.026C159.305 182.389 157.846 182.035 156.359 181.989C154.873 181.942 153.393 182.203 152.016 182.755C150.64 183.307 149.396 184.137 148.367 185.192C142.356 191.634 146.007 207.159 149.985 213.966C150.247 214.396 153.657 218.948 155.602 221.418C152.805 220.215 150.007 218.991 147.143 217.853C138.837 214.568 130.334 211.411 121.875 208.383C119.274 207.439 116.694 206.451 114.115 205.484C114.836 204.518 123.23 192.858 124.498 186.373C125.634 180.618 125.438 172.974 121.197 168.357C120.239 167.24 119.052 166.334 117.713 165.697C116.375 165.06 114.915 164.706 113.429 164.66C111.943 164.613 110.463 164.874 109.086 165.426C107.709 165.978 106.466 166.808 105.437 167.863C99.426 174.305 103.076 189.83 107.076 196.637C107.361 197.153 112.301 203.702 113.634 205.227C107.951 203.079 102.311 200.932 96.8248 198.549C89.4185 195.398 82.2332 191.768 75.3161 187.683C75.6439 187.232 84.4748 175.1 85.7644 168.464C86.8792 162.71 86.6825 155.065 82.4638 150.448C81.5054 149.331 80.3185 148.425 78.9802 147.788C77.6419 147.151 76.1821 146.798 74.6958 146.751C73.2095 146.704 71.7298 146.966 70.3529 147.517C68.976 148.069 67.7327 148.9 66.7038 149.954C60.6927 156.396 64.3431 171.922 68.3213 178.729C68.5836 179.18 72.3433 184.183 74.2012 186.523L73.8515 186.888C66.995 182.603 60.5428 177.724 54.5723 172.308C51.2279 169.366 48.2115 166.381 45.348 163.397C47.2278 161.249 55.7089 151.651 57.5669 145.789C59.4249 139.926 59.9714 132.561 56.2991 127.536C55.4657 126.326 54.3827 125.3 53.1203 124.527C51.8579 123.754 50.4443 123.25 48.9709 123.047C47.4976 122.845 45.9974 122.949 44.5674 123.352C43.1375 123.755 41.8098 124.449 40.6703 125.389C33.9815 131.23 35.8832 146.991 39.0746 154.185C39.2495 154.571 41.479 158.35 43.1403 161.078C41.8725 159.725 40.5391 158.35 39.3369 157.019C34.9652 152.037 31.0525 147.206 27.73 142.89C25.8502 140.42 24.2108 138.165 22.6807 136.04C23.4457 133.033 26.3311 120.901 25.2381 114.996C24.1452 109.091 21.1724 102.112 15.5329 99.3631C14.2312 98.6599 12.7933 98.2339 11.3128 98.1128C9.83233 97.9918 8.34251 98.1784 6.94032 98.6605C5.53814 99.1426 4.25504 99.9094 3.17455 100.911C2.09405 101.913 1.24039 103.127 0.669151 104.474C-2.54405 112.677 6.52723 125.797 12.7351 130.736C13.2815 131.165 22.4621 136.877 22.5058 136.727C22.5104 136.662 22.5104 136.598 22.5058 136.534C23.9266 138.681 25.4786 140.828 27.2054 143.233C30.4405 147.528 34.1564 152.553 38.55 157.642C43.2292 163.18 48.2285 168.45 53.5231 173.425C59.4363 178.978 65.8365 184.008 72.6493 188.456L72.9116 188.606C70.3979 187.898 63.272 186.158 62.7037 186.094C54.769 185.063 38.856 187.662 35.0089 195.607C34.4093 196.949 34.1048 198.4 34.1154 199.866C34.1261 201.332 34.4515 202.779 35.0704 204.112C35.6894 205.446 36.588 206.636 37.7074 207.605C38.8268 208.575 40.1418 209.301 41.5665 209.736C47.5338 211.841 54.7909 209.113 59.7746 205.871Z" fill="#D3C7AE" fill-opacity="0.15"/>
</svg>
