<svg width="600" height="588" viewBox="0 0 600 588" fill="none" xmlns="http://www.w3.org/2000/svg">
<g clip-path="url(#clip0_703_5894)">
<path d="M234.105 541.98L42.7059 431.452C35.4384 427.247 35.4384 420.384 42.7059 416.179L333.305 248.398C334.992 247.543 336.857 247.097 338.749 247.097C340.641 247.097 342.506 247.543 344.194 248.398L547.253 365.651C548.114 366.158 548.114 366.917 547.253 367.449L244.993 541.98C243.304 542.83 241.44 543.272 239.549 543.272C237.658 543.272 235.794 542.83 234.105 541.98Z" fill="#E0E0E0"/>
<path d="M110.861 37.4086L98.9468 44.285C98.9468 43.7531 99.0481 43.2212 99.0481 42.702V39.2575C99.0481 33.1029 94.7306 30.6208 89.413 33.6855C87.1225 35.0914 85.1619 36.9746 83.6648 39.2068C82.7912 31.482 76.7265 28.6073 69.3703 32.875C61.4065 37.4719 54.9493 48.6539 54.9493 57.8478V63.0145C54.9086 65.0776 55.3417 67.1225 56.2154 68.9918L46.3143 74.7158C44.7463 75.729 43.4409 77.0998 42.5054 78.7156C41.57 80.3315 41.0312 82.1463 40.9333 84.0109C40.9333 87.4175 43.3263 88.7978 46.2764 87.1009L110.848 49.7937C112.404 48.78 113.699 47.4133 114.628 45.8047C115.556 44.1962 116.092 42.3912 116.191 40.5365C116.204 37.0793 113.811 35.699 110.861 37.4086Z" fill="#F5F3ED"/>
<path d="M183.03 49.971L174.028 55.1631C174.078 54.7684 174.103 54.3708 174.103 53.9728V51.44C174.103 46.7924 170.85 44.9182 166.836 47.2357C165.108 48.2761 163.622 49.6752 162.481 51.3387C161.822 45.5134 157.251 43.3353 151.693 46.5392C145.692 50.009 140.817 58.4557 140.817 65.3954V69.2958C140.776 70.8496 141.092 72.3921 141.742 73.8041L134.271 78.1224C133.097 78.889 132.12 79.9213 131.418 81.1356C130.717 82.3499 130.31 83.7124 130.233 85.1127C130.233 87.6455 132.043 88.7219 134.271 87.4429L183.017 59.2915C184.184 58.5291 185.157 57.5047 185.858 56.2999C186.559 55.0951 186.969 53.7432 187.056 52.3518C187.056 49.7304 185.271 48.692 183.03 49.971Z" fill="#F5F3ED"/>
<path d="M64.1413 381.873C64.1413 381.873 65.0782 359.636 56.8738 340.97C48.6693 322.303 35.3498 309.386 21.6377 306.107C7.9257 302.827 -5.38118 313.869 8.14094 325.013C21.6631 336.157 46.7448 349.29 53.7211 384.127L64.1413 381.873Z" fill="#9F854E"/>
<path opacity="0.15" d="M64.1413 381.873C64.1413 381.873 65.0782 359.636 56.8738 340.97C48.6693 322.303 35.3498 309.386 21.6377 306.107C7.9257 302.827 -5.38118 313.869 8.14094 325.013C21.6631 336.157 46.7448 349.29 53.7211 384.127L64.1413 381.873Z" fill="black"/>
<path d="M60.9506 375.554H61.1026C61.2967 375.506 61.4641 375.383 61.5684 375.213C61.6727 375.042 61.7055 374.837 61.6596 374.642C52.6322 336.119 27.006 316.605 14.7247 311.678C14.6335 311.64 14.5354 311.62 14.4363 311.62C14.3372 311.62 14.2392 311.64 14.1481 311.679C14.057 311.718 13.9747 311.775 13.9063 311.847C13.8378 311.919 13.7846 312.004 13.7498 312.096C13.6785 312.281 13.6823 312.487 13.7604 312.669C13.8385 312.851 13.9846 312.996 14.1676 313.071C26.2084 317.909 51.3155 337.069 60.1909 374.972C60.2315 375.141 60.3292 375.291 60.4675 375.398C60.6058 375.504 60.7764 375.559 60.9506 375.554Z" fill="white"/>
<path d="M38.4011 416.002C40.4902 422.739 45.58 426.411 52.4803 427.754C56.8738 428.602 63.8754 427.754 67.6737 425.006C72.8395 421.207 74.5867 418.421 75.6629 414.685C77.0377 409.706 77.7904 404.576 77.904 399.412C78.0306 395.613 75.9795 392.295 74.4348 390.105C73.6107 389.051 72.7138 388.057 71.7506 387.129C70.6997 386.002 69.5223 385.026 68.4081 383.975C66.8079 382.622 65.5864 380.877 64.863 378.91C64.002 376.111 64.863 373.097 64.863 370.172C64.7771 367.227 63.7216 364.393 61.8603 362.11C59.9989 359.827 57.436 358.223 54.5694 357.546C51.694 356.822 48.7702 356.305 45.8206 356.001C41.4271 355.596 36.6919 356.875 32.4124 355.533C28.1329 354.19 24.4232 352.012 20.0424 351.176C15.4591 350.303 10.3693 350.999 6.78619 354.178C5.73274 355.025 4.90356 356.119 4.37152 357.362C3.83947 358.605 3.62084 359.96 3.73485 361.307C4.21597 364.245 6.72288 366.373 9.10318 368.146C11.4835 369.919 14.079 371.844 14.864 374.706C16.434 380.48 9.79954 386.28 11.6354 391.979C12.1068 393.148 12.8097 394.209 13.7018 395.099C14.5939 395.989 15.6568 396.69 16.8265 397.158C18.7509 397.969 20.716 398.679 22.7139 399.286C23.6767 399.524 24.6536 399.702 25.6387 399.818C28.5127 400.147 31.5388 400.805 33.7038 402.895C37.135 406.124 36.9957 411.481 38.4011 416.002Z" fill="#9F854E"/>
<path d="M52.7209 381.607C52.6677 381.505 52.5945 381.415 52.5057 381.341C39.528 364.98 20.2197 357.952 13.7752 356.888C13.5993 356.862 13.4202 356.906 13.2761 357.01C13.1319 357.114 13.0339 357.27 13.0028 357.445C12.9771 357.621 13.0208 357.8 13.1248 357.944C13.2288 358.088 13.3849 358.186 13.5599 358.218C19.6626 359.218 37.6161 365.702 50.2773 380.645C45.3933 379.305 40.285 378.99 35.2735 379.72C30.2619 380.451 25.4556 382.21 21.1566 384.887C21.0855 384.938 21.0252 385.002 20.979 385.076C20.9328 385.149 20.9017 385.232 20.8876 385.318C20.8735 385.404 20.8765 385.492 20.8966 385.576C20.9167 385.661 20.9535 385.741 21.0047 385.812C21.0681 385.9 21.1519 385.971 21.249 386.02C21.346 386.068 21.4533 386.092 21.5618 386.09C21.6978 386.085 21.8295 386.041 21.9416 385.964C26.3611 383.237 31.3235 381.51 36.4808 380.904C41.6382 380.298 46.8656 380.827 51.7966 382.456C52.3158 382.62 53.1261 384.229 53.4426 384.672C54.0503 385.533 54.6327 386.407 55.1898 387.281C56.3036 389.055 57.3181 390.89 58.2285 392.777C59.1694 394.74 59.9938 396.757 60.6974 398.817C60.976 399.615 61.9636 404.529 62.5713 404.579C62.7502 404.571 62.9212 404.503 63.0567 404.386C63.1922 404.269 63.2844 404.109 63.3183 403.933C63.7235 402.211 62.3434 399.463 61.7736 397.855C61.0484 395.793 60.2029 393.777 59.2414 391.814C58.2979 389.983 57.2582 388.204 56.1268 386.483C55.595 385.634 55.0379 384.811 54.4555 383.95C53.8127 383.219 53.2325 382.435 52.7209 381.607Z" fill="white"/>
<path d="M59.7732 422.46C59.7732 426.88 63.0651 432.363 67.142 434.719L227.749 527.48C230.036 528.641 232.565 529.247 235.13 529.247C237.696 529.247 240.225 528.641 242.512 527.48L525.324 364.119C529.401 361.776 532.706 356.28 532.706 351.873C532.706 347.466 529.401 341.97 525.324 339.614L364.717 246.891C362.432 245.73 359.905 245.125 357.342 245.125C354.779 245.125 352.252 245.73 349.967 246.891L67.142 410.202C63.0651 412.557 59.7606 418.041 59.7732 422.46Z" fill="#37474F"/>
<path d="M67.142 418.724L227.749 511.499C230.038 512.654 232.566 513.256 235.13 513.256C237.694 513.256 240.223 512.654 242.512 511.499L525.324 348.137C529.401 345.782 529.401 341.97 525.324 339.614L364.717 246.891C362.432 245.73 359.905 245.125 357.342 245.125C354.779 245.125 352.252 245.73 349.967 246.891L67.142 410.202C63.0651 412.557 63.0651 416.369 67.142 418.724Z" fill="#455A64"/>
<path d="M235.13 513.31V529.278C232.564 529.332 230.027 528.726 227.762 527.518L67.142 434.719C63.0651 432.363 59.7605 426.88 59.7605 422.46C59.7605 418.319 62.6726 413.241 66.395 410.683C63.0904 413.051 63.3436 416.534 67.142 418.725L227.762 511.499C230.022 512.724 232.559 513.347 235.13 513.31Z" fill="#263238"/>
<path d="M52.8477 410.468C49.0493 408.264 49.2392 404.541 49.2392 399.83V177.95C49.378 175.388 50.1186 172.894 51.4011 170.672C52.6836 168.45 54.4718 166.561 56.6207 165.16L339.433 1.79817C343.51 -0.557276 349.917 -0.671248 353.74 1.53223C357.564 3.73571 357.349 7.4715 357.349 12.1697V234.113C357.208 236.672 356.468 239.162 355.188 241.381C353.908 243.601 352.124 245.489 349.98 246.891L67.1421 410.202C63.0652 412.557 56.6713 412.684 52.8477 410.468Z" fill="#37474F"/>
<path d="M357.336 12.2203C357.336 7.52204 354.031 5.62249 349.967 7.9526L67.142 171.289C64.9601 172.648 63.1639 174.545 61.9256 176.797L51.4042 170.681C52.6421 168.424 54.4382 166.523 56.6206 165.16L339.433 1.79805C343.535 -0.506735 349.866 -0.620708 353.664 1.58277C357.463 3.78625 357.336 7.52204 357.336 12.2203Z" fill="#455A64"/>
<path d="M66.2557 410.658C62.1915 412.557 56.3926 412.532 52.8349 410.468C49.0365 408.264 49.2264 404.541 49.2264 399.83V177.937C49.3064 175.372 50.0525 172.871 51.3915 170.681L61.9129 176.772C60.5868 178.976 59.8459 181.483 59.7605 184.054V405.947C59.7605 410.316 62.6093 412.266 66.2557 410.658Z" fill="#263238"/>
<path d="M71.1176 179.786L343.788 22.3767C346.232 20.9584 348.207 22.1108 348.207 24.9094V224.996C348.116 226.519 347.668 228.001 346.901 229.32C346.134 230.64 345.068 231.761 343.788 232.594L71.1176 390.041C68.6613 391.447 66.6862 390.307 66.6862 387.509V187.46C66.7683 185.923 67.2125 184.426 67.9825 183.092C68.7526 181.759 69.8268 180.626 71.1176 179.786Z" fill="#9F854E"/>
<path opacity="0.3" d="M71.1176 179.786L343.788 22.3767C346.232 20.9584 348.207 22.1108 348.207 24.9094V224.996C348.116 226.519 347.668 228.001 346.901 229.32C346.134 230.64 345.068 231.761 343.788 232.594L71.1176 390.041C68.6613 391.447 66.6862 390.307 66.6862 387.509V187.46C66.7683 185.923 67.2125 184.426 67.9825 183.092C68.7526 181.759 69.8268 180.626 71.1176 179.786Z" fill="black"/>
<path d="M87.5518 410.645L350.068 259.048C351.212 258.467 352.477 258.165 353.759 258.165C355.042 258.165 356.306 258.467 357.45 259.048L361.818 261.454C363.856 262.632 363.856 264.531 361.818 265.709L99.2634 417.281C98.122 417.861 96.8595 418.164 95.579 418.164C94.2985 418.164 93.036 417.861 91.8946 417.281L87.5645 414.9C85.526 413.722 85.526 411.823 87.5518 410.645Z" fill="#263238"/>
<path d="M108.152 422.891L370.655 271.294C371.676 270.716 372.816 270.382 373.987 270.318C375.157 270.255 376.327 270.463 377.404 270.927L445.774 310.387C447.458 311.362 447.167 313.109 445.128 314.274L182.89 465.669C181.871 466.249 180.732 466.585 179.561 466.651C178.39 466.717 177.22 466.511 176.142 466.049L107.518 426.791C105.835 425.803 106.113 424.069 108.152 422.891Z" fill="#263238"/>
<path d="M335.622 334.967L343.839 330.218C344.194 330.015 344.219 329.712 343.915 329.534L336.04 324.988C335.855 324.897 335.651 324.85 335.445 324.85C335.239 324.85 335.035 324.897 334.85 324.988L326.633 329.737C326.278 329.939 326.253 330.256 326.557 330.433L334.419 334.967C334.606 335.061 334.812 335.109 335.021 335.109C335.229 335.109 335.435 335.061 335.622 334.967ZM323.619 318.504L315.402 323.354C315.048 323.557 315.022 323.861 315.326 324.038L323.189 328.584C323.375 328.678 323.581 328.727 323.79 328.727C323.999 328.727 324.205 328.678 324.392 328.584L332.609 323.836C332.951 323.633 332.989 323.329 332.672 323.152L324.809 318.605C324.631 318.498 324.43 318.436 324.222 318.425C324.015 318.414 323.808 318.454 323.619 318.542V318.504ZM297.031 333.84L283.104 341.869C282.749 342.071 282.724 342.388 283.028 342.565L290.903 347.099C291.086 347.196 291.29 347.247 291.498 347.247C291.705 347.247 291.91 347.196 292.093 347.099L306.02 339.07C306.375 338.867 306.4 338.563 306.096 338.373L298.234 333.84C298.051 333.752 297.849 333.71 297.647 333.717C297.444 333.723 297.246 333.779 297.069 333.878L297.031 333.84ZM311.566 325.444L303.349 330.193C302.994 330.395 302.969 330.699 303.273 330.877L311.135 335.423C311.322 335.516 311.528 335.565 311.737 335.565C311.946 335.565 312.151 335.516 312.338 335.423L320.555 330.674C320.91 330.471 320.935 330.167 320.631 329.977L312.756 325.444C312.575 325.359 312.376 325.317 312.175 325.324C311.975 325.331 311.779 325.385 311.604 325.482L311.566 325.444ZM279.318 344.059L271.101 348.808C270.759 349.011 270.721 349.315 271.101 349.505L278.963 354.038C279.146 354.136 279.351 354.187 279.558 354.187C279.766 354.187 279.97 354.136 280.153 354.038L288.371 349.29C288.725 349.087 288.75 348.783 288.447 348.606L280.584 344.059C280.391 343.968 280.179 343.923 279.965 343.93C279.752 343.936 279.543 343.994 279.356 344.097L279.318 344.059ZM267.315 350.999L259.085 355.748C258.743 355.951 258.705 356.255 259.022 356.432L266.885 360.978C267.068 361.076 267.272 361.127 267.48 361.127C267.687 361.127 267.892 361.076 268.075 360.978L276.292 356.229C276.646 356.027 276.672 355.723 276.368 355.545L268.505 350.999C268.324 350.914 268.125 350.873 267.925 350.879C267.724 350.886 267.528 350.94 267.353 351.037L267.315 350.999ZM298.132 369.526L306.349 364.777C306.704 364.587 306.729 364.271 306.425 364.093L298.563 359.547C298.376 359.454 298.17 359.405 297.961 359.405C297.753 359.405 297.547 359.454 297.36 359.547L289.143 364.283C288.801 364.486 288.763 364.803 289.143 364.98L297.005 369.526C297.182 369.625 297.381 369.681 297.583 369.687C297.786 369.694 297.987 369.652 298.17 369.564L298.132 369.526ZM286.155 376.542L294.372 371.793C294.726 371.59 294.752 371.286 294.448 371.109L286.56 366.525C286.375 366.434 286.171 366.387 285.965 366.387C285.759 366.387 285.555 366.434 285.37 366.525L277.14 371.274C276.798 371.476 276.76 371.793 277.077 371.97L284.939 376.504C285.123 376.612 285.33 376.672 285.542 376.678C285.755 376.685 285.965 376.638 286.155 376.542ZM274.139 383.482L282.357 378.733C282.711 378.53 282.749 378.226 282.432 378.049L274.57 373.503C274.387 373.405 274.182 373.354 273.975 373.354C273.767 373.354 273.563 373.405 273.38 373.503L265.163 378.251C264.808 378.454 264.77 378.758 265.087 378.948L272.949 383.482C273.136 383.573 273.342 383.618 273.549 383.611C273.757 383.605 273.959 383.547 274.139 383.444V383.482ZM262.137 390.421L270.354 385.672C270.696 385.47 270.734 385.166 270.417 384.976L262.504 380.404C262.321 380.307 262.116 380.256 261.909 380.256C261.701 380.256 261.497 380.307 261.314 380.404L253.097 385.153C252.742 385.356 252.717 385.66 253.021 385.837L260.883 390.383C261.076 390.485 261.291 390.539 261.51 390.539C261.728 390.539 261.943 390.485 262.137 390.383V390.421ZM323.607 341.945L331.824 337.196C332.178 336.993 332.204 336.689 331.9 336.512L324.037 331.966C323.842 331.861 323.625 331.807 323.404 331.807C323.183 331.807 322.966 331.861 322.771 331.966L314.554 336.715C314.212 336.917 314.174 337.221 314.491 337.411L322.353 341.945C322.547 342.048 322.765 342.098 322.985 342.092C323.205 342.085 323.419 342.021 323.607 341.907V341.945ZM310.186 362.612L328.519 352.012C328.861 351.81 328.899 351.506 328.582 351.328L309.489 340.298C309.306 340.201 309.102 340.15 308.894 340.15C308.687 340.15 308.482 340.201 308.299 340.298L298.816 345.782C298.462 345.984 298.436 346.288 298.74 346.466L308.869 352.304C309.173 352.481 309.148 352.797 308.793 353L301.196 357.382C300.842 357.584 300.816 357.888 301.12 358.066L308.983 362.612C309.171 362.702 309.376 362.748 309.584 362.748C309.792 362.748 309.998 362.702 310.186 362.612ZM255.338 357.952L247.12 362.7C246.766 362.903 246.741 363.207 247.045 363.384L254.907 367.931C255.092 368.021 255.296 368.068 255.502 368.068C255.708 368.068 255.912 368.021 256.097 367.931L264.327 363.182C264.669 362.979 264.707 362.662 264.39 362.485L256.528 357.952C256.342 357.858 256.137 357.811 255.93 357.816C255.722 357.82 255.519 357.875 255.338 357.977V357.952ZM243.322 364.891L235.105 369.64C234.751 369.83 234.725 370.147 235.029 370.324L242.892 374.87C243.086 374.974 243.304 375.029 243.525 375.029C243.746 375.029 243.963 374.974 244.158 374.87L252.375 370.134C252.717 369.931 252.755 369.615 252.438 369.438L244.576 364.904C244.384 364.797 244.167 364.742 243.947 364.744C243.727 364.746 243.512 364.806 243.322 364.917V364.891ZM176.851 438.948C177.034 439.046 177.239 439.097 177.446 439.097C177.654 439.097 177.858 439.046 178.041 438.948L186.258 434.2C186.613 433.997 186.638 433.693 186.334 433.516L178.472 428.969C178.285 428.876 178.079 428.827 177.87 428.827C177.661 428.827 177.456 428.876 177.269 428.969L169.052 433.706C168.71 433.908 168.672 434.225 168.988 434.402L176.851 438.948ZM147.287 420.409L139.057 425.158C138.716 425.36 138.678 425.664 139.057 425.842L146.92 430.388C147.103 430.485 147.308 430.536 147.515 430.536C147.723 430.536 147.927 430.485 148.11 430.388L156.327 425.639C156.682 425.436 156.707 425.132 156.403 424.942L148.541 420.409C148.35 420.3 148.134 420.243 147.914 420.243C147.694 420.243 147.478 420.3 147.287 420.409ZM162.481 434.339C162.664 434.436 162.868 434.487 163.076 434.487C163.283 434.487 163.488 434.436 163.671 434.339L171.888 429.59C172.242 429.387 172.268 429.083 171.964 428.906L164.101 424.36C163.913 424.27 163.708 424.223 163.5 424.223C163.292 424.223 163.086 424.27 162.898 424.36L154.681 429.109C154.339 429.311 154.301 429.628 154.681 429.805L162.481 434.339ZM195.628 441.798L203.845 437.049C204.186 436.846 204.224 436.542 203.845 436.365L195.982 431.819C195.799 431.721 195.595 431.67 195.387 431.67C195.179 431.67 194.975 431.721 194.792 431.819L186.575 436.555C186.22 436.758 186.195 437.074 186.499 437.251L194.361 441.785C194.554 441.883 194.767 441.933 194.983 441.931C195.199 441.929 195.412 441.874 195.602 441.772L195.628 441.798ZM182.384 448.725C182.571 448.818 182.777 448.867 182.985 448.867C183.194 448.867 183.4 448.818 183.587 448.725L191.804 443.976C192.146 443.773 192.184 443.469 191.88 443.292L184.005 438.733C183.821 438.636 183.617 438.585 183.41 438.585C183.202 438.585 182.998 438.636 182.814 438.733L174.597 443.482C174.243 443.685 174.217 443.989 174.521 444.179L182.384 448.725ZM159.227 413.444L151.01 418.193C150.668 418.395 150.63 418.699 150.946 418.889L158.809 423.397C158.992 423.495 159.196 423.546 159.404 423.546C159.611 423.546 159.816 423.495 159.999 423.397L168.216 418.649C168.571 418.446 168.596 418.142 168.292 417.965L160.429 413.418C160.239 413.333 160.031 413.293 159.822 413.301C159.613 413.31 159.409 413.368 159.227 413.469V413.444ZM219.291 378.758L211.074 383.507C210.732 383.709 210.694 384.013 211.074 384.203L218.937 388.737C219.12 388.835 219.324 388.886 219.532 388.886C219.739 388.886 219.944 388.835 220.127 388.737L228.344 383.988C228.699 383.785 228.724 383.481 228.42 383.304L220.557 378.758C220.361 378.658 220.142 378.607 219.921 378.612C219.7 378.616 219.484 378.675 219.291 378.783V378.758ZM171.179 406.517L162.962 411.253C162.607 411.456 162.582 411.772 162.886 411.949L170.761 416.483C170.944 416.581 171.149 416.632 171.356 416.632C171.564 416.632 171.768 416.581 171.951 416.483L180.168 411.734C180.523 411.532 180.548 411.228 180.244 411.05L172.382 406.504C172.201 406.426 172.005 406.389 171.808 406.396C171.611 406.403 171.418 406.452 171.242 406.542L171.179 406.517ZM231.243 371.831L223.09 376.542C222.735 376.744 222.71 377.061 223.014 377.238L230.876 381.772C231.061 381.872 231.268 381.924 231.478 381.924C231.688 381.924 231.894 381.872 232.079 381.772L240.296 377.023C240.651 376.82 240.676 376.516 240.372 376.339L232.51 371.793C232.318 371.709 232.109 371.671 231.901 371.682C231.692 371.693 231.488 371.753 231.307 371.856L231.243 371.831ZM207.187 385.698L198.957 390.447C198.616 390.649 198.578 390.953 198.957 391.13L206.82 395.677C207.003 395.774 207.208 395.825 207.415 395.825C207.623 395.825 207.827 395.774 208.01 395.677L216.227 390.928C216.582 390.725 216.62 390.421 216.303 390.231L208.441 385.698C208.26 385.61 208.062 385.567 207.861 385.572C207.661 385.576 207.465 385.628 207.288 385.723L207.187 385.698ZM195.172 392.637L186.955 397.386C186.6 397.589 186.575 397.893 186.879 398.07L194.741 402.616C194.924 402.714 195.129 402.765 195.336 402.765C195.544 402.765 195.748 402.714 195.931 402.616L204.161 397.88C204.503 397.677 204.541 397.361 204.224 397.184L196.362 392.65C196.191 392.571 196.004 392.531 195.816 392.533C195.628 392.535 195.442 392.58 195.273 392.663L195.172 392.637ZM183.156 399.577L175.04 404.402C174.686 404.605 174.661 404.921 174.965 405.098L182.827 409.645C183.022 409.749 183.239 409.803 183.46 409.803C183.681 409.803 183.898 409.749 184.093 409.645L192.31 404.896C192.652 404.706 192.69 404.389 192.374 404.212L184.511 399.666C184.326 399.547 184.113 399.479 183.893 399.468C183.673 399.457 183.454 399.503 183.258 399.602L183.156 399.577ZM238.004 404.225L246.222 399.476C246.576 399.286 246.601 398.969 246.298 398.792L238.536 394.271C238.35 394.177 238.144 394.129 237.935 394.129C237.726 394.129 237.52 394.177 237.333 394.271L229.116 399.007C228.774 399.21 228.736 399.526 229.116 399.704L236.979 404.237C237.153 404.326 237.345 404.374 237.541 404.376C237.736 404.378 237.93 404.335 238.106 404.25L238.004 404.225ZM350.068 303.181L341.851 307.93C341.509 308.133 341.471 308.437 341.788 308.626L349.651 313.16C349.834 313.258 350.038 313.309 350.246 313.309C350.453 313.309 350.658 313.258 350.841 313.16L359.058 308.411C359.412 308.209 359.438 307.905 359.134 307.727L351.271 303.181C351.096 303.107 350.908 303.071 350.718 303.076C350.528 303.08 350.341 303.124 350.17 303.206L350.068 303.181ZM335.533 311.577L327.316 316.326C326.962 316.529 326.936 316.845 327.24 317.023L335.103 321.556C335.286 321.654 335.49 321.705 335.698 321.705C335.906 321.705 336.11 321.654 336.293 321.556L344.523 316.807C344.865 316.605 344.903 316.301 344.586 316.123L336.724 311.577C336.55 311.506 336.364 311.471 336.176 311.476C335.989 311.48 335.805 311.523 335.635 311.602L335.533 311.577ZM362.122 296.254L353.905 300.99C353.55 301.193 353.525 301.51 353.829 301.687L361.691 306.22C361.878 306.314 362.084 306.363 362.293 306.363C362.502 306.363 362.708 306.314 362.894 306.22L371.111 301.472C371.453 301.269 371.491 300.965 371.175 300.788L363.312 296.241C363.134 296.16 362.94 296.121 362.744 296.128C362.549 296.135 362.357 296.186 362.185 296.279L362.122 296.254ZM295.727 357.939L303.944 353.203C304.298 353 304.324 352.683 304.02 352.506L296.157 347.973C295.972 347.873 295.766 347.821 295.556 347.821C295.346 347.821 295.139 347.873 294.954 347.973L286.737 352.721C286.383 352.924 286.357 353.228 286.661 353.405L294.524 357.952C294.718 358.058 294.934 358.114 295.155 358.117C295.376 358.119 295.594 358.066 295.79 357.964L295.727 357.939ZM375.327 289.276C375.144 289.179 374.94 289.128 374.732 289.128C374.525 289.128 374.32 289.179 374.137 289.276L365.92 294.025C365.566 294.215 365.54 294.532 365.844 294.709L373.707 299.255C373.89 299.353 374.094 299.404 374.302 299.404C374.509 299.404 374.714 299.353 374.897 299.255L383.127 294.519C383.469 294.317 383.507 294 383.19 293.823L375.327 289.276ZM250.121 397.31L258.338 392.574C258.68 392.371 258.718 392.055 258.338 391.878L250.476 387.344C250.293 387.246 250.088 387.195 249.881 387.195C249.673 387.195 249.469 387.246 249.286 387.344L241.068 392.093C240.714 392.295 240.689 392.599 240.992 392.777L248.855 397.323C249.051 397.425 249.269 397.478 249.49 397.475C249.711 397.473 249.927 397.416 250.121 397.31ZM397.434 312.248L405.651 307.499C406.005 307.297 406.031 306.993 405.727 306.816L397.864 302.269C397.67 302.165 397.452 302.111 397.231 302.111C397.01 302.111 396.793 302.165 396.598 302.269L388.381 307.018C388.039 307.221 388.001 307.525 388.318 307.715L396.18 312.248C396.371 312.357 396.587 312.414 396.807 312.414C397.027 312.414 397.243 312.357 397.434 312.248ZM374.188 312.692L382.405 307.955C382.76 307.753 382.785 307.436 382.481 307.259L374.618 302.725C374.434 302.625 374.227 302.573 374.017 302.573C373.807 302.573 373.6 302.625 373.416 302.725L365.199 307.474C364.857 307.677 364.819 307.981 365.135 308.158L372.998 312.704C373.182 312.8 373.387 312.849 373.594 312.846C373.802 312.844 374.006 312.791 374.188 312.692ZM386.583 295.786C386.4 295.688 386.196 295.637 385.988 295.637C385.781 295.637 385.576 295.688 385.393 295.786L377.214 300.56C376.859 300.762 376.834 301.066 377.138 301.244L385.001 305.79C385.188 305.88 385.394 305.926 385.602 305.926C385.81 305.926 386.016 305.88 386.203 305.79L394.421 301.041C394.762 300.838 394.8 300.522 394.484 300.344L386.583 295.786ZM389.115 294.317L408.208 305.347C408.395 305.44 408.601 305.489 408.81 305.489C409.019 305.489 409.225 305.44 409.411 305.347L417.628 300.598C417.983 300.395 418.008 300.091 417.704 299.914L398.599 288.884C398.415 288.786 398.211 288.735 398.004 288.735C397.796 288.735 397.592 288.786 397.409 288.884L389.191 293.633C388.875 293.835 388.85 294.139 389.115 294.317ZM361.375 309.703L353.145 314.439C352.803 314.642 352.765 314.958 353.082 315.136L360.944 319.669C361.128 319.767 361.332 319.818 361.539 319.818C361.747 319.818 361.951 319.767 362.135 319.669L370.352 314.92C370.706 314.718 370.731 314.414 370.428 314.236L362.565 309.69C362.386 309.601 362.188 309.556 361.987 309.558C361.787 309.56 361.59 309.61 361.413 309.703H361.375ZM270.961 361.903L262.732 366.651C262.39 366.854 262.352 367.171 262.668 367.348L270.531 371.882C270.714 371.979 270.919 372.03 271.126 372.03C271.334 372.03 271.538 371.979 271.721 371.882L279.938 367.133C280.293 366.93 280.318 366.626 280.014 366.449L272.152 361.903C271.973 361.811 271.776 361.764 271.576 361.764C271.375 361.764 271.178 361.811 270.999 361.903H270.961ZM384.19 319.226C384.373 319.324 384.578 319.375 384.785 319.375C384.993 319.375 385.197 319.324 385.38 319.226L393.598 314.477C393.952 314.274 393.977 313.971 393.673 313.781L385.811 309.247C385.628 309.149 385.423 309.098 385.216 309.098C385.008 309.098 384.804 309.149 384.621 309.247L376.391 313.996C376.049 314.198 376.011 314.502 376.328 314.68L384.19 319.226ZM283.002 355.014L274.785 359.75C274.443 359.952 274.405 360.269 274.785 360.446L282.648 364.98C282.831 365.077 283.035 365.128 283.243 365.128C283.45 365.128 283.655 365.077 283.838 364.98L292.055 360.231C292.409 360.028 292.435 359.724 292.131 359.547L284.268 355.001C284.073 354.899 283.855 354.846 283.634 354.848C283.413 354.851 283.196 354.907 283.002 355.014ZM188.854 432.085C189.04 432.178 189.246 432.227 189.455 432.227C189.664 432.227 189.87 432.178 190.057 432.085L198.274 427.348C198.616 427.146 198.654 426.829 198.274 426.652L190.411 422.118C190.228 422.021 190.024 421.97 189.816 421.97C189.609 421.97 189.404 422.021 189.221 422.118L181.004 426.867C180.649 427.07 180.624 427.374 180.928 427.551L188.854 432.085ZM174.927 417.445L166.671 422.131C166.317 422.321 166.292 422.638 166.595 422.815L174.471 427.361C174.654 427.459 174.858 427.51 175.066 427.51C175.273 427.51 175.478 427.459 175.661 427.361L183.878 422.625C184.232 422.422 184.258 422.106 183.954 421.928L176.091 417.382C175.903 417.292 175.696 417.248 175.487 417.252C175.278 417.257 175.073 417.31 174.889 417.407L174.927 417.445ZM202.11 425.107L210.327 420.358C210.669 420.156 210.707 419.839 210.39 419.662L202.528 415.128C202.345 415.03 202.14 414.979 201.933 414.979C201.725 414.979 201.521 415.03 201.338 415.128L193.121 419.877C192.766 420.08 192.741 420.383 193.045 420.561L200.907 425.107C201.092 425.189 201.292 425.228 201.494 425.221C201.696 425.214 201.893 425.163 202.072 425.069L202.11 425.107ZM214.113 418.167L222.33 413.418C222.684 413.216 222.722 412.912 222.406 412.735L214.505 408.201C214.322 408.103 214.118 408.052 213.91 408.052C213.703 408.052 213.498 408.103 213.315 408.201L205.098 412.95C204.744 413.153 204.706 413.456 205.022 413.634L212.885 418.18C213.072 418.27 213.279 418.312 213.486 418.303C213.694 418.295 213.896 418.235 214.075 418.129L214.113 418.167ZM226.128 411.228L234.345 406.479C234.7 406.276 234.725 405.972 234.421 405.795L226.559 401.249C226.364 401.144 226.147 401.09 225.926 401.09C225.705 401.09 225.487 401.144 225.293 401.249L217.076 405.998C216.734 406.2 216.696 406.517 217.076 406.694L224.938 411.228C225.119 411.313 225.318 411.354 225.519 411.347C225.719 411.341 225.915 411.287 226.09 411.19L226.128 411.228ZM186.879 410.506L178.662 415.255C178.307 415.457 178.282 415.761 178.586 415.938L186.448 420.485C186.643 420.589 186.86 420.644 187.081 420.644C187.302 420.644 187.52 420.589 187.714 420.485L195.931 415.749C196.273 415.546 196.311 415.229 195.995 415.052L188.132 410.518C187.949 410.406 187.739 410.343 187.525 410.334C187.31 410.325 187.096 410.371 186.904 410.468L186.879 410.506ZM198.894 403.566L190.677 408.315C190.323 408.518 190.297 408.822 190.601 408.999L198.464 413.545C198.647 413.643 198.851 413.694 199.059 413.694C199.266 413.694 199.471 413.643 199.654 413.545L207.884 408.796C208.225 408.594 208.263 408.29 207.947 408.1L200.084 403.566C199.907 403.467 199.709 403.412 199.506 403.405C199.304 403.398 199.102 403.441 198.919 403.528L198.894 403.566ZM246.943 375.82L238.726 380.569C238.372 380.771 238.346 381.075 238.65 381.253L246.513 385.799C246.709 385.899 246.926 385.951 247.146 385.951C247.366 385.951 247.583 385.899 247.779 385.799L255.996 381.05C256.338 380.847 256.376 380.531 255.996 380.354L248.133 375.82C247.956 375.721 247.758 375.666 247.556 375.659C247.353 375.652 247.152 375.695 246.969 375.782L246.943 375.82ZM234.928 382.76L226.711 387.509C226.356 387.699 226.331 388.015 226.635 388.192L234.497 392.739C234.684 392.832 234.89 392.881 235.099 392.881C235.308 392.881 235.513 392.832 235.7 392.739L243.917 388.002C244.272 387.8 244.297 387.483 243.993 387.306L236.118 382.772C235.942 382.671 235.744 382.614 235.542 382.605C235.339 382.596 235.137 382.636 234.953 382.722L234.928 382.76ZM258.984 368.83L250.767 373.579C250.412 373.781 250.387 374.085 250.691 374.262L258.554 378.809C258.737 378.906 258.941 378.957 259.149 378.957C259.356 378.957 259.561 378.906 259.744 378.809L267.973 374.06C268.315 373.857 268.353 373.553 268.037 373.376L260.174 368.83C259.99 368.734 259.785 368.685 259.577 368.687C259.37 368.69 259.166 368.743 258.984 368.842V368.83ZM210.935 396.576L202.705 401.325C202.363 401.527 202.325 401.831 202.642 402.021L210.504 406.555C210.688 406.652 210.892 406.703 211.099 406.703C211.307 406.703 211.511 406.652 211.695 406.555L219.912 401.806C220.266 401.603 220.291 401.299 219.988 401.122L212.125 396.576C211.941 396.48 211.736 396.431 211.528 396.434C211.321 396.436 211.117 396.489 210.935 396.588V396.576ZM222.938 389.649L214.721 394.385C214.379 394.588 214.341 394.904 214.721 395.081L222.583 399.615C222.766 399.713 222.971 399.764 223.178 399.764C223.386 399.764 223.59 399.713 223.773 399.615L231.99 394.866C232.345 394.664 232.37 394.36 232.066 394.182L224.204 389.636C224.007 389.536 223.788 389.486 223.568 389.49C223.347 389.494 223.13 389.553 222.938 389.661V389.649ZM207.605 434.795L215.835 430.059C216.177 429.856 216.215 429.539 215.898 429.362L208.061 424.866C207.878 424.769 207.673 424.718 207.466 424.718C207.258 424.718 207.054 424.769 206.871 424.866L198.654 429.615C198.299 429.805 198.261 430.122 198.578 430.299L206.44 434.845C206.624 434.931 206.826 434.971 207.029 434.962C207.231 434.953 207.429 434.896 207.605 434.795ZM144.299 431.806L136.437 427.273C136.253 427.175 136.049 427.124 135.842 427.124C135.634 427.124 135.43 427.175 135.246 427.273L127.029 432.097C126.675 432.3 126.65 432.604 126.953 432.781L134.816 437.327C134.999 437.425 135.203 437.476 135.411 437.476C135.619 437.476 135.823 437.425 136.006 437.327L144.236 432.591C144.54 432.338 144.578 432.021 144.261 431.844L144.299 431.806ZM159.948 435.783L152.086 431.236C151.903 431.139 151.698 431.088 151.491 431.088C151.283 431.088 151.079 431.139 150.896 431.236L138.234 438.543C137.88 438.746 137.855 439.05 138.158 439.227L146.021 443.773C146.208 443.867 146.414 443.916 146.622 443.916C146.831 443.916 147.037 443.867 147.224 443.773L159.885 436.466C160.202 436.264 160.227 435.96 159.948 435.783ZM132.55 422.878L124.662 418.332C124.479 418.234 124.274 418.183 124.067 418.183C123.859 418.183 123.655 418.234 123.472 418.332L113.343 424.17C112.988 424.373 112.963 424.676 113.267 424.854L121.129 429.4C121.324 429.504 121.541 429.559 121.762 429.559C121.983 429.559 122.201 429.504 122.395 429.4L132.524 423.549C132.803 423.397 132.841 423.055 132.524 422.878H132.55ZM140.311 418.395C140.494 418.493 140.698 418.544 140.906 418.544C141.114 418.544 141.318 418.493 141.501 418.395L149.718 413.646C150.073 413.444 150.098 413.14 149.794 412.963L141.932 408.416C141.737 408.312 141.519 408.258 141.298 408.258C141.078 408.258 140.86 408.312 140.665 408.416L132.448 413.153C132.106 413.355 132.068 413.672 132.448 413.849L140.311 418.395ZM174.344 440.443L166.482 435.896C166.298 435.799 166.094 435.748 165.886 435.748C165.679 435.748 165.475 435.799 165.291 435.896L149.478 445.027C149.136 445.23 149.098 445.534 149.414 445.723L157.277 450.257C157.46 450.355 157.664 450.406 157.872 450.406C158.079 450.406 158.284 450.355 158.467 450.257L174.243 441.127C174.597 440.924 174.623 440.62 174.319 440.443H174.344ZM179.89 450.206L172.027 445.673C171.832 445.569 171.615 445.514 171.394 445.514C171.173 445.514 170.956 445.569 170.761 445.673L160.632 451.511C160.29 451.713 160.252 452.03 160.569 452.207L168.431 456.741C168.615 456.838 168.819 456.889 169.026 456.889C169.234 456.889 169.438 456.838 169.621 456.741L179.75 450.903C180.206 450.7 180.206 450.396 179.864 450.206H179.89ZM229.585 366.829C229.768 366.926 229.972 366.977 230.18 366.977C230.387 366.977 230.592 366.926 230.775 366.829L239.005 362.08C239.347 361.89 239.385 361.573 239.068 361.396L231.205 356.85C231.022 356.752 230.818 356.701 230.61 356.701C230.403 356.701 230.198 356.752 230.015 356.85L221.798 361.586C221.444 361.789 221.418 362.105 221.722 362.282L229.585 366.829ZM205.529 380.695C205.712 380.793 205.916 380.844 206.124 380.844C206.331 380.844 206.536 380.793 206.719 380.695L214.936 375.947C215.29 375.744 215.316 375.44 215.012 375.263L207.149 370.717C206.963 370.623 206.757 370.574 206.548 370.574C206.339 370.574 206.133 370.623 205.946 370.717L197.729 375.465C197.375 375.668 197.349 375.972 197.653 376.162L205.529 380.695ZM152.352 411.468C152.546 411.572 152.764 411.627 152.985 411.627C153.206 411.627 153.423 411.572 153.618 411.468L161.835 406.732C162.189 406.529 162.215 406.213 161.911 406.036L154.048 401.502C153.856 401.391 153.637 401.332 153.415 401.332C153.193 401.332 152.975 401.391 152.782 401.502L144.565 406.251C144.211 406.441 144.185 406.757 144.489 406.935L152.352 411.468ZM217.645 373.756C217.832 373.849 218.038 373.898 218.247 373.898C218.456 373.898 218.661 373.849 218.848 373.756L227.053 368.944C227.394 368.741 227.432 368.437 227.053 368.26L219.19 363.713C219.005 363.623 218.801 363.576 218.595 363.576C218.389 363.576 218.185 363.623 218 363.713L209.783 368.462C209.428 368.665 209.403 368.982 209.707 369.159L217.645 373.756ZM193.589 387.686C193.772 387.783 193.977 387.834 194.184 387.834C194.392 387.834 194.596 387.783 194.779 387.686L202.996 382.874C203.351 382.671 203.376 382.367 203.072 382.177L195.21 377.644C195.015 377.539 194.798 377.485 194.577 377.485C194.356 377.485 194.138 377.539 193.944 377.644L185.727 382.392C185.385 382.595 185.347 382.899 185.727 383.076L193.589 387.686ZM185.79 450.751C185.603 450.657 185.397 450.609 185.188 450.609C184.98 450.609 184.774 450.657 184.587 450.751L171.926 458.058C171.571 458.261 171.546 458.564 171.85 458.742L179.712 463.288C179.896 463.386 180.1 463.437 180.308 463.437C180.515 463.437 180.719 463.386 180.903 463.288L193.564 455.994C193.918 455.791 193.944 455.475 193.64 455.297L185.79 450.751ZM176.345 397.64C176.528 397.737 176.732 397.788 176.94 397.788C177.147 397.788 177.352 397.737 177.535 397.64L185.764 392.891C186.106 392.688 186.144 392.384 185.764 392.207L177.902 387.661C177.719 387.563 177.514 387.512 177.307 387.512C177.099 387.512 176.895 387.563 176.712 387.661L168.495 392.409C168.14 392.612 168.115 392.916 168.419 393.093L176.345 397.64ZM164.329 404.579C164.516 404.673 164.722 404.722 164.931 404.722C165.139 404.722 165.345 404.673 165.532 404.579L173.749 399.83C174.091 399.628 174.129 399.311 173.812 399.134L165.95 394.6C165.767 394.503 165.562 394.452 165.355 394.452C165.147 394.452 164.943 394.503 164.76 394.6L156.517 399.336C156.163 399.539 156.137 399.843 156.441 400.02L164.329 404.579ZM408.335 322.265C408.152 322.168 407.948 322.117 407.74 322.117C407.533 322.117 407.328 322.168 407.145 322.265L386.887 333.941C386.533 334.144 386.507 334.448 386.811 334.638L394.686 339.171C394.87 339.269 395.074 339.32 395.281 339.32C395.489 339.32 395.693 339.269 395.877 339.171L416.134 327.483C416.476 327.28 416.514 326.976 416.198 326.799L408.335 322.265ZM381.747 337.601C381.563 337.503 381.359 337.452 381.152 337.452C380.944 337.452 380.74 337.503 380.557 337.601L372.352 342.35C371.998 342.552 371.96 342.869 372.276 343.046L380.139 347.58C380.322 347.678 380.526 347.729 380.734 347.729C380.941 347.729 381.146 347.678 381.329 347.58L389.546 342.831C389.9 342.628 389.938 342.325 389.622 342.147L381.747 337.601ZM219.62 427.906L227.838 423.157C228.192 422.954 228.217 422.638 227.913 422.46L220.051 417.927C219.868 417.829 219.663 417.778 219.456 417.778C219.248 417.778 219.044 417.829 218.861 417.927L210.631 422.676C210.289 422.878 210.251 423.182 210.568 423.359L218.43 427.906C218.616 427.996 218.819 428.043 219.025 428.043C219.232 428.043 219.435 427.996 219.62 427.906ZM357.728 351.392C357.545 351.294 357.341 351.243 357.133 351.243C356.926 351.243 356.721 351.294 356.538 351.392L348.321 356.141C347.967 356.343 347.941 356.647 348.245 356.824L356.108 361.371C356.294 361.464 356.5 361.513 356.709 361.513C356.918 361.513 357.124 361.464 357.311 361.371L365.528 356.622C365.87 356.419 365.908 356.103 365.591 355.925L357.728 351.392ZM420.325 315.25C420.142 315.152 419.938 315.101 419.73 315.101C419.523 315.101 419.318 315.152 419.135 315.25L410.918 319.998C410.563 320.188 410.538 320.505 410.842 320.682L418.705 325.229C418.888 325.326 419.092 325.377 419.3 325.377C419.507 325.377 419.712 325.326 419.895 325.229L428.125 320.492C428.466 320.29 428.504 319.973 428.188 319.796L420.325 315.25ZM440.203 312.844L421.11 301.826C420.924 301.733 420.718 301.684 420.509 301.684C420.3 301.684 420.094 301.733 419.907 301.826L411.69 306.575C411.348 306.765 411.31 307.082 411.627 307.259L430.72 318.289C430.905 318.38 431.109 318.427 431.315 318.427C431.521 318.427 431.725 318.38 431.91 318.289L440.127 313.54C440.482 313.337 440.507 313.021 440.203 312.844ZM312.845 377.314C312.661 377.217 312.457 377.166 312.25 377.166C312.042 377.166 311.838 377.217 311.654 377.314L301.526 383.152C301.171 383.355 301.146 383.671 301.45 383.849L309.312 388.382C309.495 388.48 309.7 388.531 309.907 388.531C310.115 388.531 310.319 388.48 310.502 388.382L320.631 382.544C320.986 382.342 321.011 382.025 320.707 381.848L312.845 377.314ZM343.231 359.788C343.048 359.69 342.844 359.639 342.636 359.639C342.429 359.639 342.224 359.69 342.041 359.788L329.38 367.095C329.026 367.297 329 367.601 329.304 367.779L337.205 372.363C337.392 372.453 337.598 372.499 337.806 372.499C338.014 372.499 338.22 372.453 338.408 372.363L351.069 365.056C351.423 364.853 351.449 364.549 351.145 364.359L343.231 359.788ZM285.066 393.372C284.879 393.278 284.673 393.23 284.465 393.23C284.256 393.23 284.05 393.278 283.863 393.372L216.215 432.427C215.873 432.629 215.835 432.946 216.215 433.123L224.077 437.657C224.26 437.754 224.465 437.805 224.672 437.805C224.88 437.805 225.084 437.754 225.267 437.657L292.916 398.589C293.27 398.387 293.296 398.083 292.992 397.905L285.066 393.372ZM213.619 434.63C213.434 434.539 213.23 434.492 213.024 434.492C212.818 434.492 212.614 434.539 212.429 434.63L202.3 440.481C201.945 440.683 201.907 440.987 202.224 441.165L210.087 445.711C210.272 445.801 210.475 445.849 210.682 445.849C210.888 445.849 211.091 445.801 211.277 445.711L221.406 439.86C221.76 439.658 221.786 439.354 221.482 439.176L213.619 434.63ZM298.93 385.406C298.747 385.309 298.542 385.258 298.335 385.258C298.127 385.258 297.923 385.309 297.74 385.406L287.611 391.257C287.256 391.46 287.231 391.764 287.535 391.941L295.398 396.487C295.584 396.581 295.79 396.629 295.999 396.629C296.208 396.629 296.414 396.581 296.6 396.487L306.729 390.649C307.071 390.447 307.109 390.143 306.793 389.965L298.93 385.406ZM199.666 442.722C199.483 442.625 199.279 442.574 199.071 442.574C198.864 442.574 198.659 442.625 198.476 442.722L188.347 448.56C187.993 448.763 187.968 449.067 188.271 449.244L196.134 453.79C196.321 453.884 196.527 453.933 196.735 453.933C196.944 453.933 197.15 453.884 197.337 453.79L207.466 447.952C207.808 447.75 207.846 447.433 207.529 447.256L199.666 442.722ZM326.747 369.349C326.563 369.251 326.359 369.2 326.151 369.2C325.944 369.2 325.74 369.251 325.556 369.349L315.427 375.187C315.086 375.389 315.048 375.693 315.364 375.871L323.277 380.341C323.461 380.438 323.665 380.49 323.872 380.49C324.08 380.49 324.284 380.438 324.468 380.341L334.596 374.503C334.951 374.3 334.976 373.984 334.672 373.806L326.747 369.349ZM369.795 344.515C369.611 344.418 369.407 344.367 369.199 344.367C368.992 344.367 368.788 344.418 368.604 344.515L360.387 349.264C360.033 349.467 360.007 349.771 360.311 349.948L368.174 354.494C368.357 354.592 368.561 354.643 368.769 354.643C368.977 354.643 369.181 354.592 369.364 354.494L377.594 349.745C377.936 349.543 377.974 349.239 377.657 349.062L369.795 344.515ZM396.712 325.672L404.942 320.923C405.284 320.72 405.322 320.416 405.005 320.239L397.079 315.756C396.896 315.659 396.692 315.608 396.484 315.608C396.277 315.608 396.072 315.659 395.889 315.756L387.672 320.505C387.318 320.708 387.292 321.012 387.596 321.202L395.459 325.735C395.655 325.834 395.874 325.881 396.094 325.87C396.314 325.859 396.527 325.79 396.712 325.672ZM347.701 328.027L355.918 323.278C356.26 323.088 356.298 322.772 355.918 322.595L348.055 318.048C347.872 317.951 347.668 317.9 347.46 317.9C347.253 317.9 347.048 317.951 346.865 318.048L338.648 322.784C338.294 322.987 338.268 323.304 338.572 323.481L346.435 328.015C346.618 328.116 346.825 328.171 347.034 328.173C347.244 328.175 347.452 328.125 347.637 328.027H347.701ZM315.782 372.35L339.838 358.42C340.193 358.217 340.218 357.901 339.914 357.724L332.052 353.19C331.865 353.096 331.659 353.048 331.45 353.048C331.241 353.048 331.035 353.096 330.849 353.19L306.793 367.057C306.438 367.259 306.413 367.576 306.717 367.753L314.579 372.287C314.742 372.388 314.926 372.451 315.117 372.471C315.308 372.49 315.5 372.467 315.681 372.401L315.782 372.35ZM383.507 332.599C383.701 332.703 383.919 332.758 384.14 332.758C384.361 332.758 384.578 332.703 384.773 332.599L392.99 327.85C393.332 327.647 393.37 327.343 393.053 327.153L385.19 322.62C385.007 322.522 384.803 322.471 384.595 322.471C384.388 322.471 384.184 322.522 384 322.62L375.783 327.369C375.429 327.571 375.403 327.875 375.707 328.053L383.507 332.599ZM373.466 326.064L381.696 321.328C382.038 321.126 382.076 320.809 381.759 320.632L373.897 316.098C373.714 316 373.509 315.949 373.302 315.949C373.094 315.949 372.89 316 372.707 316.098L364.489 320.847C364.135 321.05 364.097 321.353 364.414 321.531L372.276 326.077C372.448 326.17 372.64 326.222 372.835 326.228C373.031 326.235 373.225 326.196 373.403 326.115L373.466 326.064ZM303.83 379.252L312.047 374.503C312.389 374.3 312.427 373.996 312.047 373.819L304.184 369.273C304.001 369.175 303.797 369.124 303.589 369.124C303.382 369.124 303.177 369.175 302.994 369.273L294.777 374.022C294.423 374.224 294.397 374.541 294.701 374.718L302.564 379.252C302.737 379.352 302.93 379.411 303.13 379.427C303.329 379.442 303.529 379.412 303.716 379.34L303.83 379.252ZM357.007 347.897C357.192 347.987 357.396 348.034 357.602 348.034C357.808 348.034 358.012 347.987 358.197 347.897L366.414 343.148C366.769 342.945 366.794 342.628 366.49 342.451L358.627 337.918C358.444 337.82 358.24 337.769 358.032 337.769C357.825 337.769 357.62 337.82 357.437 337.918L349.207 342.666C348.866 342.869 348.828 343.173 349.144 343.35L357.007 347.897ZM243.651 414.026L251.868 409.277C252.21 409.075 252.248 408.771 251.932 408.594L244.069 404.047C243.886 403.95 243.682 403.899 243.474 403.899C243.267 403.899 243.062 403.95 242.879 404.047L234.649 408.834C234.295 409.037 234.269 409.341 234.573 409.531L242.436 414.064C242.627 414.154 242.837 414.198 243.048 414.191C243.259 414.184 243.466 414.128 243.651 414.026ZM255.667 407.087L263.884 402.338C264.226 402.135 264.264 401.831 263.884 401.654L256.021 397.108C255.838 397.01 255.634 396.959 255.426 396.959C255.219 396.959 255.014 397.01 254.831 397.108L246.677 401.869C246.323 402.072 246.298 402.388 246.601 402.566L254.464 407.099C254.65 407.197 254.857 407.247 255.067 407.245C255.277 407.243 255.483 407.188 255.667 407.087ZM231.611 421.017L239.828 416.268C240.182 416.065 240.207 415.761 239.904 415.571L232.117 410.987C231.922 410.883 231.705 410.828 231.484 410.828C231.263 410.828 231.046 410.883 230.851 410.987L222.646 415.799C222.305 416.002 222.267 416.306 222.583 416.483L230.446 421.029C230.634 421.117 230.841 421.158 231.049 421.146C231.256 421.135 231.458 421.073 231.636 420.966L231.611 421.017ZM279.66 393.271L287.877 388.522C288.231 388.319 288.257 388.002 287.953 387.825L280.09 383.292C279.903 383.198 279.698 383.149 279.489 383.149C279.28 383.149 279.074 383.198 278.887 383.292L270.67 388.04C270.328 388.243 270.29 388.547 270.607 388.724L278.47 393.271C278.662 393.357 278.872 393.398 279.083 393.389C279.294 393.381 279.5 393.323 279.685 393.22L279.66 393.271ZM267.644 400.198L275.861 395.461C276.216 395.259 276.254 394.942 275.937 394.765L268.075 390.231C267.892 390.134 267.687 390.083 267.48 390.083C267.272 390.083 267.068 390.134 266.885 390.231L258.705 394.967C258.351 395.17 258.313 395.474 258.63 395.651L266.492 400.198C266.678 400.285 266.882 400.326 267.087 400.318C267.292 400.309 267.492 400.25 267.67 400.147L267.644 400.198ZM291.7 386.331L299.918 381.582C300.272 381.379 300.297 381.075 299.994 380.898L292.131 376.352C291.936 376.248 291.719 376.193 291.498 376.193C291.277 376.193 291.06 376.248 290.865 376.352L282.762 381.088C282.42 381.291 282.382 381.595 282.698 381.772L290.561 386.318C290.741 386.401 290.937 386.441 291.135 386.435C291.333 386.428 291.527 386.375 291.7 386.28V386.331ZM357.247 289.821C357.434 289.915 357.64 289.963 357.849 289.963C358.058 289.963 358.263 289.915 358.45 289.821L366.667 285.072C367.022 284.869 367.047 284.566 366.743 284.388L364.641 283.122C364.458 283.024 364.254 282.973 364.046 282.973C363.839 282.973 363.634 283.024 363.451 283.122L355.234 287.896C354.88 288.099 354.854 288.415 355.158 288.593L357.247 289.821ZM297.55 327.635C297.733 327.732 297.937 327.783 298.145 327.783C298.353 327.783 298.557 327.732 298.74 327.635L306.957 322.886C307.312 322.683 307.337 322.379 307.033 322.202L299.221 317.567C299.026 317.463 298.809 317.408 298.588 317.408C298.367 317.408 298.15 317.463 297.955 317.567L289.738 322.316C289.396 322.519 289.358 322.822 289.675 323.012L297.55 327.635ZM321.606 313.768C321.801 313.872 322.018 313.927 322.239 313.927C322.46 313.927 322.677 313.872 322.872 313.768L331.089 309.032C331.431 308.829 331.469 308.513 331.153 308.335L323.29 303.789C323.107 303.691 322.903 303.64 322.695 303.64C322.487 303.64 322.283 303.691 322.1 303.789L313.883 308.538C313.528 308.728 313.503 309.044 313.807 309.222L321.606 313.768ZM282.876 336.018C283.059 336.116 283.263 336.167 283.471 336.167C283.678 336.167 283.883 336.116 284.066 336.018L292.296 331.269C292.637 331.067 292.675 330.763 292.359 330.585L284.496 326.039C284.313 325.941 284.109 325.89 283.901 325.89C283.694 325.89 283.489 325.941 283.306 326.039L275.089 330.788C274.734 330.991 274.709 331.294 275.013 331.472L282.876 336.018ZM309.553 320.606C309.737 320.706 309.944 320.758 310.154 320.758C310.364 320.758 310.571 320.706 310.755 320.606L318.973 315.857C319.314 315.655 319.352 315.351 318.973 315.174L311.173 310.691C310.99 310.593 310.786 310.542 310.578 310.542C310.371 310.542 310.166 310.593 309.983 310.691L301.753 315.414C301.399 315.617 301.374 315.933 301.677 316.111L309.553 320.606ZM258.845 349.948C259.031 350.042 259.237 350.09 259.446 350.09C259.655 350.09 259.861 350.042 260.048 349.948L268.265 345.212C268.619 345.009 268.644 344.693 268.341 344.515L260.478 339.982C260.286 339.871 260.067 339.812 259.845 339.812C259.623 339.812 259.404 339.871 259.212 339.982L251.109 344.705C250.754 344.908 250.729 345.212 251.033 345.389L258.845 349.948ZM270.86 343.008C271.056 343.108 271.273 343.161 271.493 343.161C271.713 343.161 271.93 343.108 272.126 343.008L280.343 338.259C280.685 338.057 280.723 337.753 280.407 337.563L272.544 333.029C272.361 332.932 272.157 332.881 271.949 332.881C271.742 332.881 271.537 332.932 271.354 333.029L263.137 337.778C262.782 337.981 262.757 338.285 263.061 338.462L270.86 343.008ZM333.229 303.662C333.412 303.76 333.617 303.811 333.824 303.811C334.032 303.811 334.236 303.76 334.419 303.662L342.636 298.913C342.991 298.711 343.016 298.407 342.712 298.217L340.623 297.014C340.437 296.92 340.231 296.872 340.022 296.872C339.813 296.872 339.607 296.92 339.42 297.014L331.203 301.763C330.861 301.965 330.823 302.269 331.14 302.447L333.229 303.662ZM369.263 282.831C369.449 282.924 369.655 282.973 369.864 282.973C370.073 282.973 370.279 282.924 370.466 282.831L378.683 278.094C379.025 277.892 379.062 277.575 378.746 277.398L376.657 276.132C376.474 276.034 376.269 275.983 376.062 275.983C375.854 275.983 375.65 276.034 375.467 276.132L367.25 280.88C366.895 281.083 366.857 281.387 367.174 281.564L369.263 282.831ZM385.786 292.366C385.971 292.457 386.174 292.504 386.381 292.504C386.587 292.504 386.79 292.457 386.976 292.366L395.193 287.617C395.547 287.415 395.585 287.098 395.269 286.921L387.406 282.387C387.223 282.29 387.019 282.239 386.811 282.239C386.604 282.239 386.399 282.29 386.216 282.387L377.986 287.136C377.644 287.339 377.606 287.643 377.986 287.82L385.786 292.366ZM408.664 318.719L416.881 313.971C417.236 313.768 417.274 313.464 416.957 313.287L409.095 308.74C408.909 308.65 408.706 308.603 408.5 308.603C408.293 308.603 408.09 308.65 407.905 308.74L399.675 313.489C399.333 313.692 399.295 314.009 399.675 314.186L407.537 318.719C407.712 318.808 407.904 318.856 408.099 318.858C408.295 318.86 408.488 318.817 408.664 318.732V318.719ZM345.245 296.761C345.428 296.858 345.632 296.909 345.84 296.909C346.047 296.909 346.251 296.858 346.435 296.761L354.652 292.012C355.006 291.809 355.032 291.505 354.728 291.328L352.626 290.062C352.443 289.964 352.238 289.913 352.031 289.913C351.823 289.913 351.619 289.964 351.436 290.062L343.219 294.81C342.864 295.013 342.839 295.33 343.143 295.507L345.245 296.761ZM246.842 356.913C247.025 357.011 247.229 357.062 247.437 357.062C247.645 357.062 247.849 357.011 248.032 356.913L256.249 352.164C256.604 351.962 256.629 351.658 256.325 351.48L248.463 346.934C248.276 346.841 248.07 346.792 247.861 346.792C247.652 346.792 247.446 346.841 247.26 346.934L239.043 351.67C238.701 351.873 238.663 352.19 238.979 352.367L246.842 356.913Z" fill="#455A64"/>
<path d="M282.394 418.838L284.078 419.801L328.836 445.647L408.449 399.678L410.108 398.741L363.654 371.919L282.394 418.838Z" fill="#37474F"/>
<path d="M284.078 419.801L328.836 445.648L408.449 399.678L363.654 373.832L284.078 419.801Z" fill="#263238"/>
<path d="M94.8066 401.401C94.1006 401.816 93.3069 402.059 92.4896 402.11C91.3245 402.256 90.1423 402.049 89.0964 401.515C88.2658 400.951 87.5811 400.197 87.099 399.317C86.6169 398.436 86.3511 397.453 86.3236 396.449V232.645L91.8692 235.848V399.691C91.8692 401.033 92.5402 401.806 93.5025 401.806C93.9636 401.779 94.4112 401.64 94.8066 401.401Z" fill="#F0F0F0"/>
<path d="M371.39 238.103C371.328 239.117 371.03 240.103 370.52 240.983C370.01 241.862 369.302 242.61 368.452 243.168L94.8066 401.401C93.186 402.338 91.8566 401.578 91.8566 399.691V216.65L99.985 211.965C101.606 211.028 104.252 196.768 105.885 195.768L176.269 155.117C177.915 154.18 181.751 164.742 183.371 163.805L371.39 55.0491V238.103Z" fill="#FAFAFA"/>
<path d="M369.997 57.4171V238.102C369.941 238.886 369.707 239.646 369.315 240.326C368.922 241.006 368.381 241.588 367.731 242.028L94.1103 400.223C93.9223 400.35 93.7037 400.424 93.4772 400.438C93.2113 400.438 93.2113 399.729 93.2113 399.691V217.435L100.669 213.18C101.846 212.497 102.581 210.204 104.227 204.316C104.821 201.792 105.639 199.325 106.67 196.946L176.408 156.599C177.223 157.731 177.963 158.916 178.624 160.145C180.523 163.488 181.586 165.21 183.131 165.21C183.447 165.213 183.757 165.13 184.03 164.97L369.997 57.4171ZM371.39 55.011L183.371 163.792C183.307 163.832 183.232 163.854 183.156 163.855C181.498 163.855 178.092 154.991 176.496 154.991C176.417 154.994 176.339 155.016 176.269 155.054L105.885 195.768C104.239 196.718 101.606 211.028 99.985 211.914L91.8566 216.6V399.691C91.8566 401.033 92.5276 401.806 93.4899 401.806C93.9394 401.78 94.3751 401.641 94.756 401.401L368.364 243.219C369.214 242.661 369.922 241.913 370.432 241.033C370.941 240.154 371.239 239.168 371.301 238.153V55.049L371.39 55.011Z" fill="#E0E0E0"/>
<path d="M89.0458 225.73C88.2397 225.172 87.5742 224.434 87.1018 223.575C86.6294 222.716 86.363 221.759 86.3236 220.779V197.693C86.3874 196.676 86.6886 195.688 87.2031 194.808C87.7176 193.928 88.4311 193.181 89.2863 192.627L362.869 34.3821C363.722 33.848 364.705 33.5564 365.712 33.5387C366.719 33.521 367.712 33.7778 368.583 34.2815C369.455 34.7852 370.174 35.5169 370.661 36.398C371.149 37.2791 371.388 38.2764 371.352 39.2829V62.3308C371.293 63.3462 370.996 64.3335 370.486 65.2133C369.976 66.0932 369.266 66.8409 368.414 67.3963L94.8066 225.629C93.9228 226.1 92.9398 226.355 91.9384 226.373C90.9369 226.391 89.9455 226.17 89.0458 225.73Z" fill="#9F854E"/>
<path opacity="0.4" d="M371.39 38.8016C371.187 37.282 369.946 36.7248 368.478 37.5352L94.8066 195.768C93.9366 196.321 93.2185 197.083 92.7175 197.984L87.1846 194.78C87.6824 193.88 88.4014 193.122 89.2737 192.577L362.881 34.3946C363.697 33.859 364.64 33.5501 365.614 33.4998C366.589 33.4494 367.559 33.6593 368.425 34.108C369.291 34.5567 370.022 35.228 370.543 36.0528C371.064 36.8777 371.357 37.8264 371.39 38.8016Z" fill="white"/>
<path opacity="0.1" d="M92.7175 197.984C92.1871 198.861 91.8907 199.859 91.8565 200.884V235.848L86.3109 232.644V197.693C86.3109 197.566 86.3109 197.452 86.3109 197.338C86.3336 197.091 86.3717 196.846 86.4249 196.604C86.5801 195.961 86.832 195.347 87.1719 194.78L92.7175 197.984Z" fill="black"/>
<path d="M371.39 39.2828V55.049L183.371 163.792C181.751 164.729 180.434 163.969 180.434 162.082V156.194C180.434 154.307 179.105 153.547 177.471 154.484L105.885 195.768C105.03 196.322 104.316 197.069 103.802 197.948C103.287 198.828 102.986 199.816 102.922 200.833V206.849C102.861 207.863 102.564 208.85 102.054 209.73C101.544 210.609 100.836 211.357 99.985 211.914L91.8566 216.6V200.884C91.9209 199.868 92.221 198.882 92.7331 198.003C93.2452 197.123 93.9551 196.375 94.8066 195.819L368.414 37.5732C370.035 36.6361 371.39 37.3959 371.39 39.2828Z" fill="#9F854E"/>
<path d="M357.526 49.1731C359.577 47.9827 361.235 48.9451 361.235 51.3132C361.167 52.602 360.796 53.8564 360.151 54.9743C359.506 56.0923 358.607 57.0421 357.526 57.7464C355.475 58.9368 353.803 57.9743 353.803 55.6062C353.874 54.3166 354.248 53.0618 354.895 51.9439C355.541 50.8261 356.443 49.8767 357.526 49.1731Z" fill="white"/>
<path d="M344.156 56.8852C346.207 55.6948 347.865 56.6573 347.865 59.0254C347.795 60.3137 347.423 61.5673 346.778 62.6849C346.134 63.8026 345.235 64.7527 344.156 65.4585C342.104 66.6363 340.446 65.6865 340.446 63.3184C340.514 62.0296 340.885 60.7752 341.53 59.6573C342.175 58.5393 343.074 57.5895 344.156 56.8852Z" fill="white"/>
<path d="M330.785 64.5848C332.837 63.4071 334.495 64.3696 334.495 66.7377C334.425 68.0259 334.053 69.2796 333.408 70.3972C332.764 71.5149 331.865 72.465 330.785 73.1708C328.734 74.3485 327.076 73.3861 327.076 71.018C327.146 69.7297 327.518 68.476 328.163 67.3584C328.807 66.2408 329.706 65.2907 330.785 64.5848Z" fill="white"/>
<path d="M371.39 55.0491V74.2472L91.8566 235.848V216.65L97.9086 213.18C99.5292 212.231 100.074 210.8 100.859 208.115L102.973 200.884C103.619 198.351 104.302 196.705 105.936 195.819L176.319 155.168C177.965 154.231 179.231 154.13 180.485 156.181L183.017 160.765C183.941 162.361 184.41 163.298 186.03 162.361L371.39 55.0491Z" fill="#E6E6E6"/>
<path d="M91.8565 216.65V235.848L86.3109 232.644V213.459L91.8565 216.65Z" fill="#E0E0E0"/>
<path opacity="0.2" d="M105.391 218.031L100.757 220.779L102.53 217.372C102.602 217.247 102.64 217.105 102.64 216.961C102.64 216.816 102.602 216.674 102.53 216.549C102.403 216.384 102.163 216.549 102.011 216.802L99.4785 221.627C99.4714 221.686 99.4714 221.746 99.4785 221.804C99.4672 221.889 99.4672 221.974 99.4785 222.058C99.4642 222.129 99.4642 222.202 99.4785 222.273C99.4723 222.306 99.4723 222.341 99.4785 222.374L102.011 224.299C102.046 224.323 102.088 224.336 102.131 224.336C102.174 224.336 102.216 224.323 102.251 224.299C102.382 224.217 102.481 224.091 102.53 223.945C102.669 223.628 102.656 223.273 102.53 223.159L100.757 221.792L105.391 219.12C105.51 219.027 105.607 218.908 105.673 218.771C105.738 218.635 105.772 218.486 105.771 218.335C105.771 218.081 105.594 217.917 105.391 218.031Z" fill="black"/>
<path opacity="0.2" d="M109.304 215.802L113.938 213.13L112.165 211.775C112.092 211.654 112.054 211.516 112.054 211.376C112.054 211.235 112.092 211.097 112.165 210.977C112.304 210.66 112.545 210.508 112.697 210.622L115.229 212.56C115.235 212.593 115.235 212.628 115.229 212.661C115.237 212.733 115.237 212.805 115.229 212.877C115.235 212.961 115.235 213.046 115.229 213.13C115.236 213.189 115.236 213.248 115.229 213.307L112.697 218.145C112.636 218.257 112.549 218.352 112.444 218.423C112.406 218.459 112.356 218.479 112.304 218.479C112.253 218.479 112.203 218.459 112.165 218.423C112.097 218.297 112.062 218.155 112.062 218.012C112.062 217.868 112.097 217.727 112.165 217.6L113.938 214.194L109.304 216.98C109.088 217.094 108.924 216.98 108.924 216.612C108.916 216.456 108.946 216.301 109.012 216.16C109.079 216.018 109.179 215.895 109.304 215.802Z" fill="black"/>
<path opacity="0.2" d="M124.497 202.454C124.497 202.176 124.219 202.214 124.105 202.518L123.459 204.075C122.383 203.949 121.066 205.012 120.192 206.887C119.04 209.318 119.04 212.193 120.192 213.294C120.471 213.551 120.83 213.704 121.208 213.727C121.586 213.75 121.961 213.642 122.269 213.421C123.192 212.796 123.913 211.916 124.345 210.888C124.422 210.767 124.462 210.626 124.462 210.483C124.462 210.34 124.422 210.199 124.345 210.078C124.206 209.939 123.965 210.078 123.826 210.382C122.965 212.193 121.572 213.003 120.711 212.18C119.85 211.357 119.863 209.204 120.711 207.393C121.319 206.127 122.205 205.342 122.965 205.291L122.484 206.456C122.357 206.76 122.484 207.051 122.674 206.925L124.56 205.658C124.632 205.593 124.689 205.513 124.726 205.423C124.763 205.333 124.78 205.236 124.776 205.139L124.497 202.454Z" fill="black"/>
<path opacity="0.2" d="M174.243 163.881L175.927 160.31C176.028 160.142 176.082 159.949 176.082 159.752C176.082 159.556 176.028 159.363 175.927 159.195C175.737 158.993 175.407 159.195 175.205 159.613L173.521 163.184L171.837 161.563C171.634 161.361 171.305 161.563 171.103 161.981C171.007 162.149 170.957 162.339 170.957 162.532C170.957 162.725 171.007 162.915 171.103 163.083L172.799 164.717L171.103 168.288C171.007 168.458 170.957 168.65 170.957 168.845C170.957 169.04 171.007 169.232 171.103 169.402C171.155 169.444 171.219 169.467 171.286 169.467C171.353 169.467 171.418 169.444 171.47 169.402C171.632 169.292 171.759 169.139 171.837 168.959L173.521 165.388L175.205 167.009C175.256 167.053 175.321 167.078 175.388 167.078C175.456 167.078 175.521 167.053 175.572 167.009C175.73 166.898 175.853 166.744 175.927 166.565C176.028 166.397 176.082 166.205 176.082 166.008C176.082 165.812 176.028 165.619 175.927 165.451L174.243 163.881Z" fill="black"/>
<path d="M130.6 206.849V200.871C130.665 199.856 130.966 198.87 131.478 197.991C131.99 197.111 132.699 196.363 133.55 195.806L351.803 69.6122C353.436 68.6751 354.753 69.4349 354.753 71.3218V77.2864C354.692 78.3027 354.393 79.2904 353.88 80.1701C353.368 81.0499 352.656 81.7972 351.803 82.3519L133.55 208.558C131.929 209.495 130.6 208.735 130.6 206.849Z" fill="#FAFAFA"/>
<path d="M347.789 82.8586C347.702 82.8791 347.611 82.8791 347.523 82.8586C347.359 82.7843 347.225 82.6556 347.144 82.4942C347.064 82.3327 347.041 82.1483 347.08 81.9722L347.371 79.5407L346.232 78.7303C346.135 78.6498 346.056 78.5493 346.002 78.4357C345.947 78.322 345.918 78.1978 345.915 78.0717C345.916 77.8729 345.96 77.6766 346.046 77.497C346.131 77.3174 346.255 77.159 346.409 77.0333L348.144 75.767C348.178 75.726 348.204 75.6786 348.22 75.6277L348.992 73.0949C349.041 72.8872 349.15 72.6984 349.305 72.5521C349.461 72.4057 349.655 72.3083 349.866 72.2718C350.007 72.2633 350.148 72.2973 350.27 72.3696C350.392 72.4418 350.489 72.5489 350.549 72.677L351.195 74.07L352.664 73.5002C352.795 73.4458 352.94 73.4337 353.078 73.4655C353.217 73.4972 353.342 73.5713 353.436 73.6774C353.572 73.8607 353.645 74.0826 353.645 74.3106C353.645 74.5386 353.572 74.7606 353.436 74.9438L352.17 77.2993C352.163 77.3454 352.163 77.3924 352.17 77.4386L352.461 79.5661C352.486 79.7597 352.466 79.9564 352.402 80.141C352.339 80.3255 352.233 80.4928 352.094 80.6298C352.009 80.7248 351.903 80.7984 351.784 80.8446C351.665 80.8908 351.537 80.9083 351.41 80.8957L349.992 80.7185L348.46 82.6687C348.367 82.7447 348.26 82.8008 348.145 82.8335C348.029 82.8662 347.908 82.8747 347.789 82.8586ZM346.954 77.9324L348.08 78.7556C348.204 78.8471 348.298 78.9723 348.352 79.116C348.406 79.2598 348.417 79.416 348.384 79.5661L348.194 81.1743L349.22 79.908C349.308 79.7847 349.427 79.6861 349.565 79.6218C349.702 79.5575 349.854 79.5296 350.005 79.5407L351.41 79.718C351.424 79.664 351.424 79.6075 351.41 79.5534L351.132 77.3879C351.102 77.125 351.155 76.8593 351.284 76.6281L352.385 74.5639L351.258 74.9945C351.092 75.0632 350.905 75.0646 350.737 74.9985C350.57 74.9324 350.434 74.8038 350.359 74.6399L349.84 73.5508L349.157 75.8049C349.084 76.06 348.934 76.2859 348.726 76.4508L346.992 77.7931C346.97 77.8366 346.957 77.884 346.954 77.9324Z" fill="#E0E0E0"/>
<g opacity="0.5">
<path opacity="0.2" d="M358.235 68.8906C358.055 68.8896 357.878 68.8411 357.722 68.75C357.567 68.6588 357.438 68.5282 357.349 68.3714C357.281 68.256 357.236 68.1283 357.218 67.9955C357.199 67.8628 357.207 67.7278 357.242 67.5982C357.276 67.4687 357.335 67.3472 357.417 67.2408C357.498 67.1344 357.6 67.0452 357.716 66.9784L366.022 62.1915C366.255 62.0555 366.533 62.0178 366.794 62.0866C367.055 62.1555 367.278 62.3253 367.414 62.5588C367.55 62.7922 367.588 63.0701 367.519 63.3313C367.45 63.5926 367.281 63.8158 367.047 63.9518L358.729 68.8146C358.572 68.8779 358.403 68.9039 358.235 68.8906Z" fill="black"/>
<path opacity="0.2" d="M358.235 73.6901C358.054 73.6891 357.878 73.6406 357.722 73.5494C357.566 73.4583 357.438 73.3277 357.348 73.1709C357.28 73.0555 357.236 72.9277 357.217 72.795C357.199 72.6623 357.207 72.5273 357.241 72.3977C357.275 72.2682 357.335 72.1467 357.416 72.0403C357.498 71.9339 357.6 71.8447 357.716 71.7779L366.021 66.9783C366.255 66.8601 366.525 66.8358 366.777 66.9105C367.028 66.9852 367.241 67.1532 367.372 67.38C367.503 67.6068 367.543 67.8753 367.482 68.1303C367.422 68.3853 367.266 68.6075 367.047 68.7512L358.729 73.5508C358.577 73.6359 358.408 73.6836 358.235 73.6901Z" fill="black"/>
<path opacity="0.2" d="M358.235 78.477C358.008 78.4836 357.785 78.4137 357.602 78.2785C357.42 78.1433 357.288 77.9506 357.228 77.7314C357.168 77.5123 357.184 77.2793 357.272 77.07C357.361 76.8607 357.517 76.6872 357.716 76.5774L366.021 71.7779C366.255 71.6596 366.525 71.6353 366.777 71.71C367.028 71.7847 367.241 71.9527 367.372 72.1796C367.503 72.4064 367.543 72.6748 367.482 72.9298C367.422 73.1848 367.266 73.407 367.047 73.5508L358.729 78.3503C358.576 78.4315 358.407 78.4749 358.235 78.477Z" fill="black"/>
</g>
<path d="M258.869 183.584C248.494 192.898 239.543 192.401 234.006 188.105C228.4 198.866 219.45 209.695 209.143 212.363L203.131 228.256C203.131 228.256 206.295 231.918 206.295 240.644C206.271 244.308 205.785 247.954 204.848 251.496C203.247 256.759 202.409 262.226 202.362 267.728C202.141 272.744 203.257 277.73 205.594 282.174C207.141 284.875 209.38 287.115 212.081 288.662L203.04 283.485C200.211 281.876 197.868 279.533 196.259 276.703C193.922 272.259 192.807 267.273 193.027 262.257C193.073 256.755 193.91 251.288 195.514 246.025C196.457 242.484 196.95 238.838 196.983 235.173C196.983 226.424 193.796 222.762 193.796 222.762L199.718 206.779C210.07 204.134 219.02 193.215 224.581 182.521C230.163 186.839 239.114 187.337 249.443 178L258.869 183.584Z" fill="#9F854E"/>
<path opacity="0.8" d="M227.903 184.601L224.626 182.702C225.629 183.478 226.731 184.117 227.903 184.601Z" fill="white"/>
<path opacity="0.85" d="M249.534 178.203C241.013 185.867 233.441 186.885 227.904 184.601L233.961 188.105C239.544 192.401 248.495 192.898 258.824 183.584L249.534 178.203Z" fill="white"/>
<path opacity="0.65" d="M224.626 182.702C219.021 193.486 210.07 204.315 199.763 206.96L209.098 212.363C219.45 209.695 228.401 198.798 233.961 188.105L224.626 182.702Z" fill="white"/>
<path opacity="0.55" d="M199.718 206.96L193.818 222.943L203.131 228.346L209.053 212.363L199.718 206.96Z" fill="white"/>
<path opacity="0.4" d="M205.594 282.264C203.257 277.82 202.142 272.835 202.362 267.818C202.41 262.316 203.247 256.85 204.849 251.586C205.785 248.044 206.271 244.398 206.295 240.735C206.295 232.008 203.131 228.346 203.131 228.346L193.796 222.943C193.796 222.943 196.983 226.605 196.983 235.354C196.95 239.019 196.457 242.664 195.514 246.206C193.91 251.469 193.073 256.936 193.027 262.437C192.807 267.454 193.922 272.439 196.26 276.883C197.868 279.713 200.211 282.056 203.04 283.666L212.081 288.843C209.369 287.271 207.128 284.999 205.594 282.264Z" fill="white"/>
<path opacity="0.05" d="M205.594 282.264C203.257 277.82 202.142 272.835 202.362 267.818C202.41 262.316 203.247 256.85 204.849 251.586C205.785 248.044 206.271 244.398 206.295 240.735C206.295 232.008 203.131 228.346 203.131 228.346L193.796 222.943C193.796 222.943 196.983 226.605 196.983 235.354C196.95 239.019 196.457 242.664 195.514 246.206C193.91 251.469 193.073 256.936 193.027 262.437C192.807 267.454 193.922 272.439 196.26 276.883C197.868 279.713 200.211 282.056 203.04 283.666L212.081 288.843C209.369 287.271 207.128 284.999 205.594 282.264Z" fill="black"/>
<path d="M233.961 293.228C218.478 293.387 209.618 289.295 205.594 282.264C203.257 277.82 202.141 272.835 202.362 267.818C202.41 262.316 203.247 256.85 204.849 251.586C205.784 248.052 206.27 244.413 206.295 240.757C206.295 232.008 203.131 228.346 203.131 228.346L209.053 212.363C219.405 209.695 228.355 198.799 233.915 188.105C239.498 192.423 248.449 192.898 258.778 183.584L264.7 192.627C262.662 197.744 261.581 203.192 261.513 208.7C261.473 211.777 261.97 214.838 262.982 217.743C264.764 221.973 265.605 226.54 265.446 231.127C265.425 237.295 264.339 243.413 262.237 249.212C258.304 261.194 249.444 275.504 233.961 293.228Z" fill="#9F854E"/>
<path opacity="0.75" d="M233.961 293.228C218.478 293.387 209.618 289.295 205.594 282.264C203.257 277.82 202.141 272.835 202.362 267.818C202.41 262.316 203.247 256.85 204.849 251.586C205.784 248.052 206.27 244.413 206.295 240.757C206.295 232.008 203.131 228.346 203.131 228.346L209.053 212.363C219.405 209.695 228.355 198.799 233.915 188.105C239.498 192.423 248.449 192.898 258.778 183.584L264.7 192.627C262.662 197.744 261.581 203.192 261.513 208.7C261.473 211.777 261.97 214.838 262.982 217.743C264.764 221.973 265.605 226.54 265.446 231.127C265.425 237.295 264.339 243.413 262.237 249.212C258.304 261.194 249.444 275.504 233.961 293.228Z" fill="white"/>
<path d="M232.13 289.295C220.128 289.137 212.375 286.152 209.075 280.252C207.082 276.415 206.153 272.113 206.386 267.796C206.396 263.128 207.066 258.485 208.375 254.005C208.488 253.508 208.623 253.033 208.736 252.536C209.766 248.686 210.298 244.72 210.318 240.735C210.464 236.288 209.526 231.874 207.584 227.871L212.104 215.596C223.202 211.752 231.226 200.788 235.475 193.599C237.76 194.581 240.222 195.081 242.708 195.068C248.234 194.882 253.557 192.934 257.897 189.507L260.157 193.215C258.429 198.229 257.513 203.487 257.445 208.791C257.388 212.36 257.962 215.911 259.14 219.281C259.276 219.62 259.411 219.981 259.524 220.343C260.914 223.833 261.546 227.578 261.378 231.33C261.363 237.075 260.354 242.773 258.394 248.173C254.574 259.702 245.692 273.47 232.13 289.295Z" fill="#9F854E"/>
<path opacity="0.4" d="M232.13 289.295C220.128 289.137 212.375 286.152 209.075 280.252C207.082 276.415 206.153 272.113 206.386 267.796C206.396 263.128 207.066 258.485 208.375 254.005C208.488 253.508 208.623 253.033 208.736 252.536C209.766 248.686 210.298 244.72 210.318 240.735C210.464 236.288 209.526 231.874 207.584 227.871L212.104 215.596C223.202 211.752 231.226 200.788 235.475 193.599C237.76 194.581 240.222 195.081 242.708 195.068C248.234 194.882 253.557 192.934 257.897 189.507L260.157 193.215C258.429 198.229 257.513 203.487 257.445 208.791C257.388 212.36 257.962 215.911 259.14 219.281C259.276 219.62 259.411 219.981 259.524 220.343C260.914 223.833 261.546 227.578 261.378 231.33C261.363 237.075 260.354 242.773 258.394 248.173C254.574 259.702 245.692 273.47 232.13 289.295Z" fill="white"/>
<path opacity="0.15" d="M232.13 289.295C220.128 289.137 212.375 286.152 209.075 280.252C207.082 276.415 206.153 272.113 206.386 267.796C206.396 263.128 207.066 258.485 208.375 254.005C208.488 253.508 208.623 253.033 208.736 252.536C209.766 248.686 210.298 244.72 210.318 240.735C210.464 236.288 209.526 231.874 207.584 227.871L212.104 215.596C223.202 211.752 231.226 200.788 235.475 193.599C237.76 194.581 240.222 195.081 242.708 195.068C248.234 194.882 253.557 192.934 257.897 189.507L260.157 193.215C258.429 198.229 257.513 203.487 257.445 208.791C257.388 212.36 257.962 215.911 259.14 219.281C259.276 219.62 259.411 219.981 259.524 220.343C260.914 223.833 261.546 227.578 261.378 231.33C261.363 237.075 260.354 242.773 258.394 248.173C254.574 259.702 245.692 273.47 232.13 289.295Z" fill="black"/>
<path opacity="0.8" d="M211.833 283.598C215.924 287.192 222.704 289.091 232.175 289.204L226.163 285.768C221.298 285.847 216.455 285.113 211.833 283.598Z" fill="white"/>
<path opacity="0.15" d="M257.174 191.429L260.316 193.214L257.92 189.53L256.563 190.479L257.174 191.429Z" fill="black"/>
<path d="M256.157 217.495C254.979 214.125 254.405 210.574 254.462 207.005C254.519 201.701 255.435 196.44 257.174 191.429L256.564 190.479C252.499 193.318 247.687 194.891 242.731 195.001C240.244 195.013 237.782 194.513 235.498 193.531C231.249 200.72 223.225 211.617 212.127 215.528L207.606 227.804C209.548 231.806 210.487 236.221 210.341 240.667C210.321 244.652 209.789 248.618 208.759 252.468C208.759 252.965 208.51 253.44 208.397 253.937C207.088 258.418 206.419 263.06 206.408 267.728C206.176 272.046 207.104 276.347 209.098 280.184C210.084 281.863 211.417 283.312 213.008 284.434C218.093 286.466 223.537 287.443 229.011 287.305C242.573 271.594 251.455 257.916 255.411 246.296C257.378 240.898 258.395 235.2 258.417 229.454C258.573 225.702 257.942 221.96 256.564 218.467C256.405 218.196 256.27 217.834 256.157 217.495Z" fill="#455A64"/>
<path d="M212.127 215.618L207.606 227.894C209.548 231.896 210.487 236.311 210.341 240.757C210.321 244.743 209.789 248.709 208.759 252.558C208.759 253.056 208.51 253.53 208.397 254.028C207.088 258.508 206.419 263.151 206.408 267.818C206.176 272.136 207.104 276.438 209.098 280.275C210.084 281.954 211.417 283.403 213.008 284.525C218.093 286.557 223.537 287.534 229.011 287.396V242.182L235.521 240.215V193.622C233.597 196.884 231.42 199.991 229.011 202.913C224.631 208.593 218.797 212.983 212.127 215.618Z" fill="#37474F"/>
<path d="M462.766 192.077C462.647 192.015 462.549 191.917 462.487 191.798L458.98 179.033V175.69L469.286 171.663V174.994L468.02 178.603L474.148 175.07L474.515 177.134L470.869 195.762C470.83 195.868 470.768 195.965 470.689 196.045C470.609 196.125 470.513 196.187 470.408 196.227C470.302 196.266 470.189 196.283 470.076 196.275C469.963 196.267 469.854 196.234 469.755 196.18L462.766 192.077Z" fill="#9F854E"/>
<path opacity="0.3" d="M462.766 192.077C462.647 192.015 462.549 191.917 462.487 191.798L458.98 179.033V175.69L469.286 171.663V174.994L468.02 178.603L474.148 175.07L474.515 177.134L470.869 195.762C470.83 195.868 470.768 195.965 470.689 196.045C470.609 196.125 470.513 196.187 470.408 196.227C470.302 196.266 470.189 196.283 470.076 196.275C469.963 196.267 469.854 196.234 469.755 196.18L462.766 192.077Z" fill="black"/>
<path d="M474.173 175.07L474.541 177.134L470.894 195.762C470.847 195.901 470.76 196.022 470.645 196.113C470.53 196.203 470.391 196.259 470.245 196.272C470.099 196.285 469.953 196.256 469.823 196.188C469.693 196.12 469.586 196.016 469.514 195.889L465.551 182.326L466.007 179.793L474.173 175.07Z" fill="#9F854E"/>
<path d="M496.799 106.572C496.736 105.415 496.401 104.29 495.823 103.287C495.244 102.284 494.438 101.431 493.469 100.797C492.435 100.273 491.292 100 490.133 100C488.974 100 487.831 100.273 486.797 100.797L438.33 128.493C437.361 129.126 436.554 129.979 435.976 130.983C435.398 131.986 435.063 133.111 435 134.267V188.569C435.061 189.728 435.395 190.855 435.973 191.861C436.552 192.866 437.359 193.721 438.33 194.356C439.364 194.88 440.507 195.154 441.666 195.154C442.825 195.154 443.968 194.88 445.002 194.356L493.773 166.496C496.774 164.787 496.799 163.064 496.799 160.937V106.572Z" fill="#9F854E"/>
<path d="M480.483 143.856C480.435 143.766 480.376 143.681 480.31 143.603C480.177 143.459 480.023 143.336 479.852 143.24L478.273 142.356C477.999 142.208 477.707 142.096 477.405 142.024L476.852 141.945V137.445C476.932 136.495 476.758 135.54 476.347 134.68C475.937 133.82 475.304 133.084 474.515 132.549C473.743 132.141 472.872 131.954 472 132.01C471.128 132.065 470.288 132.361 469.573 132.865C467.85 134.013 466.426 135.556 465.421 137.367C464.416 139.177 463.858 141.202 463.795 143.272V148.578L460.763 150.315L460.511 150.489H460.432C460.304 150.589 460.2 150.716 460.127 150.86C460.053 151.005 460.012 151.163 460.006 151.325V169.518C459.998 169.596 459.998 169.676 460.006 169.754C460.109 170.062 460.315 170.324 460.59 170.497L460.748 170.607L461.49 171.034L462.279 171.476C462.576 171.65 462.903 171.767 463.242 171.823C464.175 172.034 465.153 171.911 466.005 171.476L479.789 163.58C480 163.484 480.183 163.335 480.319 163.146C480.455 162.958 480.539 162.737 480.562 162.506V144.219C480.557 144.094 480.531 143.972 480.483 143.856ZM466.779 143.24C466.834 141.681 467.25 140.156 467.995 138.786C468.741 137.415 469.794 136.237 471.073 135.344C471.348 135.134 471.671 134.996 472.013 134.941C472.354 134.885 472.704 134.916 473.031 135.028C473.352 135.316 473.598 135.678 473.746 136.083C473.895 136.488 473.942 136.923 473.884 137.35V142.656L469.968 144.914L466.81 146.762L466.779 143.24Z" fill="#263238"/>
<path d="M482.032 144.316C482.012 144.084 481.929 143.862 481.793 143.673C481.657 143.484 481.472 143.335 481.259 143.242L479.68 142.358C479.101 142.07 478.463 141.92 477.817 141.92C477.17 141.92 476.532 142.07 475.954 142.358L462.17 150.254C461.958 150.348 461.774 150.497 461.638 150.686C461.502 150.875 461.419 151.096 461.396 151.328V169.536C461.417 169.768 461.5 169.99 461.636 170.179C461.772 170.368 461.957 170.517 462.17 170.609L463.749 171.494C464.328 171.789 464.97 171.943 465.62 171.943C466.27 171.943 466.911 171.789 467.491 171.494L481.259 163.598C481.472 163.505 481.657 163.356 481.793 163.167C481.929 162.978 482.012 162.756 482.032 162.524V144.316Z" fill="#E1D9C8"/>
<path opacity="0.4" d="M463.749 153.349L462.17 152.48C461.949 152.399 461.758 152.251 461.623 152.058C461.489 151.864 461.416 151.634 461.416 151.399C461.416 151.163 461.489 150.933 461.623 150.739C461.758 150.546 461.949 150.398 462.17 150.317L475.954 142.421C476.533 142.133 477.17 141.983 477.817 141.983C478.463 141.983 479.101 142.133 479.68 142.421L481.259 143.305C481.49 143.375 481.692 143.517 481.836 143.71C481.98 143.903 482.057 144.138 482.057 144.379C482.057 144.62 481.98 144.855 481.836 145.048C481.692 145.242 481.49 145.384 481.259 145.453L467.491 153.349C466.912 153.644 466.271 153.798 465.62 153.798C464.97 153.798 464.329 153.644 463.749 153.349Z" fill="white"/>
<path opacity="0.1" d="M465.628 153.791V171.999C464.974 172.014 464.327 171.862 463.749 171.557L462.17 170.673C461.956 170.581 461.77 170.433 461.634 170.244C461.497 170.054 461.415 169.831 461.396 169.599V151.344C461.416 151.578 461.498 151.803 461.634 151.994C461.77 152.186 461.955 152.338 462.17 152.433L463.749 153.302C464.323 153.623 464.97 153.792 465.628 153.791Z" fill="black"/>
<path d="M475.654 162.808L472.354 164.703L472.86 158.75C472.636 158.585 472.459 158.363 472.348 158.108C472.238 157.853 472.196 157.573 472.228 157.297C472.237 156.63 472.401 155.974 472.708 155.382C473.015 154.789 473.456 154.277 473.996 153.886C474.991 153.333 475.78 153.886 475.78 155.244C475.759 156.019 475.536 156.776 475.133 157.439L475.654 162.808Z" fill="#455A64"/>
<path d="M475.653 162.792L472.669 161.087L472.353 164.703L475.653 162.792Z" fill="#37474F"/>
<path d="M473.996 153.886C473.261 154.367 472.706 155.078 472.417 155.907L475.069 157.486C475.472 156.823 475.695 156.067 475.717 155.291C475.78 153.933 474.99 153.333 473.996 153.886Z" fill="#37474F"/>
<path d="M478.306 144.727V137.447C478.39 136.496 478.217 135.541 477.806 134.68C477.395 133.819 476.761 133.084 475.97 132.551C475.2 132.144 474.334 131.956 473.465 132.009C472.596 132.062 471.758 132.353 471.044 132.851C469.317 133.997 467.891 135.54 466.883 137.351C465.874 139.161 465.314 141.187 465.249 143.258V150.585C465.263 150.715 465.312 150.84 465.39 150.945C465.467 151.05 465.571 151.133 465.691 151.185C466.017 151.349 466.377 151.435 466.741 151.435C467.106 151.435 467.465 151.349 467.791 151.185C467.913 151.136 468.019 151.054 468.097 150.948C468.175 150.842 468.222 150.716 468.233 150.585V143.258C468.3 141.712 468.722 140.203 469.467 138.847C470.212 137.492 471.259 136.326 472.528 135.441C472.803 135.231 473.126 135.093 473.467 135.037C473.809 134.982 474.159 135.012 474.486 135.125C474.808 135.412 475.054 135.774 475.203 136.179C475.352 136.584 475.398 137.019 475.338 137.447V144.727C475.349 144.858 475.396 144.983 475.474 145.089C475.552 145.195 475.658 145.277 475.78 145.327C476.106 145.491 476.466 145.576 476.83 145.576C477.195 145.576 477.554 145.491 477.88 145.327C477.999 145.275 478.102 145.192 478.177 145.086C478.252 144.98 478.297 144.856 478.306 144.727Z" fill="#F5F3ED"/>
<path opacity="0.2" d="M435.063 188.569C435.125 189.728 435.458 190.855 436.037 191.861C436.615 192.866 437.422 193.721 438.393 194.356C439.333 194.83 440.363 195.1 441.415 195.148C442.466 195.196 443.516 195.021 444.496 194.635C442.926 195.23 441.736 194.331 441.736 192.419V138.117C441.772 136.958 442.108 135.828 442.71 134.837L436.038 131.038C435.436 132.029 435.1 133.159 435.063 134.318V188.569Z" fill="black"/>
<path opacity="0.5" d="M496.698 105.584C496.305 104.166 495.014 103.722 493.469 104.609L445.002 132.304C444.006 132.924 443.193 133.798 442.647 134.837L435.987 131.038C436.54 130.008 437.346 129.136 438.33 128.505L486.784 100.81C487.822 100.291 488.966 100.021 490.126 100.021C491.287 100.021 492.431 100.291 493.469 100.81C494.3 101.348 495.015 102.048 495.569 102.868C496.124 103.688 496.508 104.612 496.698 105.584Z" fill="white"/>
<path d="M220.321 242.093C220.304 241.194 220.495 240.304 220.877 239.49C221.259 238.676 221.823 237.962 222.524 237.402C223.756 236.7 224.741 237.649 224.741 239.533C224.76 240.434 224.569 241.327 224.184 242.141C223.8 242.955 223.231 243.669 222.524 244.225C221.306 244.927 220.321 243.978 220.321 242.093ZM217.002 244.121C217.002 247.812 218.117 250.45 219.867 251.555H219.971L220.165 251.672L220.386 251.763L220.606 251.853L220.878 251.931H221.086C221.565 252.023 222.058 252.023 222.537 251.931C222.695 251.909 222.851 251.874 223.004 251.827C223.176 251.783 223.345 251.726 223.51 251.659C223.832 251.536 224.144 251.388 224.443 251.217C226.893 249.787 229.071 246.707 230.445 243.094C230.445 243.003 230.509 242.912 230.535 242.821C230.849 241.972 231.109 241.104 231.313 240.222L235.435 237.844L236.252 234.426L238.715 232.996L240.711 234.777L242.306 233.854L243.757 231.372L246.285 229.851L247.244 231.008L250.096 229.344L253 223.21V220L231.65 232.359C231.501 231.55 231.249 230.764 230.898 230.02L230.704 229.656C230.561 229.409 230.419 229.188 230.263 228.967C230.108 228.746 230.108 228.772 230.017 228.681L229.809 228.447H229.732C229.578 228.283 229.403 228.139 229.213 228.019C229.122 227.941 229.019 227.889 228.928 227.824H228.798C228.105 227.495 227.338 227.354 226.574 227.416C225.81 227.477 225.075 227.739 224.443 228.175C220.93 230.215 217.962 235.66 217.171 241.171C217.043 242.149 216.987 243.135 217.002 244.121Z" fill="#FAFAFA"/>
</g>
<defs>
<clipPath id="clip0_703_5894">
<rect width="600" height="588" fill="white" transform="translate(-0.000244141)"/>
</clipPath>
</defs>
</svg>
