<svg width="594" height="583" viewBox="0 0 594 583" fill="none" xmlns="http://www.w3.org/2000/svg">
<g clip-path="url(#clip0_690_2744)">
<path d="M231.764 537.372L42.2791 427.783C35.0842 423.614 35.0842 416.809 42.2791 412.64L329.972 246.286C331.643 245.438 333.489 244.996 335.362 244.996C337.235 244.996 339.081 245.438 340.752 246.286L541.781 362.542C542.633 363.044 542.633 363.798 541.781 364.325L242.544 537.372C240.871 538.214 239.026 538.653 237.154 538.653C235.282 538.653 233.436 538.214 231.764 537.372Z" fill="#E0E0E0"/>
<path d="M109.753 37.0905L97.9575 43.9084C97.9575 43.3811 98.0578 42.8537 98.0578 42.3389V38.9237C98.0578 32.8215 93.7835 30.3605 88.519 33.399C86.2515 34.7931 84.3105 36.6603 82.8283 38.8735C81.9635 31.2143 75.9594 28.3641 68.6768 32.5955C60.7926 37.1533 54.4 48.2402 54.4 57.3559V62.4787C54.3597 64.5242 54.7885 66.5518 55.6534 68.4052L45.8514 74.0805C44.299 75.085 43.0067 76.4442 42.0806 78.0463C41.1545 79.6484 40.6211 81.4478 40.5242 83.2966C40.5242 86.6741 42.8932 88.0427 45.8138 86.3602L109.74 49.3703C111.28 48.3652 112.562 47.0101 113.482 45.4153C114.401 43.8204 114.931 42.0307 115.03 40.1918C115.042 36.764 112.673 35.3954 109.753 37.0905Z" fill="#F5F3ED"/>
<path d="M181.2 49.546L172.287 54.6939C172.337 54.3025 172.363 53.9083 172.363 53.5137V51.0025C172.363 46.3944 169.141 44.5361 165.168 46.8339C163.457 47.8654 161.986 49.2527 160.856 50.902C160.204 45.1263 155.679 42.9666 150.176 46.1433C144.235 49.5836 139.409 57.9585 139.409 64.8392V68.7064C139.368 70.247 139.681 71.7764 140.324 73.1764L132.929 77.4579C131.766 78.2181 130.799 79.2415 130.104 80.4455C129.41 81.6496 129.007 83.0004 128.93 84.3889C128.93 86.9001 130.723 87.9673 132.929 86.6992L181.187 58.7872C182.342 58.0313 183.305 57.0156 183.999 55.821C184.694 54.6265 185.1 53.286 185.186 51.9065C185.186 49.3074 183.418 48.2778 181.2 49.546Z" fill="#F5F3ED"/>
<path d="M63.5 378.626C63.5 378.626 64.4276 356.578 56.3052 338.07C48.1828 319.563 34.9965 306.756 21.4215 303.504C7.84663 300.252 -5.32718 311.2 8.05972 322.25C21.4466 333.299 46.2776 346.32 53.1841 380.861L63.5 378.626Z" fill="#9F854E"/>
<path opacity="0.15" d="M63.5 378.626C63.5 378.626 64.4276 356.578 56.3052 338.07C48.1828 319.563 34.9965 306.756 21.4215 303.504C7.84663 300.252 -5.32718 311.2 8.05972 322.25C21.4466 333.299 46.2776 346.32 53.1841 380.861L63.5 378.626Z" fill="black"/>
<path d="M60.3414 372.361H60.4918C60.684 372.313 60.8497 372.192 60.953 372.022C61.0562 371.853 61.0887 371.65 61.0433 371.457C52.1062 333.261 26.7362 313.913 14.5777 309.028C14.4874 308.99 14.3903 308.97 14.2922 308.97C14.1941 308.97 14.097 308.99 14.0068 309.029C13.9167 309.068 13.8352 309.124 13.7675 309.195C13.6997 309.267 13.647 309.351 13.6125 309.443C13.542 309.626 13.5458 309.83 13.623 310.01C13.7003 310.191 13.845 310.334 14.0262 310.409C25.9465 315.206 50.8026 334.203 59.5893 371.783C59.6295 371.951 59.7261 372.1 59.8631 372.206C60 372.311 60.1689 372.366 60.3414 372.361Z" fill="white"/>
<path d="M38.0173 412.464C40.0855 419.144 45.1244 422.786 51.9557 424.116C56.3052 424.958 63.2368 424.116 66.9972 421.392C72.1113 417.625 73.841 414.863 74.9065 411.159C76.2675 406.222 77.0127 401.136 77.1251 396.016C77.2504 392.249 75.2198 388.96 73.6906 386.787C72.8748 385.743 71.9868 384.757 71.0333 383.837C69.9929 382.719 68.8272 381.752 67.7242 380.71C66.14 379.369 64.9307 377.638 64.2145 375.688C63.3622 372.913 64.2145 369.925 64.2145 367.024C64.1296 364.105 63.0846 361.295 61.2419 359.031C59.3991 356.768 56.8618 355.177 54.0239 354.506C51.1773 353.788 48.2827 353.276 45.3625 352.974C41.0131 352.572 36.3251 353.841 32.0885 352.51C27.8518 351.179 24.1791 349.019 19.8422 348.19C15.3047 347.324 10.2658 348.015 6.71851 351.166C5.6756 352.006 4.85472 353.091 4.32799 354.323C3.80126 355.556 3.58482 356.899 3.69769 358.235C4.174 361.148 6.65584 363.258 9.01234 365.015C11.3688 366.773 13.9384 368.682 14.7156 371.519C16.2698 377.245 9.70174 382.996 11.5192 388.646C11.9859 389.805 12.6818 390.857 13.565 391.739C14.4481 392.622 15.5004 393.317 16.6584 393.781C18.5636 394.585 20.509 395.289 22.487 395.891C23.4402 396.127 24.4072 396.303 25.3825 396.418C28.2278 396.744 31.2236 397.397 33.367 399.469C36.7638 402.671 36.626 407.982 38.0173 412.464Z" fill="#9F854E"/>
<path d="M52.1939 378.362C52.1412 378.261 52.0687 378.171 51.9808 378.099C39.1329 361.876 20.0177 354.908 13.6376 353.853C13.4635 353.828 13.2862 353.871 13.1435 353.974C13.0008 354.077 12.9037 354.232 12.873 354.406C12.8475 354.58 12.8908 354.758 12.9938 354.901C13.0967 355.044 13.2512 355.141 13.4245 355.171C19.4662 356.163 37.2402 362.592 49.7747 377.408C44.9395 376.08 39.8823 375.768 34.9209 376.492C29.9595 377.215 25.2013 378.96 20.9453 381.614C20.8749 381.664 20.8151 381.728 20.7694 381.801C20.7237 381.874 20.6929 381.956 20.6789 382.041C20.6649 382.126 20.668 382.214 20.6879 382.298C20.7078 382.382 20.7441 382.461 20.7948 382.531C20.8576 382.618 20.9406 382.689 21.0367 382.737C21.1327 382.785 21.239 382.809 21.3464 382.807C21.481 382.802 21.6114 382.758 21.7224 382.682C26.0977 379.978 31.0105 378.266 36.1162 377.665C41.222 377.064 46.3972 377.589 51.2789 379.204C51.7928 379.367 52.595 380.962 52.9084 381.401C53.51 382.255 54.0866 383.121 54.6381 383.988C55.7408 385.747 56.7451 387.566 57.6464 389.437C58.5779 391.383 59.394 393.383 60.0907 395.426C60.3664 396.217 61.3441 401.089 61.9458 401.139C62.1229 401.131 62.2922 401.063 62.4263 400.947C62.5605 400.831 62.6517 400.673 62.6853 400.499C63.0864 398.791 61.7202 396.066 61.1561 394.472C60.4381 392.428 59.601 390.428 58.6492 388.483C57.7151 386.667 56.6858 384.903 55.5657 383.196C55.0392 382.355 54.4877 381.539 53.9111 380.685C53.2748 379.961 52.7003 379.184 52.1939 378.362Z" fill="white"/>
<path d="M59.1756 418.868C59.1756 423.25 62.4346 428.687 66.4707 431.022L225.472 522.995C227.736 524.146 230.24 524.746 232.779 524.746C235.319 524.746 237.822 524.146 240.087 522.995L520.071 361.023C524.107 358.7 527.379 353.25 527.379 348.881C527.379 344.511 524.107 339.062 520.071 336.727L361.07 244.792C358.808 243.64 356.306 243.04 353.769 243.04C351.232 243.04 348.73 243.64 346.468 244.792L66.4707 406.714C62.4346 409.049 59.1631 414.486 59.1756 418.868Z" fill="#37474F"/>
<path d="M66.4707 415.164L225.472 507.149C227.738 508.295 230.241 508.892 232.779 508.892C235.318 508.892 237.821 508.295 240.087 507.149L520.071 345.177C524.107 342.841 524.107 339.062 520.071 336.727L361.07 244.792C358.808 243.64 356.306 243.04 353.769 243.04C351.231 243.04 348.73 243.64 346.468 244.792L66.4707 406.714C62.4346 409.049 62.4346 412.829 66.4707 415.164Z" fill="#455A64"/>
<path d="M232.779 508.945V524.778C230.238 524.831 227.727 524.23 225.484 523.033L66.4707 431.022C62.4346 428.687 59.1631 423.25 59.1631 418.868C59.1631 414.762 62.046 409.727 65.7312 407.191C62.4597 409.539 62.7104 412.992 66.4707 415.164L225.484 507.149C227.722 508.364 230.234 508.982 232.779 508.945Z" fill="#263238"/>
<path d="M52.3193 406.978C48.5589 404.793 48.7469 401.101 48.7469 396.431V176.437C48.8843 173.896 49.6175 171.424 50.8872 169.221C52.1569 167.018 53.9272 165.145 56.0546 163.755L336.039 1.78296C340.075 -0.552451 346.418 -0.665454 350.203 1.51929C353.988 3.70403 353.775 7.40805 353.775 12.0663V232.123C353.636 234.66 352.904 237.128 351.637 239.329C350.369 241.53 348.603 243.401 346.48 244.792L66.4708 406.714C62.4347 409.049 56.1047 409.175 52.3193 406.978Z" fill="#37474F"/>
<path d="M353.763 12.1166C353.763 7.4583 350.491 5.5749 346.468 7.8852L66.4707 169.832C64.3107 171.18 62.5324 173.061 61.3065 175.294L50.8903 169.23C52.1159 166.992 53.894 165.108 56.0545 163.755L336.039 1.78299C340.1 -0.502203 346.367 -0.615207 350.128 1.56954C353.888 3.75428 353.763 7.4583 353.763 12.1166Z" fill="#455A64"/>
<path d="M65.5933 407.166C61.5697 409.049 55.8289 409.024 52.3067 406.978C48.5463 404.793 48.7343 401.101 48.7343 396.43V176.424C48.8135 173.88 49.5522 171.401 50.8777 169.23L61.294 175.269C59.9812 177.455 59.2477 179.94 59.1631 182.489V402.495C59.1631 406.827 61.9834 408.76 65.5933 407.166Z" fill="#263238"/>
<path d="M70.4066 178.258L340.351 22.1865C342.77 20.7802 344.725 21.9228 344.725 24.6977V223.082C344.635 224.593 344.192 226.062 343.432 227.37C342.673 228.679 341.617 229.79 340.351 230.616L70.4066 386.725C67.9749 388.118 66.0195 386.988 66.0195 384.214V185.866C66.1008 184.342 66.5405 182.858 67.3029 181.535C68.0653 180.213 69.1287 179.09 70.4066 178.258Z" fill="#9F854E"/>
<path opacity="0.3" d="M70.4066 178.258L340.351 22.1865C342.77 20.7802 344.725 21.9228 344.725 24.6977V223.082C344.635 224.593 344.192 226.062 343.432 227.37C342.673 228.679 341.617 229.79 340.351 230.616L70.4066 386.725C67.9749 388.118 66.0195 386.988 66.0195 384.214V185.866C66.1008 184.342 66.5405 182.858 67.3029 181.535C68.0653 180.213 69.1287 179.09 70.4066 178.258Z" fill="black"/>
<path d="M86.6764 407.153L346.568 256.846C347.7 256.27 348.952 255.97 350.222 255.97C351.491 255.97 352.743 256.27 353.876 256.846L358.2 259.231C360.218 260.399 360.218 262.282 358.2 263.45L98.2709 413.733C97.1409 414.308 95.8911 414.608 94.6234 414.608C93.3556 414.608 92.1058 414.308 90.9758 413.733L86.689 411.372C84.6709 410.204 84.6709 408.321 86.6764 407.153Z" fill="#263238"/>
<path d="M107.07 419.295L366.949 268.987C367.959 268.414 369.088 268.083 370.247 268.02C371.406 267.957 372.564 268.163 373.63 268.623L441.317 307.748C442.984 308.714 442.695 310.447 440.677 311.602L181.062 461.709C180.053 462.284 178.924 462.617 177.765 462.683C176.606 462.748 175.448 462.544 174.381 462.086L106.443 423.162C104.776 422.183 105.052 420.463 107.07 419.295Z" fill="#263238"/>
<path d="M332.266 332.119L340.401 327.41C340.752 327.209 340.777 326.908 340.476 326.732L332.68 322.225C332.496 322.135 332.295 322.088 332.09 322.088C331.886 322.088 331.685 322.135 331.501 322.225L323.366 326.933C323.015 327.134 322.99 327.448 323.291 327.624L331.075 332.119C331.26 332.212 331.464 332.26 331.671 332.26C331.877 332.26 332.081 332.212 332.266 332.119ZM320.383 315.796L312.248 320.605C311.897 320.806 311.872 321.107 312.173 321.283L319.957 325.79C320.142 325.883 320.346 325.932 320.552 325.932C320.759 325.932 320.963 325.883 321.148 325.79L329.283 321.082C329.621 320.881 329.659 320.58 329.345 320.404L321.561 315.896C321.385 315.79 321.186 315.728 320.98 315.717C320.775 315.706 320.57 315.746 320.383 315.834V315.796ZM294.061 331.001L280.273 338.962C279.922 339.163 279.897 339.477 280.197 339.652L287.994 344.147C288.175 344.244 288.378 344.295 288.583 344.295C288.788 344.295 288.991 344.244 289.172 344.147L302.96 336.187C303.311 335.986 303.336 335.685 303.035 335.496L295.251 331.001C295.07 330.915 294.871 330.873 294.67 330.879C294.47 330.886 294.273 330.941 294.098 331.039L294.061 331.001ZM308.45 322.677L300.315 327.385C299.964 327.586 299.939 327.887 300.24 328.063L308.024 332.571C308.209 332.664 308.413 332.712 308.62 332.712C308.826 332.712 309.03 332.664 309.215 332.571L317.35 327.862C317.701 327.661 317.726 327.36 317.425 327.172L309.629 322.677C309.449 322.592 309.252 322.551 309.054 322.558C308.855 322.564 308.661 322.618 308.488 322.714L308.45 322.677ZM276.525 341.134L268.39 345.842C268.051 346.043 268.014 346.345 268.39 346.533L276.174 351.028C276.355 351.125 276.557 351.175 276.763 351.175C276.968 351.175 277.171 351.125 277.352 351.028L285.487 346.32C285.838 346.119 285.863 345.817 285.562 345.642L277.778 341.134C277.587 341.043 277.377 340.999 277.166 341.005C276.954 341.012 276.747 341.069 276.562 341.172L276.525 341.134ZM264.642 348.015L256.495 352.723C256.156 352.924 256.119 353.225 256.432 353.401L264.216 357.909C264.397 358.005 264.6 358.056 264.805 358.056C265.01 358.056 265.213 358.005 265.394 357.909L273.529 353.2C273.88 352.999 273.905 352.698 273.604 352.522L265.82 348.015C265.641 347.93 265.444 347.889 265.245 347.896C265.047 347.902 264.853 347.956 264.68 348.052L264.642 348.015ZM295.151 366.384L303.286 361.676C303.637 361.487 303.662 361.173 303.361 360.998L295.577 356.49C295.393 356.397 295.189 356.349 294.982 356.349C294.775 356.349 294.571 356.397 294.387 356.49L286.252 361.186C285.913 361.387 285.876 361.701 286.252 361.876L294.036 366.384C294.211 366.482 294.407 366.537 294.608 366.544C294.808 366.55 295.008 366.508 295.189 366.422L295.151 366.384ZM283.293 373.34L291.428 368.632C291.779 368.431 291.804 368.129 291.504 367.954L283.695 363.408C283.511 363.318 283.31 363.272 283.105 363.272C282.901 363.272 282.7 363.318 282.516 363.408L274.369 368.117C274.03 368.318 273.993 368.632 274.306 368.807L282.09 373.302C282.271 373.409 282.477 373.469 282.687 373.475C282.897 373.482 283.106 373.435 283.293 373.34ZM271.398 380.221L279.533 375.512C279.884 375.311 279.922 375.01 279.608 374.834L271.824 370.327C271.643 370.23 271.441 370.179 271.235 370.179C271.03 370.179 270.827 370.23 270.646 370.327L262.511 375.035C262.16 375.236 262.123 375.537 262.436 375.726L270.22 380.221C270.404 380.312 270.608 380.356 270.814 380.349C271.019 380.343 271.22 380.286 271.398 380.183V380.221ZM259.515 387.101L267.65 382.393C267.989 382.192 268.026 381.891 267.713 381.702L259.879 377.17C259.698 377.073 259.495 377.022 259.29 377.022C259.084 377.022 258.882 377.073 258.701 377.17L250.566 381.878C250.215 382.079 250.19 382.38 250.491 382.556L258.274 387.064C258.466 387.165 258.679 387.218 258.895 387.218C259.111 387.218 259.324 387.165 259.515 387.064V387.101ZM320.371 339.037L328.506 334.329C328.857 334.128 328.882 333.826 328.581 333.651L320.797 329.143C320.604 329.04 320.389 328.986 320.17 328.986C319.951 328.986 319.736 329.04 319.543 329.143L311.408 333.851C311.07 334.052 311.032 334.354 311.346 334.542L319.13 339.037C319.322 339.139 319.538 339.19 319.755 339.183C319.973 339.176 320.185 339.113 320.371 338.999V339.037ZM307.084 359.528L325.234 349.019C325.573 348.818 325.61 348.517 325.297 348.341L306.395 337.405C306.213 337.308 306.011 337.257 305.806 337.257C305.6 337.257 305.398 337.308 305.216 337.405L295.828 342.842C295.477 343.042 295.452 343.344 295.753 343.52L305.78 349.308C306.081 349.484 306.056 349.798 305.705 349.998L298.184 354.343C297.834 354.544 297.808 354.845 298.109 355.021L305.893 359.528C306.079 359.618 306.283 359.664 306.489 359.664C306.695 359.664 306.898 359.618 307.084 359.528ZM252.784 354.908L244.649 359.616C244.298 359.817 244.273 360.119 244.574 360.294L252.358 364.802C252.542 364.892 252.743 364.939 252.947 364.939C253.151 364.939 253.353 364.892 253.536 364.802L261.684 360.093C262.022 359.893 262.06 359.579 261.747 359.403L253.963 354.908C253.779 354.815 253.576 354.769 253.37 354.773C253.165 354.777 252.964 354.832 252.784 354.933V354.908ZM240.889 361.789L232.754 366.497C232.403 366.685 232.378 366.999 232.679 367.175L240.463 371.683C240.656 371.786 240.871 371.84 241.09 371.84C241.308 371.84 241.524 371.786 241.716 371.683L249.851 366.987C250.19 366.786 250.227 366.472 249.914 366.296L242.13 361.801C241.94 361.695 241.725 361.641 241.508 361.643C241.29 361.645 241.077 361.704 240.889 361.814V361.789ZM175.083 435.216C175.264 435.313 175.466 435.363 175.672 435.363C175.877 435.363 176.08 435.313 176.261 435.216L184.396 430.507C184.747 430.307 184.772 430.005 184.471 429.829L176.687 425.322C176.502 425.229 176.298 425.181 176.092 425.181C175.885 425.181 175.681 425.229 175.496 425.322L167.361 430.018C167.023 430.219 166.985 430.533 167.299 430.708L175.083 435.216ZM145.814 416.834L137.667 421.543C137.329 421.743 137.291 422.045 137.667 422.221L145.451 426.728C145.632 426.825 145.835 426.875 146.04 426.875C146.246 426.875 146.448 426.825 146.629 426.728L154.764 422.02C155.115 421.819 155.14 421.517 154.839 421.329L147.055 416.834C146.866 416.726 146.652 416.669 146.435 416.669C146.217 416.669 146.004 416.726 145.814 416.834ZM160.856 430.646C161.037 430.742 161.24 430.793 161.445 430.793C161.651 430.793 161.853 430.742 162.034 430.646L170.169 425.937C170.52 425.736 170.545 425.435 170.244 425.259L162.46 420.751C162.274 420.662 162.071 420.616 161.865 420.616C161.659 420.616 161.455 420.662 161.27 420.751L153.135 425.46C152.796 425.661 152.759 425.975 153.135 426.151L160.856 430.646ZM193.671 438.041L201.806 433.333C202.145 433.132 202.182 432.83 201.806 432.655L194.022 428.147C193.841 428.05 193.639 428 193.433 428C193.228 428 193.025 428.05 192.844 428.147L184.709 432.843C184.358 433.044 184.333 433.358 184.634 433.533L192.418 438.029C192.609 438.126 192.82 438.175 193.034 438.173C193.248 438.171 193.458 438.117 193.646 438.016L193.671 438.041ZM180.56 444.909C180.745 445.002 180.949 445.05 181.156 445.05C181.362 445.05 181.566 445.002 181.751 444.909L189.886 440.201C190.224 440 190.262 439.698 189.961 439.523L182.165 435.003C181.983 434.906 181.781 434.855 181.576 434.855C181.37 434.855 181.168 434.906 180.986 435.003L172.852 439.711C172.501 439.912 172.475 440.213 172.776 440.402L180.56 444.909ZM157.635 409.928L149.5 414.637C149.161 414.838 149.124 415.139 149.437 415.327L157.221 419.797C157.402 419.894 157.605 419.945 157.81 419.945C158.015 419.945 158.218 419.894 158.399 419.797L166.534 415.089C166.885 414.888 166.91 414.586 166.609 414.411L158.825 409.903C158.637 409.818 158.431 409.778 158.224 409.787C158.017 409.796 157.815 409.853 157.635 409.953V409.928ZM217.098 375.537L208.964 380.246C208.625 380.447 208.588 380.748 208.964 380.936L216.748 385.431C216.929 385.528 217.131 385.579 217.337 385.579C217.542 385.579 217.744 385.528 217.926 385.431L226.061 380.723C226.412 380.522 226.437 380.221 226.136 380.045L218.352 375.537C218.157 375.438 217.941 375.388 217.722 375.392C217.503 375.397 217.289 375.455 217.098 375.562V375.537ZM169.467 403.06L161.332 407.756C160.981 407.957 160.956 408.271 161.257 408.447L169.054 412.942C169.235 413.038 169.437 413.089 169.643 413.089C169.848 413.089 170.05 413.038 170.232 412.942L178.367 408.233C178.718 408.032 178.743 407.731 178.442 407.555L170.658 403.048C170.479 402.97 170.285 402.934 170.09 402.94C169.895 402.947 169.704 402.996 169.53 403.085L169.467 403.06ZM228.931 368.669L220.859 373.34C220.508 373.541 220.483 373.855 220.784 374.031L228.568 378.526C228.751 378.625 228.955 378.676 229.163 378.676C229.371 378.676 229.575 378.625 229.758 378.526L237.893 373.817C238.244 373.616 238.269 373.315 237.969 373.139L230.185 368.632C229.995 368.548 229.788 368.511 229.582 368.522C229.375 368.533 229.174 368.592 228.994 368.694L228.931 368.669ZM205.115 382.418L196.968 387.127C196.63 387.327 196.592 387.629 196.968 387.805L204.752 392.312C204.933 392.409 205.136 392.459 205.341 392.459C205.547 392.459 205.749 392.409 205.93 392.312L214.065 387.604C214.416 387.403 214.454 387.101 214.14 386.913L206.356 382.418C206.178 382.332 205.981 382.289 205.783 382.293C205.585 382.297 205.39 382.349 205.216 382.443L205.115 382.418ZM193.22 389.299L185.085 394.007C184.734 394.208 184.709 394.509 185.01 394.685L192.794 399.193C192.975 399.29 193.178 399.34 193.383 399.34C193.589 399.34 193.791 399.29 193.972 399.193L202.12 394.497C202.458 394.296 202.496 393.982 202.182 393.806L194.398 389.311C194.229 389.233 194.044 389.193 193.858 389.196C193.672 389.198 193.488 389.242 193.32 389.324L193.22 389.299ZM181.325 396.179L173.29 400.963C172.939 401.164 172.914 401.478 173.215 401.654L180.999 406.161C181.192 406.265 181.407 406.319 181.626 406.319C181.844 406.319 182.06 406.265 182.252 406.161L190.387 401.453C190.726 401.265 190.763 400.951 190.45 400.775L182.666 396.267C182.482 396.15 182.272 396.082 182.054 396.071C181.836 396.06 181.62 396.106 181.425 396.204L181.325 396.179ZM235.625 400.787L243.759 396.079C244.11 395.891 244.136 395.577 243.835 395.401L236.151 390.918C235.966 390.826 235.762 390.777 235.556 390.777C235.349 390.777 235.145 390.826 234.96 390.918L226.825 395.614C226.487 395.815 226.449 396.129 226.825 396.305L234.609 400.8C234.782 400.888 234.972 400.935 235.166 400.937C235.359 400.94 235.551 400.897 235.725 400.813L235.625 400.787ZM346.568 300.603L338.433 305.312C338.095 305.513 338.057 305.814 338.37 306.002L346.154 310.497C346.336 310.594 346.538 310.645 346.743 310.645C346.949 310.645 347.151 310.594 347.332 310.497L355.467 305.789C355.818 305.588 355.843 305.287 355.543 305.111L347.759 300.603C347.585 300.53 347.399 300.494 347.211 300.498C347.023 300.503 346.838 300.547 346.668 300.628L346.568 300.603ZM332.178 308.928L324.043 313.636C323.692 313.837 323.667 314.151 323.968 314.327L331.752 318.822C331.933 318.919 332.136 318.969 332.341 318.969C332.547 318.969 332.749 318.919 332.93 318.822L341.078 314.113C341.416 313.912 341.454 313.611 341.14 313.435L333.356 308.928C333.185 308.857 333 308.823 332.815 308.827C332.629 308.831 332.447 308.874 332.279 308.953L332.178 308.928ZM358.501 293.735L350.366 298.431C350.015 298.632 349.99 298.946 350.291 299.122L358.075 303.617C358.259 303.709 358.463 303.758 358.67 303.758C358.877 303.758 359.081 303.709 359.265 303.617L367.4 298.908C367.739 298.707 367.776 298.406 367.463 298.23L359.679 293.722C359.503 293.642 359.31 293.604 359.117 293.61C358.923 293.617 358.734 293.668 358.563 293.76L358.501 293.735ZM292.77 354.895L300.904 350.199C301.255 349.998 301.281 349.685 300.98 349.509L293.196 345.014C293.013 344.915 292.808 344.863 292.6 344.863C292.392 344.863 292.188 344.915 292.005 345.014L283.87 349.722C283.519 349.923 283.494 350.224 283.795 350.4L291.579 354.908C291.771 355.013 291.985 355.069 292.204 355.072C292.423 355.074 292.638 355.022 292.832 354.92L292.77 354.895ZM371.574 286.817C371.393 286.72 371.191 286.669 370.985 286.669C370.78 286.669 370.577 286.72 370.396 286.817L362.261 291.525C361.91 291.714 361.885 292.027 362.186 292.203L369.97 296.711C370.151 296.808 370.354 296.858 370.559 296.858C370.764 296.858 370.967 296.808 371.148 296.711L379.296 292.015C379.634 291.814 379.672 291.5 379.358 291.324L371.574 286.817ZM247.62 393.932L255.755 389.236C256.093 389.035 256.131 388.721 255.755 388.545L247.971 384.05C247.79 383.954 247.587 383.903 247.382 383.903C247.176 383.903 246.974 383.954 246.793 384.05L238.658 388.759C238.307 388.96 238.282 389.261 238.583 389.437L246.367 393.944C246.561 394.046 246.776 394.098 246.995 394.096C247.214 394.093 247.428 394.037 247.62 393.932ZM393.46 309.593L401.595 304.885C401.946 304.684 401.971 304.383 401.67 304.207L393.886 299.699C393.693 299.596 393.478 299.542 393.259 299.542C393.04 299.542 392.825 299.596 392.632 299.699L384.497 304.408C384.159 304.609 384.121 304.91 384.435 305.098L392.219 309.593C392.408 309.701 392.622 309.758 392.839 309.758C393.057 309.758 393.271 309.701 393.46 309.593ZM370.446 310.033L378.581 305.337C378.932 305.136 378.957 304.822 378.656 304.646L370.872 300.151C370.689 300.052 370.485 300 370.277 300C370.069 300 369.865 300.052 369.682 300.151L361.547 304.86C361.208 305.061 361.171 305.362 361.484 305.538L369.268 310.045C369.45 310.14 369.653 310.188 369.859 310.186C370.064 310.184 370.266 310.131 370.446 310.033ZM382.718 293.27C382.536 293.174 382.334 293.123 382.128 293.123C381.923 293.123 381.721 293.174 381.539 293.27L373.442 298.004C373.091 298.205 373.066 298.506 373.367 298.682L381.151 303.19C381.337 303.279 381.54 303.325 381.746 303.325C381.952 303.325 382.156 303.279 382.342 303.19L390.476 298.481C390.815 298.28 390.852 297.966 390.539 297.791L382.718 293.27ZM385.224 291.814L404.127 302.75C404.311 302.843 404.515 302.891 404.722 302.891C404.929 302.891 405.133 302.843 405.317 302.75L413.452 298.042C413.803 297.841 413.828 297.539 413.527 297.364L394.613 286.427C394.431 286.331 394.229 286.28 394.024 286.28C393.818 286.28 393.616 286.331 393.435 286.427L385.3 291.136C384.986 291.337 384.961 291.638 385.224 291.814ZM357.761 307.069L349.614 311.765C349.275 311.966 349.238 312.28 349.551 312.456L357.335 316.951C357.516 317.048 357.719 317.098 357.924 317.098C358.13 317.098 358.332 317.048 358.513 316.951L366.648 312.243C366.999 312.042 367.024 311.74 366.723 311.565L358.939 307.057C358.762 306.968 358.566 306.924 358.368 306.926C358.169 306.928 357.974 306.977 357.799 307.069H357.761ZM268.252 358.825L260.105 363.534C259.766 363.735 259.729 364.049 260.042 364.224L267.826 368.719C268.007 368.816 268.209 368.867 268.415 368.867C268.62 368.867 268.823 368.816 269.004 368.719L277.139 364.011C277.49 363.81 277.515 363.509 277.214 363.333L269.43 358.825C269.254 358.735 269.058 358.688 268.86 358.688C268.662 358.688 268.466 358.735 268.29 358.825H268.252ZM380.348 316.512C380.53 316.608 380.732 316.659 380.938 316.659C381.143 316.659 381.345 316.608 381.527 316.512L389.662 311.803C390.013 311.602 390.038 311.301 389.737 311.113L381.953 306.617C381.772 306.521 381.569 306.47 381.364 306.47C381.158 306.47 380.956 306.521 380.775 306.617L372.627 311.326C372.289 311.527 372.251 311.828 372.565 312.004L380.348 316.512ZM280.172 351.995L272.037 356.691C271.699 356.892 271.661 357.206 272.037 357.381L279.821 361.876C280.003 361.973 280.205 362.024 280.411 362.024C280.616 362.024 280.818 361.973 281 361.876L289.135 357.168C289.486 356.967 289.511 356.666 289.21 356.49L281.426 351.982C281.232 351.881 281.016 351.829 280.798 351.831C280.579 351.833 280.364 351.89 280.172 351.995ZM186.965 428.411C187.15 428.503 187.354 428.552 187.561 428.552C187.768 428.552 187.971 428.503 188.156 428.411L196.291 423.715C196.63 423.514 196.667 423.2 196.291 423.024L188.507 418.529C188.326 418.432 188.123 418.382 187.918 418.382C187.713 418.382 187.51 418.432 187.329 418.529L179.194 423.238C178.843 423.438 178.818 423.74 179.119 423.916L186.965 428.411ZM173.177 413.896L165.005 418.542C164.654 418.73 164.629 419.044 164.93 419.22L172.726 423.727C172.908 423.824 173.11 423.875 173.315 423.875C173.521 423.875 173.723 423.824 173.904 423.727L182.039 419.031C182.39 418.83 182.415 418.517 182.115 418.341L174.331 413.833C174.144 413.744 173.939 413.7 173.732 413.705C173.525 413.709 173.323 413.762 173.14 413.858L173.177 413.896ZM200.089 421.492L208.224 416.784C208.562 416.583 208.6 416.269 208.287 416.093L200.503 411.598C200.321 411.501 200.119 411.451 199.914 411.451C199.708 411.451 199.506 411.501 199.324 411.598L191.19 416.307C190.839 416.508 190.814 416.809 191.114 416.985L198.898 421.492C199.081 421.573 199.28 421.612 199.479 421.605C199.679 421.599 199.874 421.547 200.051 421.455L200.089 421.492ZM211.972 414.612L220.107 409.903C220.458 409.702 220.495 409.401 220.182 409.225L212.36 404.73C212.179 404.633 211.977 404.583 211.771 404.583C211.566 404.583 211.364 404.633 211.182 404.73L203.047 409.439C202.696 409.639 202.659 409.941 202.972 410.117L210.756 414.624C210.941 414.713 211.146 414.755 211.351 414.747C211.557 414.738 211.757 414.678 211.934 414.574L211.972 414.612ZM223.867 407.731L232.002 403.022C232.353 402.822 232.378 402.52 232.077 402.344L224.293 397.837C224.101 397.733 223.885 397.679 223.667 397.679C223.448 397.679 223.233 397.733 223.04 397.837L214.905 402.545C214.566 402.746 214.529 403.06 214.905 403.236L222.689 407.731C222.868 407.816 223.065 407.856 223.264 407.85C223.462 407.843 223.656 407.789 223.83 407.693L223.867 407.731ZM185.01 407.015L176.875 411.724C176.524 411.925 176.499 412.226 176.8 412.402L184.584 416.909C184.777 417.013 184.992 417.067 185.211 417.067C185.429 417.067 185.644 417.013 185.837 416.909L193.972 412.213C194.311 412.012 194.348 411.699 194.035 411.523L186.251 407.028C186.069 406.917 185.862 406.854 185.65 406.845C185.437 406.836 185.225 406.882 185.035 406.978L185.01 407.015ZM196.905 400.135L188.77 404.843C188.419 405.044 188.394 405.345 188.695 405.521L196.479 410.029C196.66 410.125 196.863 410.176 197.068 410.176C197.274 410.176 197.476 410.125 197.657 410.029L205.805 405.32C206.143 405.119 206.181 404.818 205.868 404.63L198.084 400.135C197.908 400.036 197.712 399.981 197.512 399.975C197.311 399.968 197.112 400.01 196.93 400.097L196.905 400.135ZM244.474 372.624L236.339 377.333C235.988 377.534 235.963 377.835 236.264 378.011L244.048 382.518C244.242 382.618 244.457 382.669 244.674 382.669C244.892 382.669 245.107 382.618 245.301 382.518L253.436 377.81C253.775 377.609 253.812 377.295 253.436 377.119L245.652 372.624C245.477 372.526 245.281 372.471 245.08 372.465C244.88 372.458 244.68 372.5 244.499 372.587L244.474 372.624ZM232.579 379.505L224.444 384.214C224.093 384.402 224.068 384.716 224.369 384.892L232.152 389.399C232.337 389.492 232.541 389.54 232.748 389.54C232.955 389.54 233.158 389.492 233.343 389.399L241.478 384.703C241.829 384.502 241.854 384.188 241.553 384.013L233.757 379.518C233.583 379.417 233.387 379.36 233.186 379.352C232.986 379.343 232.786 379.383 232.604 379.467L232.579 379.505ZM256.394 365.693L248.259 370.402C247.908 370.603 247.883 370.904 248.184 371.08L255.968 375.588C256.149 375.684 256.352 375.735 256.557 375.735C256.763 375.735 256.965 375.684 257.146 375.588L265.294 370.879C265.632 370.678 265.67 370.377 265.357 370.201L257.573 365.693C257.39 365.599 257.187 365.55 256.982 365.552C256.776 365.555 256.575 365.607 256.394 365.706V365.693ZM208.826 393.204L200.678 397.912C200.34 398.113 200.302 398.414 200.616 398.603L208.399 403.098C208.581 403.194 208.783 403.245 208.989 403.245C209.194 403.245 209.396 403.194 209.578 403.098L217.713 398.389C218.064 398.188 218.089 397.887 217.788 397.711L210.004 393.204C209.822 393.109 209.619 393.06 209.413 393.063C209.208 393.065 209.006 393.117 208.826 393.216V393.204ZM220.708 386.336L212.573 391.031C212.235 391.232 212.197 391.546 212.573 391.722L220.357 396.217C220.539 396.314 220.741 396.364 220.947 396.364C221.152 396.364 221.354 396.314 221.536 396.217L229.671 391.509C230.022 391.308 230.047 391.006 229.746 390.831L221.962 386.323C221.767 386.223 221.551 386.174 221.332 386.178C221.113 386.182 220.899 386.241 220.708 386.348V386.336ZM205.529 431.098L213.677 426.402C214.015 426.201 214.053 425.887 213.739 425.711L205.98 421.254C205.799 421.157 205.597 421.106 205.391 421.106C205.186 421.106 204.983 421.157 204.802 421.254L196.667 425.962C196.316 426.151 196.279 426.464 196.592 426.64L204.376 431.148C204.558 431.233 204.758 431.272 204.959 431.264C205.159 431.255 205.355 431.198 205.529 431.098ZM142.856 428.134L135.072 423.639C134.891 423.543 134.689 423.492 134.483 423.492C134.278 423.492 134.075 423.543 133.894 423.639L125.759 428.423C125.408 428.624 125.383 428.925 125.684 429.101L133.468 433.609C133.649 433.706 133.852 433.756 134.057 433.756C134.263 433.756 134.465 433.706 134.646 433.609L142.794 428.913C143.094 428.662 143.132 428.348 142.819 428.172L142.856 428.134ZM158.349 432.077L150.565 427.569C150.384 427.473 150.181 427.422 149.976 427.422C149.77 427.422 149.568 427.473 149.387 427.569L136.852 434.814C136.501 435.015 136.476 435.316 136.777 435.492L144.561 440C144.746 440.093 144.95 440.141 145.156 440.141C145.363 440.141 145.567 440.093 145.752 440L158.286 432.755C158.6 432.554 158.625 432.253 158.349 432.077ZM131.224 419.282L123.415 414.775C123.234 414.678 123.032 414.627 122.826 414.627C122.621 414.627 122.418 414.678 122.237 414.775L112.209 420.563C111.858 420.764 111.833 421.065 112.134 421.241L119.918 425.749C120.111 425.852 120.326 425.906 120.545 425.906C120.763 425.906 120.979 425.852 121.172 425.749L131.199 419.948C131.475 419.797 131.513 419.458 131.199 419.282H131.224ZM138.908 414.838C139.089 414.934 139.292 414.985 139.497 414.985C139.703 414.985 139.905 414.934 140.086 414.838L148.221 410.129C148.572 409.928 148.597 409.627 148.296 409.451L140.512 404.943C140.32 404.84 140.104 404.786 139.886 404.786C139.667 404.786 139.452 404.84 139.259 404.943L131.124 409.639C130.786 409.84 130.748 410.154 131.124 410.33L138.908 414.838ZM172.601 436.698L164.817 432.19C164.635 432.093 164.433 432.043 164.228 432.043C164.022 432.043 163.82 432.093 163.639 432.19L147.983 441.243C147.644 441.444 147.607 441.745 147.92 441.933L155.704 446.428C155.886 446.525 156.088 446.576 156.293 446.576C156.499 446.576 156.701 446.525 156.882 446.428L172.501 437.376C172.851 437.175 172.877 436.873 172.576 436.698H172.601ZM178.091 446.378L170.307 441.883C170.114 441.78 169.899 441.726 169.68 441.726C169.462 441.726 169.246 441.78 169.054 441.883L159.026 447.672C158.687 447.872 158.65 448.186 158.963 448.362L166.747 452.857C166.929 452.954 167.131 453.004 167.336 453.004C167.542 453.004 167.744 452.954 167.925 452.857L177.953 447.069C178.404 446.868 178.404 446.567 178.066 446.378H178.091ZM227.289 363.71C227.47 363.806 227.673 363.857 227.878 363.857C228.084 363.857 228.286 363.806 228.467 363.71L236.615 359.001C236.953 358.813 236.991 358.499 236.677 358.323L228.893 353.815C228.712 353.719 228.51 353.668 228.304 353.668C228.099 353.668 227.897 353.719 227.715 353.815L219.58 358.511C219.229 358.712 219.204 359.026 219.505 359.202L227.289 363.71ZM203.473 377.458C203.655 377.555 203.857 377.606 204.063 377.606C204.268 377.606 204.47 377.555 204.652 377.458L212.787 372.75C213.138 372.549 213.163 372.248 212.862 372.072L205.078 367.564C204.893 367.471 204.689 367.423 204.482 367.423C204.276 367.423 204.072 367.471 203.887 367.564L195.752 372.273C195.401 372.474 195.376 372.775 195.677 372.963L203.473 377.458ZM150.828 407.969C151.021 408.073 151.236 408.127 151.455 408.127C151.674 408.127 151.889 408.073 152.082 407.969L160.217 403.274C160.568 403.073 160.593 402.759 160.292 402.583L152.508 398.088C152.317 397.978 152.101 397.92 151.881 397.92C151.661 397.92 151.445 397.978 151.254 398.088L143.12 402.796C142.769 402.985 142.743 403.299 143.044 403.474L150.828 407.969ZM215.469 370.578C215.654 370.67 215.858 370.719 216.064 370.719C216.271 370.719 216.475 370.67 216.66 370.578L224.782 365.806C225.121 365.606 225.158 365.304 224.782 365.128L216.998 360.621C216.815 360.531 216.613 360.484 216.409 360.484C216.205 360.484 216.003 360.531 215.82 360.621L207.685 365.329C207.334 365.53 207.309 365.844 207.61 366.02L215.469 370.578ZM191.653 384.389C191.835 384.486 192.037 384.537 192.242 384.537C192.448 384.537 192.65 384.486 192.832 384.389L200.967 379.618C201.317 379.417 201.343 379.116 201.042 378.927L193.258 374.432C193.065 374.329 192.85 374.275 192.631 374.275C192.412 374.275 192.197 374.329 192.004 374.432L183.869 379.141C183.531 379.342 183.493 379.643 183.869 379.819L191.653 384.389ZM183.932 446.918C183.747 446.825 183.543 446.777 183.337 446.777C183.13 446.777 182.926 446.825 182.741 446.918L170.207 454.163C169.856 454.364 169.831 454.665 170.131 454.841L177.915 459.349C178.097 459.445 178.299 459.496 178.505 459.496C178.71 459.496 178.912 459.445 179.094 459.349L191.628 452.116C191.979 451.915 192.004 451.602 191.703 451.426L183.932 446.918ZM174.581 394.258C174.763 394.355 174.965 394.406 175.17 394.406C175.376 394.406 175.578 394.355 175.76 394.258L183.907 389.55C184.245 389.349 184.283 389.048 183.907 388.872L176.123 384.364C175.942 384.267 175.739 384.217 175.534 384.217C175.328 384.217 175.126 384.267 174.945 384.364L166.81 389.073C166.459 389.274 166.434 389.575 166.735 389.751L174.581 394.258ZM162.686 401.139C162.871 401.232 163.075 401.28 163.281 401.28C163.488 401.28 163.692 401.232 163.877 401.139L172.012 396.431C172.35 396.23 172.388 395.916 172.074 395.74L164.29 391.245C164.109 391.148 163.907 391.098 163.701 391.098C163.496 391.098 163.294 391.148 163.112 391.245L154.952 395.941C154.601 396.142 154.576 396.443 154.877 396.619L162.686 401.139ZM404.252 319.525C404.071 319.428 403.868 319.378 403.663 319.378C403.457 319.378 403.255 319.428 403.074 319.525L383.018 331.102C382.667 331.303 382.642 331.604 382.943 331.792L390.74 336.287C390.921 336.384 391.123 336.435 391.329 336.435C391.534 336.435 391.737 336.384 391.918 336.287L411.973 324.698C412.312 324.497 412.349 324.196 412.036 324.02L404.252 319.525ZM377.929 334.73C377.748 334.634 377.546 334.583 377.34 334.583C377.135 334.583 376.932 334.634 376.751 334.73L368.629 339.439C368.278 339.64 368.24 339.954 368.553 340.129L376.337 344.624C376.519 344.721 376.721 344.772 376.927 344.772C377.132 344.772 377.334 344.721 377.516 344.624L385.651 339.916C386.002 339.715 386.039 339.414 385.726 339.238L377.929 334.73ZM217.424 424.267L225.559 419.559C225.91 419.358 225.935 419.044 225.634 418.868L217.851 414.373C217.669 414.276 217.467 414.226 217.261 414.226C217.056 414.226 216.854 414.276 216.672 414.373L208.525 419.082C208.186 419.282 208.149 419.584 208.462 419.76L216.246 424.267C216.43 424.357 216.631 424.404 216.835 424.404C217.039 424.404 217.241 424.357 217.424 424.267ZM354.151 348.404C353.97 348.307 353.768 348.257 353.562 348.257C353.357 348.257 353.154 348.307 352.973 348.404L344.838 353.112C344.487 353.313 344.462 353.615 344.763 353.79L352.547 358.298C352.732 358.391 352.936 358.439 353.142 358.439C353.349 358.439 353.553 358.391 353.738 358.298L361.873 353.589C362.211 353.389 362.249 353.075 361.935 352.899L354.151 348.404ZM416.122 312.569C415.941 312.472 415.738 312.422 415.533 312.422C415.328 312.422 415.125 312.472 414.944 312.569L406.809 317.278C406.458 317.466 406.433 317.78 406.734 317.956L414.518 322.463C414.699 322.56 414.901 322.61 415.107 322.61C415.312 322.61 415.515 322.56 415.696 322.463L423.843 317.767C424.182 317.566 424.219 317.252 423.906 317.077L416.122 312.569ZM435.801 310.183L416.899 299.26C416.714 299.167 416.511 299.119 416.304 299.119C416.097 299.119 415.893 299.167 415.708 299.26L407.574 303.968C407.235 304.157 407.198 304.47 407.511 304.646L426.413 315.582C426.596 315.672 426.798 315.719 427.002 315.719C427.206 315.719 427.408 315.672 427.591 315.582L435.726 310.874C436.077 310.673 436.102 310.359 435.801 310.183ZM309.716 374.106C309.535 374.009 309.333 373.959 309.127 373.959C308.922 373.959 308.719 374.009 308.538 374.106L298.51 379.894C298.159 380.095 298.134 380.409 298.435 380.585L306.219 385.08C306.401 385.177 306.603 385.227 306.808 385.227C307.014 385.227 307.216 385.177 307.397 385.08L317.425 379.292C317.776 379.091 317.801 378.777 317.5 378.601L309.716 374.106ZM339.799 356.728C339.618 356.632 339.416 356.581 339.21 356.581C339.005 356.581 338.802 356.632 338.621 356.728L326.086 363.973C325.735 364.174 325.71 364.475 326.011 364.651L333.833 369.197C334.019 369.286 334.222 369.332 334.428 369.332C334.634 369.332 334.838 369.286 335.024 369.197L347.558 361.952C347.909 361.751 347.934 361.45 347.633 361.261L339.799 356.728ZM282.215 390.027C282.031 389.934 281.827 389.886 281.62 389.886C281.413 389.886 281.209 389.934 281.025 390.027L214.053 428.75C213.714 428.951 213.677 429.264 214.053 429.44L221.837 433.935C222.018 434.032 222.22 434.083 222.426 434.083C222.631 434.083 222.833 434.032 223.015 433.935L289.987 395.2C290.338 394.999 290.363 394.698 290.062 394.522L282.215 390.027ZM211.483 430.934C211.3 430.845 211.098 430.798 210.894 430.798C210.69 430.798 210.488 430.845 210.305 430.934L200.277 436.735C199.926 436.936 199.889 437.237 200.202 437.413L207.986 441.921C208.169 442.011 208.371 442.057 208.575 442.057C208.779 442.057 208.981 442.011 209.164 441.921L219.192 436.12C219.543 435.919 219.568 435.618 219.267 435.442L211.483 430.934ZM295.941 382.129C295.759 382.033 295.557 381.982 295.352 381.982C295.146 381.982 294.944 382.033 294.763 382.129L284.735 387.93C284.384 388.131 284.359 388.432 284.66 388.608L292.444 393.116C292.628 393.209 292.832 393.257 293.039 393.257C293.246 393.257 293.45 393.209 293.634 393.116L303.662 387.327C304.001 387.127 304.038 386.825 303.725 386.649L295.941 382.129ZM197.67 438.958C197.489 438.861 197.286 438.81 197.081 438.81C196.875 438.81 196.673 438.861 196.492 438.958L186.464 444.746C186.113 444.947 186.088 445.248 186.389 445.424L194.173 449.932C194.358 450.024 194.561 450.073 194.768 450.073C194.975 450.073 195.179 450.024 195.364 449.932L205.391 444.143C205.73 443.942 205.767 443.628 205.454 443.453L197.67 438.958ZM323.479 366.208C323.298 366.112 323.096 366.061 322.89 366.061C322.685 366.061 322.482 366.112 322.301 366.208L312.273 371.997C311.935 372.197 311.897 372.499 312.211 372.675L320.045 377.107C320.226 377.204 320.428 377.254 320.634 377.254C320.839 377.254 321.042 377.204 321.223 377.107L331.251 371.319C331.602 371.118 331.627 370.804 331.326 370.628L323.479 366.208ZM366.097 341.586C365.915 341.489 365.713 341.439 365.508 341.439C365.302 341.439 365.1 341.489 364.918 341.586L356.784 346.294C356.433 346.495 356.408 346.797 356.708 346.972L364.492 351.48C364.674 351.577 364.876 351.627 365.081 351.627C365.287 351.627 365.489 351.577 365.671 351.48L373.818 346.772C374.156 346.571 374.194 346.269 373.881 346.094L366.097 341.586ZM392.745 322.903L400.893 318.194C401.231 317.993 401.269 317.692 400.955 317.516L393.109 313.071C392.927 312.975 392.725 312.924 392.52 312.924C392.314 312.924 392.112 312.975 391.93 313.071L383.796 317.78C383.445 317.981 383.419 318.282 383.72 318.47L391.504 322.965C391.699 323.064 391.915 323.11 392.133 323.099C392.351 323.088 392.562 323.02 392.745 322.903ZM344.224 325.238L352.359 320.53C352.697 320.341 352.735 320.027 352.359 319.851L344.575 315.344C344.394 315.247 344.191 315.197 343.986 315.197C343.78 315.197 343.578 315.247 343.397 315.344L335.262 320.04C334.911 320.241 334.886 320.555 335.186 320.73L342.97 325.225C343.152 325.326 343.356 325.38 343.564 325.382C343.772 325.385 343.977 325.335 344.161 325.238H344.224ZM312.624 369.184L336.44 355.372C336.791 355.172 336.816 354.858 336.515 354.682L328.731 350.187C328.546 350.094 328.343 350.046 328.136 350.046C327.929 350.046 327.725 350.094 327.54 350.187L303.725 363.936C303.374 364.137 303.349 364.45 303.65 364.626L311.434 369.121C311.595 369.222 311.777 369.284 311.966 369.303C312.155 369.323 312.346 369.299 312.524 369.234L312.624 369.184ZM379.672 329.771C379.864 329.874 380.08 329.928 380.298 329.928C380.517 329.928 380.732 329.874 380.925 329.771L389.06 325.062C389.398 324.861 389.436 324.56 389.123 324.372L381.339 319.877C381.157 319.78 380.955 319.729 380.75 319.729C380.544 319.729 380.342 319.78 380.16 319.877L372.026 324.585C371.675 324.786 371.65 325.087 371.95 325.263L379.672 329.771ZM369.732 323.292L377.879 318.596C378.218 318.395 378.255 318.081 377.942 317.905L370.158 313.41C369.977 313.314 369.774 313.263 369.569 313.263C369.363 313.263 369.161 313.314 368.98 313.41L360.845 318.119C360.494 318.32 360.456 318.621 360.77 318.797L368.553 323.304C368.724 323.397 368.913 323.448 369.107 323.454C369.3 323.461 369.493 323.423 369.669 323.342L369.732 323.292ZM300.792 376.027L308.927 371.319C309.265 371.118 309.303 370.816 308.927 370.641L301.143 366.133C300.961 366.036 300.759 365.986 300.554 365.986C300.348 365.986 300.146 366.036 299.964 366.133L291.829 370.841C291.479 371.042 291.453 371.356 291.754 371.532L299.538 376.027C299.71 376.126 299.901 376.185 300.099 376.2C300.296 376.215 300.494 376.186 300.679 376.115L300.792 376.027ZM353.437 344.938C353.62 345.028 353.822 345.075 354.026 345.075C354.23 345.075 354.432 345.028 354.615 344.938L362.75 340.23C363.101 340.029 363.126 339.715 362.825 339.539L355.041 335.044C354.86 334.948 354.658 334.897 354.452 334.897C354.247 334.897 354.044 334.948 353.863 335.044L345.716 339.753C345.377 339.954 345.339 340.255 345.653 340.431L353.437 344.938ZM241.215 410.506L249.35 405.797C249.688 405.596 249.726 405.295 249.413 405.119L241.629 400.612C241.447 400.515 241.245 400.464 241.039 400.464C240.834 400.464 240.632 400.515 240.45 400.612L232.303 405.358C231.952 405.559 231.927 405.86 232.228 406.048L240.012 410.543C240.201 410.633 240.409 410.676 240.618 410.669C240.827 410.662 241.032 410.607 241.215 410.506ZM253.11 403.625L261.245 398.917C261.584 398.716 261.621 398.414 261.245 398.239L253.461 393.731C253.28 393.634 253.078 393.584 252.872 393.584C252.667 393.584 252.464 393.634 252.283 393.731L244.211 398.452C243.86 398.653 243.835 398.967 244.136 399.143L251.919 403.638C252.103 403.735 252.309 403.784 252.516 403.782C252.724 403.78 252.928 403.726 253.11 403.625ZM229.295 417.437L237.43 412.728C237.78 412.527 237.806 412.226 237.505 412.038L229.796 407.492C229.603 407.389 229.388 407.335 229.169 407.335C228.951 407.335 228.735 407.389 228.543 407.492L220.42 412.264C220.082 412.465 220.044 412.766 220.357 412.942L228.141 417.449C228.328 417.536 228.533 417.576 228.738 417.565C228.944 417.554 229.144 417.493 229.32 417.386L229.295 417.437ZM276.863 389.926L284.998 385.218C285.349 385.017 285.374 384.703 285.073 384.527L277.289 380.032C277.105 379.94 276.901 379.891 276.694 379.891C276.487 379.891 276.283 379.94 276.099 380.032L267.964 384.741C267.625 384.942 267.588 385.243 267.901 385.419L275.685 389.926C275.876 390.013 276.084 390.053 276.293 390.044C276.502 390.036 276.706 389.978 276.888 389.876L276.863 389.926ZM264.968 396.795L273.103 392.099C273.454 391.898 273.491 391.584 273.178 391.408L265.394 386.913C265.213 386.816 265.01 386.766 264.805 386.766C264.6 386.766 264.397 386.816 264.216 386.913L256.119 391.609C255.768 391.81 255.73 392.111 256.043 392.287L263.827 396.795C264.011 396.882 264.213 396.922 264.416 396.914C264.619 396.905 264.817 396.847 264.993 396.744L264.968 396.795ZM288.784 383.046L296.919 378.337C297.269 378.136 297.295 377.835 296.994 377.659L289.21 373.152C289.017 373.048 288.802 372.994 288.583 372.994C288.364 372.994 288.149 373.048 287.956 373.152L279.934 377.848C279.596 378.049 279.558 378.35 279.872 378.526L287.655 383.033C287.833 383.116 288.028 383.155 288.224 383.149C288.42 383.142 288.612 383.09 288.784 382.996V383.046ZM353.675 287.357C353.86 287.449 354.064 287.498 354.27 287.498C354.477 287.498 354.681 287.449 354.866 287.357L363.001 282.648C363.352 282.447 363.377 282.146 363.076 281.97L360.995 280.714C360.814 280.618 360.612 280.567 360.406 280.567C360.201 280.567 359.998 280.618 359.817 280.714L351.682 285.448C351.331 285.649 351.306 285.963 351.607 286.139L353.675 287.357ZM294.575 324.849C294.756 324.946 294.958 324.996 295.164 324.996C295.369 324.996 295.571 324.946 295.753 324.849L303.888 320.14C304.239 319.939 304.264 319.638 303.963 319.462L296.229 314.867C296.036 314.763 295.821 314.709 295.602 314.709C295.384 314.709 295.168 314.763 294.976 314.867L286.841 319.575C286.502 319.776 286.465 320.078 286.778 320.266L294.575 324.849ZM318.39 311.1C318.583 311.203 318.798 311.257 319.017 311.257C319.236 311.257 319.451 311.203 319.644 311.1L327.779 306.404C328.117 306.203 328.155 305.889 327.841 305.713L320.057 301.206C319.876 301.109 319.674 301.059 319.468 301.059C319.263 301.059 319.06 301.109 318.879 301.206L310.744 305.914C310.393 306.103 310.368 306.417 310.669 306.592L318.39 311.1ZM280.047 333.161C280.228 333.258 280.431 333.308 280.636 333.308C280.842 333.308 281.044 333.258 281.225 333.161L289.373 328.452C289.711 328.251 289.749 327.95 289.435 327.774L281.651 323.267C281.47 323.17 281.268 323.119 281.062 323.119C280.857 323.119 280.655 323.17 280.473 323.267L272.338 327.975C271.987 328.176 271.962 328.477 272.263 328.653L280.047 333.161ZM306.457 317.88C306.64 317.979 306.845 318.031 307.053 318.031C307.261 318.031 307.465 317.979 307.648 317.88L315.783 313.172C316.121 312.971 316.159 312.669 315.783 312.494L308.062 308.049C307.88 307.952 307.678 307.902 307.473 307.902C307.267 307.902 307.065 307.952 306.883 308.049L298.736 312.732C298.385 312.933 298.36 313.247 298.661 313.423L306.457 317.88ZM256.256 346.972C256.441 347.065 256.645 347.114 256.852 347.114C257.059 347.114 257.262 347.065 257.447 346.972L265.582 342.277C265.933 342.076 265.958 341.762 265.657 341.586L257.873 337.091C257.683 336.981 257.467 336.923 257.247 336.923C257.027 336.923 256.81 336.981 256.62 337.091L248.598 341.774C248.247 341.975 248.222 342.276 248.523 342.452L256.256 346.972ZM268.152 340.092C268.346 340.191 268.561 340.243 268.778 340.243C268.996 340.243 269.211 340.191 269.405 340.092L277.54 335.383C277.879 335.182 277.916 334.881 277.603 334.693L269.819 330.198C269.637 330.101 269.435 330.05 269.23 330.05C269.024 330.05 268.822 330.101 268.641 330.198L260.506 334.906C260.155 335.107 260.13 335.408 260.43 335.584L268.152 340.092ZM329.897 301.08C330.078 301.177 330.281 301.228 330.486 301.228C330.691 301.228 330.894 301.177 331.075 301.08L339.21 296.372C339.561 296.171 339.586 295.87 339.285 295.681L337.217 294.488C337.032 294.396 336.828 294.347 336.622 294.347C336.415 294.347 336.211 294.396 336.026 294.488L327.891 299.197C327.553 299.398 327.515 299.699 327.829 299.875L329.897 301.08ZM365.57 280.426C365.755 280.518 365.959 280.567 366.166 280.567C366.372 280.567 366.576 280.518 366.761 280.426L374.896 275.73C375.234 275.529 375.272 275.215 374.959 275.039L372.89 273.784C372.709 273.687 372.507 273.636 372.301 273.636C372.096 273.636 371.894 273.687 371.712 273.784L363.577 278.492C363.226 278.693 363.189 278.994 363.502 279.17L365.57 280.426ZM381.928 289.88C382.111 289.97 382.313 290.017 382.517 290.017C382.721 290.017 382.923 289.97 383.106 289.88L391.241 285.172C391.592 284.971 391.63 284.657 391.316 284.481L383.532 279.986C383.351 279.889 383.149 279.839 382.943 279.839C382.738 279.839 382.535 279.889 382.354 279.986L374.207 284.695C373.868 284.896 373.831 285.197 374.207 285.373L381.928 289.88ZM404.578 316.009L412.713 311.301C413.064 311.1 413.101 310.799 412.788 310.623L405.004 306.115C404.821 306.025 404.619 305.979 404.415 305.979C404.211 305.979 404.009 306.025 403.826 306.115L395.678 310.824C395.34 311.025 395.302 311.339 395.678 311.514L403.462 316.009C403.635 316.098 403.825 316.145 404.019 316.147C404.212 316.149 404.404 316.106 404.578 316.022V316.009ZM341.792 294.237C341.974 294.334 342.176 294.385 342.381 294.385C342.587 294.385 342.789 294.334 342.97 294.237L351.105 289.529C351.456 289.328 351.481 289.027 351.181 288.851L349.1 287.595C348.919 287.498 348.716 287.448 348.511 287.448C348.305 287.448 348.103 287.498 347.922 287.595L339.787 292.304C339.436 292.505 339.411 292.818 339.711 292.994L341.792 294.237ZM244.374 353.878C244.555 353.975 244.757 354.026 244.963 354.026C245.168 354.026 245.371 353.975 245.552 353.878L253.687 349.17C254.038 348.969 254.063 348.667 253.762 348.492L245.978 343.984C245.793 343.891 245.589 343.843 245.383 343.843C245.176 343.843 244.972 343.891 244.787 343.984L236.652 348.68C236.314 348.881 236.276 349.195 236.59 349.371L244.374 353.878Z" fill="#455A64"/>
<path d="M279.571 415.277L281.238 416.231L325.547 441.858L404.365 396.28L406.007 395.351L360.017 368.757L279.571 415.277Z" fill="#37474F"/>
<path d="M281.238 416.231L325.547 441.858L404.365 396.28L360.017 370.653L281.238 416.231Z" fill="#263238"/>
<path d="M93.8588 397.987C93.1598 398.399 92.374 398.64 91.5649 398.69C90.4114 398.835 89.2411 398.63 88.2057 398.1C87.3833 397.541 86.7056 396.794 86.2283 395.921C85.751 395.048 85.4878 394.073 85.4606 393.078V230.666L90.9507 233.843V396.292C90.9507 397.623 91.6151 398.389 92.5677 398.389C93.0242 398.362 93.4673 398.224 93.8588 397.987Z" fill="#F0F0F0"/>
<path d="M367.676 236.078C367.615 237.084 367.32 238.062 366.815 238.933C366.31 239.805 365.609 240.547 364.768 241.1L93.8588 397.987C92.2543 398.916 90.9382 398.163 90.9382 396.292V214.808L98.9854 210.162C100.59 209.233 103.21 195.095 104.826 194.103L174.506 153.798C176.136 152.869 179.934 163.341 181.538 162.412L367.676 54.5808V236.078Z" fill="#FAFAFA"/>
<path d="M366.297 56.9289V236.078C366.241 236.854 366.011 237.608 365.622 238.282C365.233 238.956 364.697 239.534 364.054 239.97L93.1694 396.82C92.9833 396.946 92.7669 397.02 92.5426 397.033C92.2794 397.033 92.2794 396.33 92.2794 396.292V215.586L99.6623 211.368C100.828 210.69 101.555 208.417 103.184 202.578C103.773 200.076 104.583 197.63 105.604 195.271L174.644 155.267C175.451 156.39 176.184 157.564 176.838 158.783C178.718 162.098 179.771 163.805 181.3 163.805C181.613 163.808 181.92 163.726 182.19 163.567L366.297 56.9289ZM367.676 54.5432L181.538 162.399C181.474 162.439 181.4 162.46 181.325 162.462C179.683 162.462 176.311 153.673 174.732 153.673C174.653 153.676 174.575 153.698 174.506 153.736L104.826 194.103C103.197 195.045 100.59 209.233 98.9854 210.112L90.9382 214.758V396.292C90.9382 397.623 91.6025 398.389 92.5552 398.389C93.0002 398.364 93.4315 398.225 93.8086 397.987L364.68 241.15C365.522 240.598 366.223 239.856 366.727 238.984C367.232 238.112 367.527 237.134 367.588 236.128V54.5809L367.676 54.5432Z" fill="#E0E0E0"/>
<path d="M88.1555 223.811C87.3575 223.257 86.6987 222.526 86.231 221.674C85.7634 220.822 85.4996 219.873 85.4606 218.901V196.012C85.5238 195.003 85.822 194.023 86.3313 193.151C86.8407 192.279 87.547 191.539 88.3937 190.989L359.24 34.0895C360.085 33.5599 361.059 33.2709 362.055 33.2533C363.052 33.2357 364.035 33.4903 364.898 33.9898C365.761 34.4892 366.472 35.2147 366.955 36.0883C367.438 36.9619 367.674 37.9507 367.638 38.9487V61.8006C367.58 62.8073 367.286 63.7863 366.781 64.6586C366.276 65.5309 365.574 66.2723 364.73 66.823L93.8588 223.71C92.9838 224.178 92.0107 224.43 91.0192 224.448C90.0278 224.465 89.0463 224.247 88.1555 223.811Z" fill="#9F854E"/>
<path opacity="0.4" d="M367.676 38.4715C367.476 36.9648 366.247 36.4124 364.793 37.2159L93.8587 194.103C92.9975 194.652 92.2866 195.407 91.7905 196.3L86.3129 193.124C86.8058 192.231 87.5176 191.479 88.3811 190.939L359.253 34.1021C360.06 33.571 360.994 33.2647 361.958 33.2148C362.923 33.1648 363.883 33.373 364.741 33.8179C365.598 34.2627 366.322 34.9283 366.838 35.7462C367.354 36.564 367.643 37.5047 367.676 38.4715Z" fill="white"/>
<path opacity="0.1" d="M91.7906 196.3C91.2655 197.17 90.972 198.16 90.9382 199.176V233.843L85.4481 230.666V196.012C85.4481 195.886 85.4481 195.773 85.4481 195.66C85.4705 195.415 85.5082 195.172 85.5609 194.932C85.7145 194.295 85.9639 193.685 86.3004 193.124L91.7906 196.3Z" fill="black"/>
<path d="M367.676 38.9487V54.5809L181.538 162.399C179.934 163.328 178.63 162.575 178.63 160.704V154.866C178.63 152.995 177.314 152.241 175.697 153.171L104.826 194.103C103.98 194.652 103.273 195.393 102.764 196.265C102.255 197.137 101.957 198.117 101.893 199.125V205.09C101.833 206.096 101.539 207.074 101.034 207.946C100.529 208.818 99.8274 209.56 98.9854 210.112L90.9382 214.758V199.176C91.0019 198.169 91.299 197.191 91.806 196.319C92.3129 195.447 93.0158 194.706 93.8588 194.153L364.73 37.2536C366.335 36.3245 367.676 37.0778 367.676 38.9487Z" fill="#9F854E"/>
<path d="M353.951 48.7549C355.981 47.5746 357.623 48.5289 357.623 50.8769C357.556 52.1547 357.188 53.3984 356.55 54.5068C355.912 55.6153 355.021 56.557 353.951 57.2553C351.92 58.4356 350.266 57.4813 350.266 55.1333C350.335 53.8547 350.706 52.6106 351.346 51.5022C351.986 50.3939 352.879 49.4526 353.951 48.7549Z" fill="white"/>
<path d="M340.714 56.4014C342.745 55.2211 344.387 56.1754 344.387 58.5233C344.317 59.8007 343.949 61.0437 343.311 62.1518C342.673 63.2599 341.783 64.202 340.714 64.9018C338.684 66.0695 337.042 65.1278 337.042 62.7798C337.109 61.502 337.477 60.2583 338.115 59.1499C338.753 58.0414 339.644 57.0997 340.714 56.4014Z" fill="white"/>
<path d="M327.478 64.0357C329.508 62.8679 331.15 63.8222 331.15 66.1702C331.081 67.4475 330.712 68.6905 330.074 69.7986C329.436 70.9067 328.547 71.8488 327.478 72.5486C325.447 73.7163 323.805 72.7621 323.805 70.4141C323.875 69.1368 324.243 67.8937 324.881 66.7856C325.519 65.6775 326.409 64.7355 327.478 64.0357Z" fill="white"/>
<path d="M367.676 54.5808V73.6157L90.9382 233.843V214.808L96.9297 211.368C98.5341 210.426 99.0731 209.007 99.8503 206.345L101.944 199.176C102.583 196.664 103.26 195.032 104.877 194.153L174.556 153.849C176.186 152.919 177.439 152.819 178.68 154.853L181.187 159.398C182.102 160.98 182.566 161.909 184.17 160.98L367.676 54.5808Z" fill="#E6E6E6"/>
<path d="M90.9382 214.808V233.843L85.4481 230.666V211.644L90.9382 214.808Z" fill="#E0E0E0"/>
<path opacity="0.2" d="M104.338 216.176L99.75 218.901L101.505 215.524C101.576 215.399 101.614 215.259 101.614 215.115C101.614 214.972 101.576 214.831 101.505 214.707C101.379 214.544 101.141 214.707 100.991 214.959L98.484 219.742C98.4769 219.801 98.4769 219.86 98.484 219.918C98.4728 220.001 98.4728 220.086 98.484 220.169C98.4698 220.24 98.4698 220.312 98.484 220.383C98.4779 220.416 98.4779 220.45 98.484 220.483L100.991 222.392C101.026 222.415 101.068 222.428 101.11 222.428C101.152 222.428 101.194 222.415 101.229 222.392C101.359 222.31 101.456 222.186 101.505 222.04C101.643 221.726 101.63 221.375 101.505 221.262L99.75 219.906L104.338 217.256C104.456 217.164 104.551 217.046 104.616 216.911C104.681 216.776 104.715 216.628 104.714 216.478C104.714 216.227 104.538 216.063 104.338 216.176Z" fill="black"/>
<path opacity="0.2" d="M108.211 213.967L112.798 211.317L111.044 209.974C110.972 209.855 110.934 209.718 110.934 209.578C110.934 209.439 110.972 209.302 111.044 209.183C111.182 208.869 111.42 208.718 111.57 208.831L114.077 210.752C114.083 210.786 114.083 210.82 114.077 210.853C114.085 210.924 114.085 210.995 114.077 211.066C114.083 211.15 114.083 211.234 114.077 211.317C114.084 211.376 114.084 211.435 114.077 211.493L111.57 216.29C111.51 216.401 111.424 216.495 111.319 216.566C111.282 216.601 111.233 216.621 111.182 216.621C111.13 216.621 111.081 216.601 111.044 216.566C110.977 216.44 110.942 216.3 110.942 216.158C110.942 216.015 110.977 215.875 111.044 215.75L112.798 212.372L108.211 215.134C107.998 215.247 107.835 215.134 107.835 214.77C107.827 214.616 107.857 214.462 107.922 214.321C107.988 214.181 108.087 214.059 108.211 213.967Z" fill="black"/>
<path opacity="0.2" d="M123.252 200.733C123.252 200.456 122.977 200.494 122.864 200.796L122.224 202.34C121.159 202.214 119.855 203.269 118.991 205.127C117.85 207.538 117.85 210.388 118.991 211.481C119.266 211.735 119.622 211.887 119.996 211.91C120.371 211.933 120.741 211.826 121.046 211.606C121.96 210.987 122.674 210.114 123.102 209.095C123.178 208.975 123.218 208.835 123.218 208.693C123.218 208.551 123.178 208.412 123.102 208.291C122.964 208.153 122.726 208.291 122.588 208.593C121.736 210.388 120.357 211.192 119.504 210.376C118.652 209.56 118.665 207.425 119.504 205.63C120.106 204.374 120.984 203.596 121.736 203.545L121.259 204.7C121.134 205.002 121.259 205.291 121.447 205.165L123.315 203.909C123.386 203.845 123.442 203.765 123.479 203.676C123.516 203.587 123.533 203.491 123.528 203.395L123.252 200.733Z" fill="black"/>
<path opacity="0.2" d="M172.501 162.487L174.168 158.946C174.268 158.78 174.322 158.589 174.322 158.394C174.322 158.199 174.268 158.008 174.168 157.841C173.98 157.64 173.654 157.841 173.453 158.256L171.786 161.796L170.119 160.189C169.918 159.988 169.593 160.189 169.392 160.604C169.297 160.77 169.248 160.958 169.248 161.15C169.248 161.341 169.297 161.529 169.392 161.696L171.072 163.316L169.392 166.856C169.298 167.025 169.248 167.215 169.248 167.409C169.248 167.602 169.298 167.793 169.392 167.961C169.443 168.003 169.508 168.026 169.574 168.026C169.64 168.026 169.704 168.003 169.755 167.961C169.916 167.853 170.042 167.7 170.119 167.522L171.786 163.981L173.453 165.588C173.503 165.632 173.568 165.657 173.635 165.657C173.702 165.657 173.766 165.632 173.817 165.588C173.973 165.478 174.095 165.326 174.168 165.149C174.268 164.982 174.322 164.791 174.322 164.596C174.322 164.402 174.268 164.211 174.168 164.044L172.501 162.487Z" fill="black"/>
<path d="M129.294 205.09V199.163C129.359 198.156 129.656 197.179 130.163 196.307C130.67 195.435 131.372 194.694 132.214 194.141L348.285 69.0202C349.902 68.0911 351.206 68.8444 351.206 70.7153V76.6291C351.145 77.6368 350.849 78.6161 350.342 79.4883C349.835 80.3606 349.13 81.1015 348.285 81.6515L132.214 206.785C130.61 207.714 129.294 206.96 129.294 205.09Z" fill="#FAFAFA"/>
<path d="M344.312 82.1538C344.225 82.1742 344.135 82.1742 344.048 82.1538C343.886 82.0802 343.753 81.9526 343.673 81.7925C343.593 81.6324 343.571 81.4496 343.61 81.2749L343.898 78.8642L342.77 78.0606C342.674 77.9809 342.596 77.8812 342.542 77.7685C342.488 77.6558 342.459 77.5327 342.457 77.4077C342.457 77.2105 342.501 77.0158 342.585 76.8378C342.67 76.6597 342.793 76.5027 342.945 76.3781L344.663 75.1225C344.697 75.0818 344.722 75.0349 344.738 74.9844L345.502 72.4732C345.551 72.2672 345.659 72.08 345.812 71.9349C345.966 71.7898 346.159 71.6932 346.367 71.657C346.507 71.6486 346.647 71.6824 346.767 71.754C346.888 71.8256 346.984 71.9318 347.044 72.0588L347.683 73.44L349.137 72.8749C349.267 72.8211 349.411 72.8091 349.548 72.8406C349.685 72.8721 349.809 72.9455 349.902 73.0507C350.036 73.2324 350.109 73.4525 350.109 73.6785C350.109 73.9046 350.036 74.1247 349.902 74.3063L348.649 76.6417C348.642 76.6875 348.642 76.7341 348.649 76.7799L348.937 78.8893C348.962 79.0812 348.942 79.2763 348.879 79.4593C348.815 79.6423 348.711 79.8081 348.573 79.944C348.489 80.0382 348.384 80.1111 348.266 80.1569C348.149 80.2028 348.022 80.2201 347.897 80.2077L346.493 80.0319L344.976 81.9655C344.884 82.0409 344.778 82.0965 344.663 82.129C344.549 82.1614 344.429 82.1698 344.312 82.1538ZM343.484 77.2695L344.6 78.0857C344.722 78.1764 344.815 78.3005 344.869 78.4431C344.922 78.5856 344.933 78.7405 344.901 78.8893L344.713 80.4839L345.728 79.2283C345.816 79.106 345.933 79.0083 346.069 78.9446C346.205 78.8808 346.355 78.8531 346.505 78.8642L347.897 79.0399C347.91 78.9864 347.91 78.9303 347.897 78.8767L347.621 76.7296C347.591 76.4689 347.644 76.2055 347.771 75.9763L348.862 73.9297L347.746 74.3566C347.581 74.4247 347.396 74.4261 347.23 74.3606C347.064 74.295 346.93 74.1676 346.856 74.005L346.342 72.9252L345.665 75.1601C345.594 75.413 345.445 75.637 345.239 75.8005L343.522 77.1314C343.5 77.1745 343.488 77.2215 343.484 77.2695Z" fill="#E0E0E0"/>
<g opacity="0.5">
<path opacity="0.2" d="M354.653 68.3046C354.474 68.3037 354.299 68.2556 354.145 68.1652C353.991 68.0748 353.864 67.9453 353.776 67.7898C353.708 67.6754 353.664 67.5488 353.646 67.4172C353.628 67.2856 353.636 67.1517 353.67 67.0232C353.703 66.8948 353.762 66.7743 353.843 66.6688C353.923 66.5634 354.024 66.4749 354.139 66.4087L362.362 61.6625C362.593 61.5276 362.868 61.4902 363.126 61.5585C363.385 61.6268 363.606 61.7952 363.741 62.0266C363.875 62.2581 363.913 62.5336 363.844 62.7926C363.776 63.0516 363.608 63.2729 363.377 63.4078L355.142 68.2293C354.987 68.292 354.82 68.3178 354.653 68.3046Z" fill="black"/>
<path opacity="0.2" d="M354.653 73.0635C354.474 73.0625 354.299 73.0144 354.145 72.924C353.991 72.8336 353.863 72.7042 353.775 72.5487C353.708 72.4343 353.664 72.3076 353.646 72.176C353.627 72.0444 353.635 71.9105 353.669 71.7821C353.703 71.6536 353.762 71.5332 353.843 71.4277C353.923 71.3222 354.024 71.2338 354.139 71.1675L362.361 66.4088C362.593 66.2915 362.86 66.2674 363.109 66.3415C363.358 66.4156 363.569 66.5821 363.698 66.807C363.828 67.0319 363.867 67.2981 363.808 67.5509C363.748 67.8038 363.594 68.0241 363.377 68.1666L355.142 72.9253C354.992 73.0097 354.824 73.0571 354.653 73.0635Z" fill="black"/>
<path opacity="0.2" d="M354.653 77.8095C354.428 77.816 354.207 77.7467 354.027 77.6126C353.846 77.4786 353.715 77.2875 353.656 77.0702C353.597 76.8529 353.612 76.622 353.7 76.4145C353.787 76.207 353.942 76.0349 354.139 75.9261L362.361 71.1673C362.593 71.0501 362.86 71.026 363.109 71.1C363.358 71.1741 363.569 71.3407 363.698 71.5656C363.828 71.7905 363.867 72.0567 363.808 72.3095C363.748 72.5623 363.594 72.7826 363.377 72.9252L355.141 77.6839C354.991 77.7644 354.823 77.8074 354.653 77.8095Z" fill="black"/>
</g>
<path d="M256.28 182.023C246.009 191.258 237.148 190.765 231.666 186.506C226.117 197.175 217.256 207.912 207.052 210.557L201.1 226.315C201.1 226.315 204.232 229.946 204.232 238.598C204.209 242.23 203.728 245.845 202.8 249.357C201.215 254.576 200.386 259.996 200.339 265.451C200.12 270.425 201.225 275.368 203.539 279.774C205.07 282.452 207.287 284.673 209.961 286.207L201.01 281.074C198.209 279.479 195.89 277.155 194.297 274.35C191.983 269.943 190.879 265.001 191.097 260.027C191.142 254.571 191.971 249.151 193.559 243.933C194.492 240.422 194.981 236.807 195.013 233.174C195.013 224.499 191.858 220.868 191.858 220.868L197.721 205.02C207.969 202.398 216.83 191.572 222.335 180.969C227.862 185.251 236.723 185.744 246.949 176.486L256.28 182.023Z" fill="#9F854E"/>
<path opacity="0.8" d="M225.625 183.032L222.38 181.149C223.373 181.918 224.464 182.551 225.625 183.032Z" fill="white"/>
<path opacity="0.85" d="M247.039 176.688C238.603 184.287 231.107 185.295 225.625 183.031L231.622 186.506C237.149 190.765 246.01 191.258 256.236 182.023L247.039 176.688Z" fill="white"/>
<path opacity="0.65" d="M222.38 181.149C216.831 191.841 207.97 202.577 197.766 205.2L207.008 210.557C217.256 207.912 226.117 197.108 231.622 186.506L222.38 181.149Z" fill="white"/>
<path opacity="0.55" d="M197.721 205.2L191.881 221.047L201.1 226.404L206.962 210.557L197.721 205.2Z" fill="white"/>
<path opacity="0.4" d="M203.539 279.864C201.225 275.458 200.12 270.515 200.339 265.541C200.386 260.086 201.215 254.666 202.8 249.447C203.728 245.935 204.209 242.32 204.232 238.688C204.232 230.036 201.1 226.404 201.1 226.404L191.858 221.047C191.858 221.047 195.013 224.678 195.013 233.353C194.981 236.986 194.492 240.601 193.559 244.112C191.971 249.33 191.142 254.751 191.097 260.206C190.879 265.18 191.983 270.123 194.297 274.529C195.89 277.335 198.209 279.658 201.01 281.253L209.961 286.386C207.275 284.828 205.057 282.575 203.539 279.864Z" fill="white"/>
<path opacity="0.05" d="M203.539 279.864C201.225 275.458 200.12 270.515 200.339 265.541C200.386 260.086 201.215 254.666 202.8 249.447C203.728 245.935 204.209 242.32 204.232 238.688C204.232 230.036 201.1 226.404 201.1 226.404L191.858 221.047C191.858 221.047 195.013 224.678 195.013 233.353C194.981 236.986 194.492 240.601 193.559 244.112C191.971 249.33 191.142 254.751 191.097 260.206C190.879 265.18 191.983 270.123 194.297 274.529C195.89 277.335 198.209 279.658 201.01 281.253L209.961 286.386C207.275 284.828 205.057 282.575 203.539 279.864Z" fill="black"/>
<path d="M231.621 290.735C216.293 290.892 207.522 286.835 203.539 279.864C201.225 275.457 200.12 270.514 200.339 265.54C200.386 260.085 201.215 254.666 202.8 249.447C203.726 245.942 204.207 242.335 204.232 238.71C204.232 230.035 201.1 226.404 201.1 226.404L206.962 210.557C217.211 207.912 226.072 197.108 231.577 186.506C237.104 190.787 245.965 191.258 256.191 182.023L262.053 190.989C260.035 196.062 258.966 201.464 258.898 206.926C258.858 209.976 259.351 213.011 260.353 215.892C262.117 220.085 262.949 224.613 262.792 229.161C262.771 235.277 261.696 241.343 259.614 247.093C255.721 258.973 246.949 273.162 231.621 290.735Z" fill="#9F854E"/>
<path opacity="0.75" d="M231.621 290.735C216.293 290.892 207.522 286.835 203.539 279.864C201.225 275.457 200.12 270.514 200.339 265.54C200.386 260.085 201.215 254.666 202.8 249.447C203.726 245.942 204.207 242.335 204.232 238.71C204.232 230.035 201.1 226.404 201.1 226.404L206.962 210.557C217.211 207.912 226.072 197.108 231.577 186.506C237.104 190.787 245.965 191.258 256.191 182.023L262.053 190.989C260.035 196.062 258.966 201.464 258.898 206.926C258.858 209.976 259.351 213.011 260.353 215.892C262.117 220.085 262.949 224.613 262.792 229.161C262.771 235.277 261.696 241.343 259.614 247.093C255.721 258.973 246.949 273.162 231.621 290.735Z" fill="white"/>
<path d="M229.809 286.835C217.927 286.678 210.252 283.719 206.985 277.869C205.011 274.064 204.092 269.799 204.322 265.518C204.332 260.89 204.995 256.287 206.291 251.845C206.403 251.352 206.537 250.881 206.649 250.388C207.669 246.571 208.195 242.639 208.216 238.688C208.36 234.279 207.431 229.902 205.508 225.934L209.983 213.762C220.97 209.952 228.914 199.081 233.121 191.953C235.382 192.926 237.82 193.422 240.281 193.41C245.752 193.225 251.021 191.293 255.318 187.896L257.556 191.572C255.845 196.543 254.938 201.757 254.871 207.015C254.815 210.554 255.383 214.075 256.549 217.416C256.683 217.752 256.818 218.111 256.929 218.469C258.305 221.929 258.93 225.643 258.764 229.363C258.75 235.058 257.75 240.708 255.811 246.062C252.029 257.494 243.235 271.144 229.809 286.835Z" fill="#9F854E"/>
<path opacity="0.4" d="M229.809 286.835C217.927 286.678 210.252 283.719 206.985 277.869C205.011 274.064 204.092 269.799 204.322 265.518C204.332 260.89 204.995 256.287 206.291 251.845C206.403 251.352 206.537 250.881 206.649 250.388C207.669 246.571 208.195 242.639 208.216 238.688C208.36 234.279 207.431 229.902 205.508 225.934L209.983 213.762C220.97 209.952 228.914 199.081 233.121 191.953C235.382 192.926 237.82 193.422 240.281 193.41C245.752 193.225 251.021 191.293 255.318 187.896L257.556 191.572C255.845 196.543 254.938 201.757 254.871 207.015C254.815 210.554 255.383 214.075 256.549 217.416C256.683 217.752 256.818 218.111 256.929 218.469C258.305 221.929 258.93 225.643 258.764 229.363C258.75 235.058 257.75 240.708 255.811 246.062C252.029 257.494 243.235 271.144 229.809 286.835Z" fill="white"/>
<path opacity="0.15" d="M229.809 286.835C217.927 286.678 210.252 283.719 206.985 277.869C205.011 274.064 204.092 269.799 204.322 265.518C204.332 260.89 204.995 256.287 206.291 251.845C206.403 251.352 206.537 250.881 206.649 250.388C207.669 246.571 208.195 242.639 208.216 238.688C208.36 234.279 207.431 229.902 205.508 225.934L209.983 213.762C220.97 209.952 228.914 199.081 233.121 191.953C235.382 192.926 237.82 193.422 240.281 193.41C245.752 193.225 251.021 191.293 255.318 187.896L257.556 191.572C255.845 196.543 254.938 201.757 254.871 207.015C254.815 210.554 255.383 214.075 256.549 217.416C256.683 217.752 256.818 218.111 256.929 218.469C258.305 221.929 258.93 225.643 258.764 229.363C258.75 235.058 257.75 240.708 255.811 246.062C252.029 257.494 243.235 271.144 229.809 286.835Z" fill="black"/>
<path opacity="0.8" d="M209.714 281.186C213.765 284.75 220.478 286.633 229.853 286.745L223.901 283.338C219.086 283.416 214.291 282.689 209.714 281.186Z" fill="white"/>
<path opacity="0.15" d="M254.602 189.801L257.713 191.572L255.341 187.918L253.998 188.859L254.602 189.801Z" fill="black"/>
<path d="M253.595 215.645C252.429 212.304 251.861 208.783 251.917 205.245C251.974 199.985 252.881 194.77 254.602 189.801L253.998 188.859C249.975 191.674 245.21 193.233 240.304 193.342C237.842 193.355 235.405 192.859 233.143 191.885C228.936 199.013 220.993 209.817 210.006 213.695L205.53 225.866C207.453 229.834 208.383 234.212 208.238 238.62C208.218 242.572 207.691 246.504 206.672 250.321C206.672 250.814 206.426 251.285 206.314 251.778C205.018 256.22 204.355 260.823 204.345 265.451C204.114 269.732 205.034 273.997 207.007 277.802C207.984 279.466 209.303 280.903 210.878 282.016C215.912 284.03 221.302 284.999 226.721 284.862C240.147 269.284 248.941 255.723 252.857 244.202C254.804 238.849 255.811 233.199 255.833 227.503C255.988 223.783 255.363 220.072 253.998 216.609C253.842 216.34 253.707 215.981 253.595 215.645Z" fill="#455A64"/>
<path d="M210.006 213.785L205.53 225.956C207.453 229.924 208.383 234.302 208.238 238.71C208.218 242.661 207.691 246.594 206.672 250.411C206.672 250.904 206.426 251.375 206.314 251.868C205.018 256.31 204.355 260.913 204.345 265.541C204.114 269.822 205.034 274.087 207.007 277.891C207.984 279.556 209.303 280.993 210.878 282.105C215.912 284.12 221.302 285.089 226.721 284.952V240.122L233.166 238.172V191.975C231.261 195.21 229.106 198.29 226.721 201.188C222.385 206.819 216.609 211.172 210.006 213.785Z" fill="#37474F"/>
<path d="M242.228 223.558C242.159 223.43 242.076 223.309 241.982 223.199C241.794 222.994 241.575 222.82 241.333 222.684L239.095 221.428C238.707 221.218 238.293 221.06 237.864 220.958L237.081 220.845V214.457C237.195 213.109 236.948 211.754 236.366 210.533C235.784 209.312 234.888 208.268 233.77 207.509C232.674 206.929 231.441 206.664 230.204 206.743C228.968 206.822 227.778 207.242 226.766 207.957C224.323 209.586 222.305 211.777 220.881 214.347C219.456 216.916 218.666 219.79 218.576 222.728V230.26L214.28 232.725L213.921 232.972H213.81C213.629 233.114 213.482 233.294 213.377 233.499C213.273 233.705 213.214 233.93 213.205 234.16V259.982C213.195 260.094 213.195 260.206 213.205 260.318C213.352 260.754 213.644 261.127 214.033 261.372L214.257 261.528L215.309 262.134L216.428 262.761C216.849 263.008 217.311 263.175 217.793 263.254C219.115 263.554 220.501 263.38 221.709 262.761L241.243 251.554C241.543 251.418 241.802 251.206 241.995 250.938C242.187 250.671 242.306 250.358 242.34 250.03V224.073C242.333 223.896 242.295 223.722 242.228 223.558ZM222.805 222.684C222.883 220.471 223.473 218.306 224.529 216.361C225.585 214.416 227.079 212.743 228.891 211.476C229.281 211.178 229.739 210.981 230.223 210.903C230.707 210.825 231.203 210.868 231.666 211.028C232.121 211.436 232.469 211.95 232.68 212.525C232.89 213.099 232.957 213.716 232.874 214.323V221.854L227.325 225.059L222.85 227.682L222.805 222.684Z" fill="#263238"/>
<path d="M244.645 225.306C244.616 224.977 244.499 224.661 244.306 224.393C244.113 224.125 243.851 223.913 243.549 223.782L241.311 222.526C240.491 222.118 239.587 221.905 238.671 221.905C237.754 221.905 236.851 222.118 236.03 222.526L216.495 233.734C216.194 233.868 215.934 234.079 215.741 234.347C215.548 234.615 215.43 234.929 215.399 235.258V261.102C215.428 261.432 215.545 261.747 215.738 262.015C215.931 262.284 216.193 262.495 216.495 262.627L218.733 263.882C219.554 264.301 220.463 264.52 221.385 264.52C222.306 264.52 223.215 264.301 224.036 263.882L243.549 252.674C243.851 252.543 244.113 252.331 244.306 252.063C244.499 251.795 244.616 251.48 244.645 251.15V225.306Z" fill="#9F854E"/>
<path opacity="0.4" d="M218.733 238.127L216.495 236.894C216.182 236.779 215.911 236.569 215.72 236.295C215.529 236.02 215.426 235.694 215.426 235.359C215.426 235.024 215.529 234.697 215.72 234.423C215.911 234.148 216.182 233.939 216.495 233.823L236.03 222.616C236.85 222.207 237.754 221.995 238.671 221.995C239.587 221.995 240.491 222.207 241.311 222.616L243.549 223.871C243.876 223.97 244.163 224.171 244.366 224.446C244.57 224.72 244.68 225.053 244.68 225.395C244.68 225.738 244.57 226.071 244.366 226.345C244.163 226.62 243.876 226.821 243.549 226.92L224.036 238.127C223.215 238.546 222.306 238.765 221.385 238.765C220.463 238.765 219.554 238.546 218.733 238.127Z" fill="white"/>
<path opacity="0.1" d="M221.396 238.755V264.599C220.469 264.621 219.553 264.405 218.733 263.972L216.495 262.716C216.191 262.587 215.928 262.376 215.735 262.107C215.542 261.839 215.426 261.522 215.399 261.192V235.281C215.426 235.613 215.543 235.932 215.736 236.204C215.928 236.476 216.191 236.692 216.495 236.827L218.733 238.06C219.546 238.516 220.463 238.756 221.396 238.755Z" fill="black"/>
<path d="M235.605 251.554L230.928 254.244L231.644 245.793C231.327 245.559 231.077 245.245 230.92 244.883C230.763 244.52 230.704 244.123 230.749 243.731C230.761 242.784 230.994 241.853 231.43 241.013C231.865 240.172 232.49 239.445 233.256 238.889C234.665 238.105 235.784 238.889 235.784 240.817C235.753 241.918 235.437 242.992 234.867 243.933L235.605 251.554Z" fill="#455A64"/>
<path d="M235.605 251.531L231.375 249.11L230.928 254.243L235.605 251.531Z" fill="#37474F"/>
<path d="M233.255 238.889C232.214 239.572 231.427 240.581 231.018 241.758L234.777 244C235.347 243.059 235.664 241.985 235.694 240.884C235.784 238.956 234.665 238.105 233.255 238.889Z" fill="#37474F"/>
<path d="M239.364 225.889V215.555C239.483 214.206 239.238 212.85 238.655 211.628C238.073 210.406 237.174 209.363 236.053 208.607C234.962 208.028 233.734 207.762 232.502 207.837C231.27 207.912 230.083 208.326 229.071 209.033C226.624 210.659 224.602 212.849 223.174 215.419C221.745 217.989 220.951 220.864 220.859 223.804V234.205C220.879 234.389 220.948 234.565 221.058 234.715C221.168 234.864 221.315 234.982 221.485 235.056C221.947 235.289 222.457 235.41 222.973 235.41C223.49 235.41 224 235.289 224.461 235.056C224.634 234.986 224.785 234.87 224.895 234.719C225.006 234.569 225.073 234.391 225.088 234.205V223.804C225.183 221.61 225.781 219.468 226.836 217.544C227.892 215.619 229.377 213.965 231.174 212.709C231.564 212.411 232.022 212.214 232.506 212.136C232.99 212.058 233.486 212.1 233.949 212.26C234.406 212.668 234.755 213.181 234.966 213.756C235.176 214.331 235.242 214.949 235.157 215.555V225.889C235.173 226.075 235.24 226.253 235.35 226.403C235.461 226.554 235.611 226.67 235.784 226.74C236.246 226.973 236.755 227.094 237.272 227.094C237.789 227.094 238.298 226.973 238.76 226.74C238.929 226.667 239.074 226.549 239.181 226.399C239.287 226.249 239.351 226.072 239.364 225.889Z" fill="#E0E0E0"/>
<path d="M458.138 190.444C458.02 190.382 457.924 190.286 457.863 190.167L454.39 177.511V174.196L464.594 170.203V173.506L463.34 177.084L469.407 173.581L469.77 175.628L466.16 194.097C466.122 194.203 466.061 194.298 465.982 194.378C465.903 194.457 465.808 194.519 465.704 194.558C465.599 194.597 465.487 194.614 465.375 194.606C465.264 194.598 465.155 194.566 465.057 194.512L458.138 190.444Z" fill="#9F854E"/>
<path opacity="0.3" d="M458.138 190.444C458.02 190.382 457.924 190.286 457.863 190.167L454.39 177.511V174.196L464.594 170.203V173.506L463.34 177.084L469.407 173.581L469.77 175.628L466.16 194.097C466.122 194.203 466.061 194.298 465.982 194.378C465.903 194.457 465.808 194.519 465.704 194.558C465.599 194.597 465.487 194.614 465.375 194.606C465.264 194.598 465.155 194.566 465.057 194.512L458.138 190.444Z" fill="black"/>
<path d="M469.432 173.581L469.795 175.627L466.185 194.097C466.138 194.235 466.053 194.355 465.939 194.445C465.825 194.535 465.687 194.59 465.543 194.603C465.399 194.616 465.253 194.587 465.125 194.52C464.997 194.452 464.89 194.349 464.819 194.223L460.896 180.775L461.347 178.264L469.432 173.581Z" fill="#9F854E"/>
<path d="M491.831 105.666C491.768 104.519 491.437 103.403 490.865 102.409C490.292 101.414 489.494 100.569 488.535 99.94C487.511 99.4204 486.379 99.1497 485.232 99.1497C484.084 99.1497 482.953 99.4204 481.929 99.94L433.947 127.4C432.987 128.028 432.189 128.874 431.616 129.869C431.044 130.863 430.713 131.979 430.65 133.125V186.966C430.711 188.114 431.041 189.232 431.614 190.229C432.186 191.226 432.986 192.074 433.947 192.704C434.97 193.223 436.102 193.494 437.249 193.494C438.397 193.494 439.529 193.223 440.552 192.704L488.835 165.081C491.806 163.385 491.831 161.678 491.831 159.568V105.666Z" fill="#9F854E"/>
<path opacity="0.2" d="M430.713 186.966C430.773 188.114 431.104 189.232 431.676 190.229C432.249 191.226 433.048 192.074 434.009 192.704C434.94 193.174 435.959 193.441 437.001 193.489C438.042 193.536 439.081 193.363 440.051 192.98C438.497 193.57 437.318 192.679 437.318 190.783V136.943C437.355 135.793 437.687 134.673 438.284 133.691L431.678 129.924C431.082 130.906 430.749 132.027 430.713 133.176V186.966Z" fill="black"/>
<path opacity="0.5" d="M491.731 104.686C491.342 103.28 490.064 102.841 488.535 103.719L440.552 131.179C439.566 131.794 438.761 132.661 438.221 133.691L431.628 129.924C432.175 128.903 432.973 128.038 433.947 127.413L481.916 99.9527C482.944 99.4387 484.077 99.1711 485.225 99.1711C486.374 99.1711 487.507 99.4387 488.535 99.9527C489.357 100.486 490.065 101.18 490.614 101.993C491.163 102.807 491.543 103.723 491.731 104.686Z" fill="white"/>
<path d="M449.966 144.564C449.95 143.695 450.134 142.835 450.504 142.049C450.873 141.263 451.418 140.572 452.097 140.031C453.287 139.353 454.24 140.27 454.24 142.09C454.258 142.961 454.074 143.823 453.702 144.61C453.33 145.397 452.78 146.086 452.097 146.623C450.918 147.301 449.966 146.385 449.966 144.564ZM446.757 146.523C446.757 150.089 447.835 152.637 449.527 153.705H449.627L449.815 153.818L450.028 153.906L450.241 153.993L450.505 154.069H450.705C451.169 154.157 451.645 154.157 452.109 154.069C452.262 154.047 452.413 154.014 452.56 153.968C452.727 153.925 452.89 153.871 453.049 153.805C453.361 153.686 453.662 153.544 453.952 153.378C456.321 151.997 458.427 149.021 459.755 145.531C459.755 145.443 459.818 145.355 459.843 145.267C460.146 144.447 460.397 143.608 460.595 142.756L464.581 140.458L465.371 137.156L467.752 135.775L469.683 137.495L471.224 136.603L472.628 134.205L475.072 132.736L476 133.854L478.758 132.247L481.565 126.32V123.219L460.921 135.159C460.777 134.378 460.533 133.618 460.194 132.899L460.006 132.548C459.868 132.309 459.73 132.096 459.58 131.882C459.429 131.669 459.429 131.694 459.342 131.606L459.141 131.38H459.066C458.917 131.221 458.748 131.082 458.564 130.966C458.477 130.89 458.376 130.84 458.289 130.777H458.163C457.493 130.46 456.751 130.324 456.012 130.384C455.273 130.443 454.563 130.696 453.952 131.116C450.555 133.088 447.684 138.349 446.92 143.672C446.796 144.617 446.742 145.57 446.757 146.523Z" fill="#FAFAFA"/>
<path d="M441.668 182.534C441.681 182.365 441.706 182.197 441.743 182.031L444.714 168.458L441.693 170.204C441.543 170.291 441.43 170.204 441.367 170.141C441.286 169.89 441.252 169.626 441.267 169.362V168.998C441.259 168.698 441.293 168.398 441.367 168.107C441.417 167.924 441.533 167.768 441.693 167.667L446.556 164.855C446.632 164.855 446.719 164.993 446.82 165.407C446.924 165.783 446.979 166.172 446.983 166.562C446.995 166.662 446.995 166.764 446.983 166.864L443.799 181.278C443.757 181.462 443.666 181.631 443.536 181.768C443.372 181.931 443.186 182.07 442.984 182.182L442.47 182.483C441.994 182.835 441.668 182.847 441.668 182.534Z" fill="#455A64"/>
<path d="M448.838 178.415C448.852 178.245 448.881 178.077 448.925 177.913L451.884 164.352L448.863 166.098C448.725 166.186 448.612 166.161 448.549 166.022C448.461 165.777 448.427 165.516 448.449 165.256V164.88C448.435 164.583 448.469 164.287 448.549 164.001C448.595 163.817 448.707 163.656 448.863 163.549L453.739 160.736C453.814 160.736 453.902 160.925 454.002 161.301C454.096 161.675 454.147 162.059 454.152 162.444C454.166 162.544 454.166 162.645 454.152 162.745L450.994 177.172C450.952 177.356 450.861 177.525 450.73 177.662C450.57 177.82 450.389 177.956 450.191 178.064L449.665 178.365C449.113 178.679 448.838 178.691 448.838 178.415Z" fill="#455A64"/>
<path d="M456.208 174.247C455.732 174.247 455.493 173.983 455.493 173.543C455.51 173.309 455.552 173.078 455.619 172.853C455.701 172.536 455.805 172.225 455.932 171.924C455.983 171.718 456.097 171.533 456.258 171.396C456.358 171.382 456.459 171.382 456.559 171.396C456.758 171.429 456.961 171.429 457.161 171.396C457.431 171.357 457.691 171.263 457.925 171.12C458.329 170.859 458.634 170.47 458.79 170.015C459.012 169.435 459.118 168.816 459.103 168.195C459.164 167.634 459.05 167.068 458.778 166.575C458.564 166.299 458.201 166.299 457.7 166.575L456.371 167.341C456.17 167.458 456.032 167.458 455.957 167.341C455.858 167.152 455.819 166.937 455.844 166.725L456.12 160.121C456.117 159.857 456.173 159.595 456.283 159.355C456.373 159.163 456.523 159.004 456.709 158.903L460.47 156.731C460.62 156.643 460.733 156.731 460.796 156.794C460.877 157.045 460.911 157.309 460.896 157.572V158.15C460.903 158.396 460.87 158.643 460.796 158.878C460.738 159.043 460.622 159.182 460.47 159.267L457.963 160.686L457.825 163.875L458.038 163.762C459.053 163.172 459.83 163.097 460.369 163.524C460.908 163.951 461.172 165.056 461.172 166.813C461.227 167.882 461.099 168.952 460.796 169.977C460.514 170.799 460.089 171.564 459.542 172.238C459.11 172.791 458.578 173.26 457.975 173.619C457.457 173.991 456.844 174.208 456.208 174.247Z" fill="#455A64"/>
<path d="M462.676 165.922C462.593 165.671 462.559 165.407 462.576 165.143V164.955C462.568 164.659 462.602 164.363 462.676 164.076C462.694 163.985 462.732 163.899 462.786 163.823C462.84 163.747 462.909 163.684 462.989 163.637L465.396 162.243C465.534 162.155 465.646 162.18 465.709 162.318C465.791 162.569 465.825 162.833 465.809 163.097V163.247C465.817 163.544 465.783 163.839 465.709 164.126C465.688 164.217 465.65 164.302 465.596 164.377C465.542 164.453 465.474 164.517 465.396 164.566L462.989 165.96C462.839 166.085 462.738 166.06 462.676 165.922Z" fill="#455A64"/>
<path d="M467.063 167.579C466.986 167.199 466.944 166.812 466.938 166.424C466.914 166.308 466.914 166.189 466.938 166.073L470.009 157.409C470.178 156.941 470.321 156.463 470.435 155.978C470.516 155.628 470.558 155.27 470.56 154.91C470.56 154.408 470.46 154.082 470.259 153.943C470.059 153.805 469.783 153.843 469.444 154.031C469.196 154.181 468.976 154.372 468.793 154.596C468.57 154.863 468.365 155.144 468.178 155.438C468.082 155.614 467.959 155.775 467.815 155.915C467.602 156.04 467.414 155.915 467.251 155.714C467.088 155.468 467 155.18 467 154.885C467.05 154.151 467.356 153.458 467.865 152.926C468.397 152.268 469.042 151.711 469.77 151.282C470.698 150.738 471.412 150.687 471.914 151.131C472.203 151.464 472.42 151.854 472.552 152.275C472.683 152.696 472.726 153.14 472.678 153.579C472.647 154.869 472.393 156.144 471.926 157.346L469.482 164.302L472.315 162.657C472.478 162.569 472.578 162.657 472.641 162.733C472.729 162.978 472.763 163.239 472.741 163.499V163.875C472.755 164.172 472.721 164.468 472.641 164.754C472.621 164.848 472.581 164.937 472.525 165.015C472.469 165.092 472.398 165.158 472.315 165.206L467.301 168.119C467.201 168.169 467.063 167.994 467.063 167.579Z" fill="#455A64"/>
<path d="M474.935 161.866C474.358 160.137 474.116 158.313 474.22 156.492C474.169 154.41 474.41 152.33 474.935 150.315C475.208 148.986 475.985 147.816 477.103 147.05C478.068 146.485 478.795 146.749 479.271 147.816C479.847 149.537 480.09 151.353 479.986 153.165C480.036 155.247 479.796 157.327 479.271 159.342C478.996 160.674 478.22 161.847 477.103 162.62C476.125 163.185 475.411 162.934 474.935 161.866ZM477.517 159.418C477.66 158.868 477.74 158.303 477.755 157.735C477.755 156.957 477.83 155.852 477.83 154.408C477.83 152.964 477.83 151.897 477.755 151.169C477.753 150.69 477.672 150.215 477.517 149.762C477.416 149.549 477.279 149.486 477.103 149.599C476.884 149.755 476.732 149.988 476.677 150.252C476.546 150.804 476.466 151.367 476.439 151.934C476.439 152.713 476.364 153.83 476.364 155.262C476.364 156.693 476.364 157.773 476.439 158.501C476.454 158.979 476.534 159.452 476.677 159.908C476.777 160.121 476.928 160.184 477.103 160.083C477.316 159.918 477.462 159.682 477.517 159.418Z" fill="#455A64"/>
<path d="M482.869 159.104C482.501 159.225 482.109 159.251 481.728 159.179C481.415 159.104 481.265 158.853 481.265 158.426C481.279 158.197 481.317 157.969 481.377 157.748C481.448 157.45 481.536 157.157 481.641 156.869C481.69 156.676 481.8 156.505 481.954 156.379C482.052 156.347 482.157 156.347 482.255 156.379C482.466 156.45 482.685 156.492 482.907 156.505C483.161 156.486 483.406 156.404 483.621 156.266C484.046 156.007 484.379 155.62 484.574 155.161C484.82 154.609 484.94 154.008 484.925 153.404C484.987 152.89 484.858 152.371 484.561 151.947C484.31 151.721 483.922 151.771 483.37 152.085L482.881 152.361C482.731 152.449 482.618 152.424 482.556 152.299C482.474 152.048 482.44 151.784 482.455 151.52V151.143C482.448 150.847 482.482 150.551 482.556 150.265C482.601 150.077 482.718 149.915 482.881 149.813L483.245 149.599C483.673 149.349 484.018 148.978 484.235 148.532C484.483 148.064 484.608 147.542 484.599 147.013C484.638 146.613 484.546 146.212 484.335 145.87C484.16 145.669 483.897 145.656 483.558 145.87C483.328 145.992 483.123 146.158 482.957 146.36C482.801 146.541 482.658 146.734 482.531 146.937C482.46 147.07 482.367 147.189 482.255 147.289C482.117 147.377 481.966 147.289 481.804 146.962C481.645 146.682 481.559 146.367 481.553 146.046C481.599 145.442 481.862 144.876 482.292 144.451C482.797 143.875 483.395 143.387 484.06 143.007C484.874 142.543 485.514 142.517 486.003 142.919C486.278 143.242 486.484 143.618 486.607 144.024C486.73 144.431 486.768 144.858 486.717 145.28C486.721 146.01 486.602 146.736 486.366 147.427C486.16 148.077 485.832 148.682 485.401 149.21V149.298C485.664 149.293 485.923 149.366 486.145 149.506C486.368 149.647 486.545 149.849 486.654 150.089C486.961 150.766 487.103 151.506 487.068 152.248C487.086 153.574 486.807 154.887 486.253 156.091C485.819 157.128 485.074 158.005 484.122 158.602C483.724 158.813 483.303 158.982 482.869 159.104Z" fill="#455A64"/>
</g>
<defs>
<clipPath id="clip0_690_2744">
<rect width="594" height="583" fill="white"/>
</clipPath>
</defs>
</svg>
