<svg width="345" height="140" viewBox="0 0 345 140" fill="none" xmlns="http://www.w3.org/2000/svg">
<g clip-path="url(#clip0_1_12169)">
<rect width="1920" height="960" fill="white"/>
<rect width="345" height="140" fill="#F5F3ED"/>
<path d="M130.982 83V56.8182H148.854V61.9574H137.31V67.3267H147.716V72.4787H137.31V83H130.982ZM157.259 83.3324C156.006 83.3324 154.894 83.1236 153.923 82.706C152.96 82.2798 152.197 81.6406 151.634 80.7884C151.08 79.9276 150.803 78.8494 150.803 77.554C150.803 76.4631 150.995 75.5426 151.379 74.7926C151.762 74.0426 152.29 73.4332 152.964 72.9645C153.637 72.4957 154.413 72.142 155.29 71.9034C156.168 71.6562 157.106 71.4901 158.103 71.4048C159.219 71.3026 160.119 71.196 160.8 71.0852C161.482 70.9659 161.977 70.7997 162.283 70.5866C162.599 70.3651 162.756 70.054 162.756 69.6534V69.5895C162.756 68.9332 162.531 68.4261 162.079 68.0682C161.627 67.7102 161.018 67.5312 160.251 67.5312C159.424 67.5312 158.759 67.7102 158.256 68.0682C157.754 68.4261 157.434 68.9205 157.298 69.5511L151.532 69.3466C151.702 68.1534 152.141 67.0881 152.849 66.1506C153.565 65.2045 154.545 64.4631 155.789 63.9261C157.042 63.3807 158.546 63.108 160.302 63.108C161.555 63.108 162.71 63.2571 163.766 63.5554C164.823 63.8452 165.744 64.2713 166.528 64.8338C167.312 65.3878 167.917 66.0696 168.343 66.8793C168.778 67.6889 168.995 68.6136 168.995 69.6534V83H163.114V80.2642H162.961C162.612 80.929 162.164 81.4915 161.619 81.9517C161.082 82.4119 160.447 82.7571 159.714 82.9872C158.989 83.2173 158.171 83.3324 157.259 83.3324ZM159.19 79.2415C159.863 79.2415 160.468 79.1051 161.005 78.8324C161.55 78.5597 161.985 78.1847 162.309 77.7074C162.633 77.2216 162.795 76.6591 162.795 76.0199V74.1534C162.616 74.2472 162.398 74.3324 162.143 74.4091C161.896 74.4858 161.623 74.5582 161.325 74.6264C161.026 74.6946 160.719 74.7543 160.404 74.8054C160.089 74.8565 159.786 74.9034 159.496 74.946C158.908 75.0398 158.406 75.1847 157.988 75.3807C157.579 75.5767 157.263 75.8324 157.042 76.1477C156.829 76.4545 156.722 76.821 156.722 77.2472C156.722 77.8949 156.952 78.3892 157.413 78.7301C157.881 79.071 158.474 79.2415 159.19 79.2415ZM181.984 83.3707C179.913 83.3707 178.136 82.9446 176.653 82.0923C175.178 81.2401 174.045 80.0554 173.252 78.5384C172.46 77.0128 172.063 75.2486 172.063 73.2457C172.063 71.2344 172.46 69.4702 173.252 67.9531C174.053 66.4276 175.191 65.2386 176.665 64.3864C178.148 63.5341 179.917 63.108 181.971 63.108C183.786 63.108 185.367 63.4361 186.714 64.0923C188.069 64.7486 189.126 65.6776 189.884 66.8793C190.651 68.0724 191.056 69.4744 191.099 71.0852H185.256C185.137 70.0795 184.796 69.2912 184.234 68.7202C183.68 68.1491 182.955 67.8636 182.06 67.8636C181.336 67.8636 180.701 68.0682 180.156 68.4773C179.61 68.8778 179.184 69.4744 178.877 70.267C178.579 71.0511 178.43 72.0227 178.43 73.1818C178.43 74.3409 178.579 75.321 178.877 76.1222C179.184 76.9148 179.61 77.5156 180.156 77.9247C180.701 78.3253 181.336 78.5256 182.06 78.5256C182.64 78.5256 183.151 78.402 183.594 78.1548C184.046 77.9077 184.417 77.5455 184.707 77.0682C184.996 76.5824 185.18 75.9943 185.256 75.304H191.099C191.039 76.9233 190.634 78.3381 189.884 79.5483C189.143 80.7585 188.099 81.7003 186.752 82.3736C185.414 83.0384 183.825 83.3707 181.984 83.3707ZM203.477 83.3707C201.423 83.3707 199.65 82.9659 198.159 82.1562C196.676 81.3381 195.534 80.1747 194.733 78.6662C193.94 77.1491 193.544 75.3466 193.544 73.2585C193.544 71.2301 193.944 69.4574 194.745 67.9403C195.547 66.4148 196.676 65.2301 198.133 64.3864C199.591 63.5341 201.308 63.108 203.285 63.108C204.683 63.108 205.961 63.3253 207.12 63.7599C208.279 64.1946 209.281 64.8381 210.125 65.6903C210.968 66.5426 211.625 67.5952 212.093 68.848C212.562 70.0923 212.797 71.5199 212.797 73.1307V74.6903H195.73V71.0597H206.98C206.971 70.3949 206.814 69.8026 206.507 69.2827C206.2 68.7628 205.778 68.358 205.241 68.0682C204.713 67.7699 204.103 67.6207 203.413 67.6207C202.714 67.6207 202.088 67.7784 201.534 68.0938C200.98 68.4006 200.541 68.8224 200.217 69.3594C199.893 69.8878 199.723 70.4886 199.706 71.1619V74.8565C199.706 75.6577 199.863 76.3608 200.179 76.9659C200.494 77.5625 200.941 78.027 201.521 78.3594C202.1 78.6918 202.791 78.858 203.592 78.858C204.146 78.858 204.649 78.7812 205.1 78.6278C205.552 78.4744 205.94 78.2486 206.264 77.9503C206.588 77.652 206.831 77.2855 206.993 76.8509L212.733 77.017C212.494 78.304 211.97 79.4247 211.16 80.3793C210.359 81.3253 209.306 82.0625 208.002 82.5909C206.699 83.1108 205.19 83.3707 203.477 83.3707ZM215.989 83V56.8182H222.241V66.7259H222.369C222.624 66.1293 222.987 65.554 223.455 65C223.933 64.446 224.538 63.9943 225.271 63.6449C226.012 63.2869 226.898 63.108 227.93 63.108C229.293 63.108 230.567 63.4659 231.752 64.1818C232.945 64.8977 233.908 66.0014 234.641 67.4929C235.374 68.9844 235.741 70.8849 235.741 73.1946C235.741 75.419 235.387 77.2812 234.68 78.7812C233.981 80.2812 233.035 81.4062 231.842 82.1562C230.657 82.9062 229.34 83.2812 227.891 83.2812C226.903 83.2812 226.046 83.1193 225.322 82.7955C224.597 82.4716 223.988 82.0455 223.494 81.517C223.008 80.9886 222.633 80.4219 222.369 79.8168H222.177V83H215.989ZM222.113 73.1818C222.113 74.2386 222.254 75.1591 222.535 75.9432C222.825 76.7273 223.238 77.3366 223.775 77.7713C224.32 78.1974 224.972 78.4105 225.731 78.4105C226.498 78.4105 227.15 78.1974 227.687 77.7713C228.224 77.3366 228.629 76.7273 228.901 75.9432C229.183 75.1591 229.323 74.2386 229.323 73.1818C229.323 72.125 229.183 71.2088 228.901 70.4332C228.629 69.6577 228.224 69.0568 227.687 68.6307C227.158 68.2045 226.506 67.9915 225.731 67.9915C224.964 67.9915 224.312 68.2003 223.775 68.6179C223.238 69.0355 222.825 69.6321 222.535 70.4077C222.254 71.1832 222.113 72.108 222.113 73.1818ZM248.183 83.3707C246.12 83.3707 244.348 82.9489 242.865 82.1051C241.39 81.2528 240.252 80.0682 239.451 78.5511C238.659 77.0256 238.262 75.2571 238.262 73.2457C238.262 71.2259 238.659 69.4574 239.451 67.9403C240.252 66.4148 241.39 65.2301 242.865 64.3864C244.348 63.5341 246.12 63.108 248.183 63.108C250.245 63.108 252.014 63.5341 253.488 64.3864C254.971 65.2301 256.109 66.4148 256.902 67.9403C257.703 69.4574 258.103 71.2259 258.103 73.2457C258.103 75.2571 257.703 77.0256 256.902 78.5511C256.109 80.0682 254.971 81.2528 253.488 82.1051C252.014 82.9489 250.245 83.3707 248.183 83.3707ZM248.221 78.6534C248.971 78.6534 249.606 78.4233 250.126 77.9631C250.646 77.5028 251.042 76.8636 251.315 76.0455C251.596 75.2273 251.737 74.2812 251.737 73.2074C251.737 72.1165 251.596 71.1619 251.315 70.3438C251.042 69.5256 250.646 68.8864 250.126 68.4261C249.606 67.9659 248.971 67.7358 248.221 67.7358C247.446 67.7358 246.789 67.9659 246.252 68.4261C245.724 68.8864 245.319 69.5256 245.038 70.3438C244.765 71.1619 244.629 72.1165 244.629 73.2074C244.629 74.2812 244.765 75.2273 245.038 76.0455C245.319 76.8636 245.724 77.5028 246.252 77.9631C246.789 78.4233 247.446 78.6534 248.221 78.6534ZM270.472 83.3707C268.409 83.3707 266.637 82.9489 265.154 82.1051C263.679 81.2528 262.542 80.0682 261.74 78.5511C260.948 77.0256 260.551 75.2571 260.551 73.2457C260.551 71.2259 260.948 69.4574 261.74 67.9403C262.542 66.4148 263.679 65.2301 265.154 64.3864C266.637 63.5341 268.409 63.108 270.472 63.108C272.534 63.108 274.303 63.5341 275.777 64.3864C277.26 65.2301 278.398 66.4148 279.191 67.9403C279.992 69.4574 280.392 71.2259 280.392 73.2457C280.392 75.2571 279.992 77.0256 279.191 78.5511C278.398 80.0682 277.26 81.2528 275.777 82.1051C274.303 82.9489 272.534 83.3707 270.472 83.3707ZM270.51 78.6534C271.26 78.6534 271.895 78.4233 272.415 77.9631C272.935 77.5028 273.331 76.8636 273.604 76.0455C273.885 75.2273 274.026 74.2812 274.026 73.2074C274.026 72.1165 273.885 71.1619 273.604 70.3438C273.331 69.5256 272.935 68.8864 272.415 68.4261C271.895 67.9659 271.26 67.7358 270.51 67.7358C269.735 67.7358 269.078 67.9659 268.542 68.4261C268.013 68.8864 267.608 69.5256 267.327 70.3438C267.054 71.1619 266.918 72.1165 266.918 73.2074C266.918 74.2812 267.054 75.2273 267.327 76.0455C267.608 76.8636 268.013 77.5028 268.542 77.9631C269.078 78.4233 269.735 78.6534 270.51 78.6534ZM289.233 77.848L289.258 70.3949H290.127L295.65 63.3636H302.733L294.525 73.4375H292.876L289.233 77.848ZM283.595 83V56.8182H289.846V83H283.595ZM295.791 83L290.652 74.8438L294.768 70.4077L303.014 83H295.791Z" fill="black"/>
<path d="M106 70.1947C106 52.4097 91.6774 38 74 38C56.3226 38 42 52.4097 42 70.1947C42 86.2635 53.7019 99.5828 69 102V79.5013H60.871V70.1947H69V63.1015C69 55.0333 73.7742 50.5767 81.0865 50.5767C84.5884 50.5767 88.2503 51.205 88.2503 51.205V59.1239H84.2142C80.24 59.1239 79 61.606 79 64.1517V70.1947H87.8748L86.4555 79.5013H79V102C94.2981 99.5828 106 86.2635 106 70.1947Z" fill="#0861F2"/>
</g>
<defs>
<clipPath id="clip0_1_12169">
<rect width="345" height="140" fill="white"/>
</clipPath>
</defs>
</svg>
