<svg width="171" height="114" viewBox="0 0 171 114" fill="none" xmlns="http://www.w3.org/2000/svg">
<g clip-path="url(#clip0_704_8976)">
<path d="M54.2624 10.6143L55.3352 11.5593C55.753 11.8817 56.0601 12.3249 56.2145 12.8281C56.7434 12.206 57.0524 11.4281 57.0938 10.6143C57.0931 10.2407 57.0146 9.8713 56.8632 9.52943C56.7119 9.18755 56.491 8.8806 56.2145 8.62792C58.0786 6.51907 59.0019 4.47148 59.0019 2.50265C59.0019 0.840075 58.4479 0.00878906 57.3312 0.00878906C56.2145 0.00878906 54.6405 0.70882 52.9962 2.10013C51.3519 3.49144 50.5253 4.7865 50.5253 5.9503C50.5253 6.84284 51.3343 8.10873 52.9522 9.74797C52.6357 10.0105 51.1233 10.973 48.415 12.6356C46.0233 14.1115 44.8274 14.9399 44.8274 15.1207C45.9969 14.8057 47.2103 14.5344 48.4062 14.0882C50.5549 13.2954 52.5397 12.118 54.2624 10.6143ZM53.2688 4.43648C53.4623 4.13637 53.7358 3.89564 54.0587 3.74114C54.3817 3.58663 54.7414 3.52442 55.0978 3.56144C56.2145 3.56144 57.2785 3.96396 56.7685 4.70775L54.7373 7.24536C54.6581 7.1141 54.2536 6.65033 53.5854 5.80154C53.3743 5.57403 53.0226 4.874 53.2688 4.43648Z" fill="#9F854E"/>
<path d="M61.3672 66.8442V56.1863H111.198V14.4819L101.525 15.777V46.0883H95.9946V19.9859L85.8385 21.2897V46.0883H80.3076V24.1074L70.1604 25.4024V46.0883H61.3672V18.0871H51.2551V62.2503C51.0871 62.7076 50.7671 63.0941 50.348 63.3455C49.929 63.597 49.4362 63.6984 48.9513 63.6328H43.8513V73.2583H50.3055C57.6741 73.2583 61.3614 71.1203 61.3672 66.8442Z" fill="#424C61"/>
<path d="M96.1353 72.3307C86.964 70.9656 77.8719 70.5806 68.9469 73.8183C67.4609 74.3608 66.0012 75.0083 64.5503 75.6296C64.4171 75.6858 64.2972 75.7692 64.1986 75.8746C67.584 75.2008 71.154 74.247 74.7504 73.827C82.3652 72.952 89.8921 74.282 97.4191 75.2358C105.948 76.3209 114.487 77.3972 123.025 75.4371C131.106 73.5908 136.592 68.7518 138.791 60.2639C138.862 59.9999 138.912 59.7307 138.94 59.4589C138.936 59.2842 138.909 59.1108 138.861 58.9426C138.748 59.085 138.648 59.2373 138.562 59.3976C135.221 69.0231 128.063 72.9782 118.795 73.8095C111.189 74.5008 103.697 73.4508 96.1353 72.3307Z" fill="#424C61"/>
<path d="M110.732 84.3274C101.279 81.2298 91.7211 78.5871 81.8289 77.6859C74.2756 76.9858 66.7662 77.2483 59.7317 80.6435C57.585 81.7113 55.5722 83.0271 53.7348 84.5637C51.959 86.1925 50.2824 87.9252 48.7139 89.7526C41.5212 80.696 31.6817 77.3008 20.9716 76.3208C24.7527 77.9046 28.7623 79.3747 32.5961 81.2385C37.6295 83.5754 41.9501 87.1987 45.1176 91.739C46.2607 93.4103 50.9298 93.7603 52.3543 92.1765C61.3233 82.1923 72.5785 80.5997 84.7394 82.9011C94.0074 84.6512 103.143 87.145 112.385 89.0264C120.633 90.7764 128.969 91.7477 137.314 89.7614C140.33 88.9519 143.271 87.8893 146.107 86.585C134.042 90.3739 122.339 88.1251 110.732 84.3274Z" fill="#9F854E"/>
<path d="M0 81.1511C18.8349 80.6173 21.3233 81.2736 40.2462 91.6516C29.7384 79.8736 12.495 75.8046 0 81.1511Z" fill="#424C61"/>
<path d="M156.869 19.4958C151.066 18.8745 143.363 22.3047 138.615 26.1024C139.142 24.9648 143.636 20.6334 143.979 19.6183C134.218 22.1209 124.801 25.5248 120.519 38.6592C120.466 36.0778 121.767 33.9865 121.187 32.5339C115.032 40.8643 112.71 49.3696 115.911 59.1176C119.129 48.7308 129.101 49.9997 136.628 45.5457C134.262 45.5457 131.739 43.9094 129.329 43.7956C132.171 43.6792 135.017 43.8228 137.832 44.2244C143.108 44.7669 146.159 41.9493 149.105 39.2017C149.404 38.9042 149.65 38.5629 150.099 38.1429C147.25 37.9591 143.064 37.9941 140.242 37.8191C143.142 37.2753 146.084 36.9825 149.035 36.9441C149.351 36.9441 150.204 36.8916 152.244 36.7078C155.155 36.4278 157.608 33.8639 160.404 31.6588C156.738 30.7838 152.622 30.6876 149.571 30.3288C153.368 29.5824 157.243 29.3119 161.108 29.5238C164.625 29.83 166.867 29.8475 171 26.7499C167.414 22.5992 162.347 19.998 156.869 19.4958Z" fill="#9F854E"/>
<path d="M92.0465 10.6143L93.1456 11.5593C93.5626 11.8825 93.8695 12.3254 94.0249 12.8281C94.5544 12.2063 94.8635 11.4283 94.9043 10.6143C94.9019 10.2409 94.8227 9.87204 94.6715 9.53039C94.5202 9.18874 94.3002 8.88159 94.0249 8.62792C95.8774 6.52199 96.8065 4.48024 96.8124 2.50265C96.8124 0.840075 96.2584 0.00878906 95.1417 0.00878906C93.893 0.00878906 92.4451 0.705903 90.7979 2.10013C89.1506 3.49436 88.3299 4.77775 88.3358 5.9503C88.3358 6.84284 89.1448 8.10873 90.7627 9.74797C90.4461 10.0105 88.9337 10.973 86.2254 12.6356C83.8337 14.1057 82.5939 14.9282 82.5939 15.1207C83.7546 14.8057 84.9768 14.5344 86.1727 14.0882C88.3271 13.2963 90.3178 12.1189 92.0465 10.6143ZM91.0617 4.43648C91.2523 4.13563 91.5239 3.8941 91.8457 3.7394C92.1675 3.58469 92.5265 3.52303 92.8818 3.56144C93.9986 3.56144 95.0625 3.96396 94.5613 4.70775L92.5301 7.24536C92.4422 7.1141 92.0465 6.65033 91.3694 5.80154C91.1584 5.57403 90.8154 4.874 91.0617 4.43648Z" fill="#9F854E"/>
<path d="M129.294 55.3724C126.656 62.9327 121.029 66.0653 113.73 66.7478C107.733 67.2904 101.798 66.4678 95.8891 65.584C88.6699 64.5077 81.5123 64.2015 74.4866 66.7566C73.3171 67.1854 72.174 67.6929 70.9694 68.1742C70.8649 68.2208 70.7719 68.2895 70.6968 68.3754C73.3347 67.8416 76.1749 67.0891 79.0239 66.7566C85.012 66.0566 90.9386 67.1241 96.8651 67.8766C103.574 68.7517 110.292 69.5655 117.01 68.0254C123.376 66.5728 127.703 62.7752 129.426 56.0811C129.481 55.874 129.522 55.6635 129.549 55.4511C129.539 55.3149 129.516 55.18 129.479 55.0486C129.405 55.1493 129.343 55.2579 129.294 55.3724Z" fill="#9F854E"/>
<path d="M28.4282 67.5092L32.772 63.1428L28.4282 58.7676L24.0316 63.1428L28.4282 67.5092Z" fill="#9F854E"/>
<path d="M16.9444 73.2582H38.1534V63.6328H33.3524L28.5073 68.673L23.4161 63.6415C20.6609 63.3207 18.9668 62.4077 18.3337 60.9027C18.9404 59.3713 20.488 58.6013 22.9501 58.6013H39.0679V26.9599C39.0679 20.2571 36.1368 16.9028 30.2748 16.897H14.1921V26.4961H23.3897C27.1004 26.4961 28.9558 28.0245 28.9558 31.0813V48.5034H16.0299C10.795 48.8184 8.18055 51.7352 8.18641 57.2537V63.1603C8.18641 69.8922 11.1057 73.2582 16.9444 73.2582Z" fill="#424C61"/>
<path d="M10.0769 106.615C10.079 106.702 10.0629 106.79 10.0297 106.871C9.99638 106.952 9.94661 107.026 9.88347 107.087C9.82353 107.15 9.75111 107.199 9.67086 107.232C9.59062 107.266 9.5043 107.282 9.41743 107.28H5.6188C5.46445 107.268 5.32003 107.2 5.21432 107.087C5.15117 107.026 5.10141 106.952 5.06812 106.871C5.03484 106.79 5.01875 106.702 5.02087 106.615V103.911L2.85776 104.716V106.72C2.81835 107.117 2.87075 107.519 3.01094 107.894C3.15114 108.268 3.37543 108.606 3.66673 108.881C4.46872 109.375 5.40896 109.599 6.34863 109.52H8.73157C9.65563 109.592 10.5789 109.371 11.3695 108.89C11.6636 108.614 11.8903 108.276 12.0321 107.899C12.1739 107.523 12.2269 107.12 12.1873 106.72V102.625H10.0769V106.615Z" fill="#424C61"/>
<path d="M7.52693 102.528L8.42383 103.368L9.80435 102.082L8.42383 100.796L7.52693 101.627L6.63883 100.796L5.24951 102.082L6.63883 103.368L7.52693 102.528Z" fill="#9F854E"/>
<path d="M8.6964 100.139L7.50933 99.0544L6.34863 100.139L7.50933 101.233L8.6964 100.139Z" fill="#9F854E"/>
<path d="M25.0604 106.938C25.0675 106.987 25.064 107.036 25.0504 107.082C25.0367 107.129 25.0132 107.173 24.9813 107.21C24.885 107.263 24.7749 107.288 24.6647 107.28H23.4952C23.3771 107.287 23.2593 107.262 23.1541 107.208C23.0489 107.154 22.9602 107.073 22.8973 106.973C22.7272 106.655 22.5972 106.317 22.5104 105.967C22.364 105.019 21.9595 104.13 21.3409 103.394C21.0475 103.111 20.6985 102.891 20.3157 102.748C19.9329 102.605 19.5246 102.542 19.1163 102.563C18.5354 102.565 17.9578 102.65 17.4016 102.817L16.4607 105.249C17.1568 104.958 17.8967 104.784 18.6502 104.733C18.8653 104.714 19.082 104.739 19.2875 104.805C19.4929 104.871 19.6829 104.978 19.8461 105.118C20.1609 105.495 20.3702 105.948 20.4528 106.431C20.4462 106.471 20.4462 106.513 20.4528 106.553C20.5495 106.947 20.6111 107.175 20.6375 107.245H15.5902C15.4772 107.254 15.3639 107.23 15.2649 107.175C15.2294 107.131 15.2032 107.08 15.1881 107.026C15.173 106.972 15.1692 106.915 15.1769 106.86V99.2817L13.0138 100.078V107.078C12.9666 107.41 12.9976 107.747 13.1043 108.064C13.211 108.381 13.3906 108.67 13.6287 108.906C13.8668 109.142 14.1569 109.319 14.476 109.424C14.7952 109.53 15.1345 109.559 15.4671 109.511H24.779C25.109 109.553 25.4443 109.519 25.7588 109.411C26.0734 109.304 26.3587 109.125 26.5926 108.89C26.8266 108.654 27.0028 108.369 27.1077 108.054C27.2125 107.74 27.2431 107.406 27.1971 107.078V102.624L25.034 103.429L25.0604 106.938Z" fill="#424C61"/>
<path d="M24.058 111.384L25.4209 112.661L26.8102 111.384L25.4209 110.097L24.058 111.384Z" fill="#9F854E"/>
<path d="M32.6225 106.466C32.6313 106.578 32.6145 106.69 32.5734 106.795C32.5323 106.899 32.4679 106.993 32.3851 107.07C32.2306 107.207 32.0298 107.282 31.8223 107.28C32.0132 106.914 32.081 106.497 32.0158 106.09C31.9111 105.405 31.7251 104.735 31.4618 104.095L30.2484 100.988L28.2523 101.749L29.6944 105.425C29.8214 105.718 29.8872 106.033 29.8879 106.352C29.8941 106.53 29.8579 106.707 29.7823 106.868C29.7222 106.992 29.6236 107.094 29.501 107.157C29.4105 107.209 29.3127 107.248 29.2108 107.271H28.9646H28.2172V109.502H31.7344C32.5518 109.575 33.3705 109.378 34.0646 108.942C34.3211 108.707 34.519 108.415 34.6427 108.09C34.7663 107.765 34.8122 107.415 34.7768 107.07V99.3081L32.6137 100.104L32.6225 106.466Z" fill="#424C61"/>
<path d="M31.3036 99.2994H30.3803C30.0374 99.2994 29.8615 99.1856 29.8615 98.9406C29.8615 98.6956 30.0374 98.5731 30.3803 98.5731H31.3036V97.4443H30.1605C29.9607 97.4335 29.7611 97.4681 29.5768 97.5454C29.3925 97.6227 29.2282 97.7408 29.0965 97.8906C28.8413 98.1809 28.7035 98.555 28.7096 98.9406C28.6924 99.0596 28.6924 99.1804 28.7096 99.2994H28.182V100.454H31.2684L31.3036 99.2994Z" fill="#9F854E"/>
<path d="M35.5506 109.782L37.7313 108.969V99.3169L35.5506 100.113V109.782Z" fill="#424C61"/>
<path d="M39.8417 103.386C39.3847 103.737 39.0247 104.197 38.7953 104.725C38.5604 105.254 38.4405 105.826 38.4436 106.405C38.4141 106.831 38.4773 107.259 38.6291 107.66C38.7808 108.06 39.0175 108.423 39.3229 108.723C40.0378 109.294 40.941 109.578 41.8553 109.52H42.2862C42.1313 109.846 41.92 110.142 41.6619 110.395C41.4316 110.624 41.1782 110.829 40.9057 111.007C40.677 111.156 40.3693 111.322 40.0264 111.515L41.9696 112.67C42.8497 112.202 43.5692 111.483 44.036 110.605C44.4372 109.601 44.62 108.525 44.5724 107.446V102.624C42.4796 102.327 40.9057 102.563 39.8417 103.386ZM42.3917 107.28H41.8729C41.562 107.296 41.2539 107.213 40.9936 107.043C40.8812 106.942 40.7946 106.815 40.7411 106.673C40.6876 106.532 40.6687 106.38 40.6858 106.23C40.6802 106.037 40.7184 105.846 40.7976 105.67C40.8768 105.494 40.9949 105.339 41.1431 105.215C41.5007 104.931 41.9432 104.774 42.4005 104.768L42.3917 107.28Z" fill="#424C61"/>
<path d="M54.6493 106.615C54.6514 106.702 54.6354 106.79 54.6021 106.871C54.5688 106.952 54.519 107.026 54.4559 107.087C54.3959 107.15 54.3235 107.199 54.2433 107.232C54.163 107.266 54.0767 107.282 53.9898 107.28H50.1912C50.1072 107.28 50.0241 107.263 49.947 107.23C49.8699 107.197 49.8004 107.148 49.7428 107.087C49.6796 107.026 49.6299 106.952 49.5966 106.871C49.5633 106.79 49.5472 106.702 49.5493 106.615V103.911L47.3862 104.716V106.72C47.3468 107.117 47.3992 107.519 47.5394 107.894C47.6796 108.268 47.9039 108.606 48.1952 108.881C48.9847 109.366 49.9081 109.589 50.8331 109.52H53.3128C54.2368 109.592 55.1601 109.371 55.9507 108.89C56.2448 108.614 56.4715 108.276 56.6133 107.899C56.7551 107.523 56.8081 107.12 56.7685 106.72V102.625H54.6493V106.615Z" fill="#424C61"/>
<path d="M52.0993 102.528L52.9962 103.368L54.3767 102.082L52.9962 100.796L52.0993 101.627L51.2112 100.796L49.8219 102.082L51.2112 103.368L52.0993 102.528Z" fill="#9F854E"/>
<path d="M68.3314 106.921C68.3433 107.023 68.3184 107.125 68.2611 107.21C68.1685 107.265 68.0608 107.289 67.9533 107.28H67.5225V103.097L65.3593 103.911V106.921C65.3667 106.972 65.3635 107.024 65.3499 107.074C65.3363 107.123 65.3125 107.17 65.2802 107.21C65.1854 107.267 65.0741 107.292 64.9637 107.28H64.524C64.5295 107.213 64.5295 107.145 64.524 107.078V103.097L62.3609 103.911V106.921C62.3609 107.07 62.3609 107.166 62.2905 107.21C62.1923 107.267 62.0784 107.291 61.9652 107.28H60.1626C60.0496 107.289 59.9363 107.265 59.8373 107.21C59.8017 107.166 59.7756 107.115 59.7605 107.061C59.7454 107.007 59.7416 106.95 59.7493 106.895V99.3169L57.5862 100.113V107.113C57.539 107.445 57.57 107.782 57.6767 108.099C57.7834 108.417 57.963 108.705 58.2011 108.941C58.4392 109.177 58.7293 109.355 59.0484 109.46C59.3675 109.565 59.7069 109.594 60.0395 109.546H62.0883C62.4747 109.582 62.8639 109.52 63.2203 109.367C63.5767 109.214 63.8889 108.975 64.1283 108.671V109.546H65.078C65.4631 109.581 65.8508 109.519 66.2056 109.366C66.5604 109.213 66.8711 108.974 67.1092 108.671V109.546H68.05C68.383 109.594 68.7225 109.564 69.0419 109.459C69.3613 109.354 69.6519 109.177 69.8906 108.941C70.1293 108.705 70.3097 108.417 70.4176 108.1C70.5254 107.783 70.5578 107.445 70.5121 107.113V102.625L68.3314 103.43V106.921Z" fill="#424C61"/>
<path d="M73.4578 99.3169L71.2771 100.113V109.782L73.4578 108.969V99.3169Z" fill="#424C61"/>
<path d="M74.7768 107.428C74.7768 107.875 74.7768 108.216 74.7768 108.444C74.7768 108.671 74.7768 108.951 74.6976 109.275C74.6613 109.546 74.5874 109.811 74.4778 110.062C74.3558 110.289 74.2115 110.503 74.0469 110.701C73.8441 110.94 73.6139 111.154 73.3611 111.34L75.1197 112.696C75.7954 112.207 76.317 111.536 76.6233 110.762C76.9085 109.619 77.0241 108.439 76.9663 107.262V102.625L74.8032 103.5L74.7768 107.428Z" fill="#424C61"/>
<path d="M91.2287 106.895C91.2353 106.951 91.2301 107.008 91.2135 107.062C91.1968 107.117 91.1691 107.167 91.132 107.21C91.0363 107.265 90.9257 107.289 90.8155 107.28H88.9337V99.3169L86.7706 100.113V106.466C86.7706 107.008 86.4775 107.28 85.8913 107.28H84.2734V106.125C84.3404 105.239 84.1349 104.354 83.6842 103.587C83.2824 103.047 82.6876 102.68 82.0223 102.563C81.069 102.445 80.101 102.556 79.1997 102.887V105.022C79.9041 104.734 80.6794 104.664 81.4244 104.821C81.8816 104.987 82.1103 105.416 82.1103 106.081V107.28H78.1973V109.511H85.9353C87.2543 109.511 88.1248 109.231 88.5732 108.636V109.511H90.9737C91.3074 109.56 91.6479 109.532 91.9685 109.427C92.289 109.323 92.5807 109.146 92.8205 108.91C93.0603 108.674 93.2415 108.385 93.3498 108.067C93.4582 107.75 93.4906 107.411 93.4446 107.078V99.3169L91.2815 100.113L91.2287 106.895Z" fill="#424C61"/>
<path d="M104.331 107.28C104.213 107.285 104.096 107.259 103.992 107.203C103.888 107.148 103.802 107.065 103.741 106.965C103.569 106.651 103.441 106.316 103.363 105.967C103.208 105.018 102.801 104.127 102.185 103.386C101.892 103.105 101.544 102.888 101.163 102.746C100.781 102.605 100.375 102.543 99.9691 102.563C99.3735 102.56 98.7808 102.646 98.2105 102.817L97.3136 105.25C98.0067 104.958 98.7436 104.784 99.4943 104.733C99.7094 104.714 99.9263 104.738 100.132 104.804C100.337 104.87 100.527 104.977 100.69 105.118C101.005 105.495 101.214 105.948 101.297 106.431C101.302 106.472 101.302 106.513 101.297 106.553C101.376 106.868 101.446 107.096 101.499 107.245H99.4415C98.9908 107.232 98.542 107.308 98.1209 107.469C97.6999 107.63 97.315 107.872 96.9882 108.181C96.6663 108.48 96.412 108.844 96.2422 109.248C96.0724 109.652 95.991 110.088 96.0034 110.526C95.9846 110.997 96.072 111.466 96.2592 111.899C96.4463 112.332 96.7285 112.718 97.085 113.029C97.9031 113.702 98.9437 114.048 100.004 114H100.18L100.857 111.769H99.9779C99.5447 111.778 99.1168 111.672 98.7381 111.462C98.5795 111.378 98.4473 111.251 98.3558 111.097C98.2644 110.943 98.2171 110.766 98.2193 110.587C98.2138 110.441 98.2427 110.295 98.3037 110.161C98.3648 110.027 98.4563 109.91 98.571 109.817C98.8233 109.626 99.133 109.524 99.4503 109.528H104.058L104.753 107.297L104.331 107.28Z" fill="#424C61"/>
<path d="M101.262 111.384L102.633 112.661L104.005 111.384L102.633 110.097L101.262 111.384Z" fill="#9F854E"/>
<path d="M107.408 99.5968C107.283 99.5962 107.16 99.6207 107.045 99.6688C106.93 99.7169 106.826 99.7877 106.74 99.8768C106.648 99.9684 106.575 100.078 106.527 100.198C106.478 100.318 106.455 100.447 106.458 100.577C106.45 100.701 106.469 100.825 106.513 100.941C106.557 101.057 106.625 101.163 106.713 101.251H106.335H106.133H106.01V101.364L105.931 101.767V101.898H106.063H106.318H106.634C106.967 101.934 107.304 101.87 107.6 101.714C107.896 101.558 108.139 101.317 108.296 101.023C108.38 100.88 108.426 100.717 108.428 100.551C108.431 100.289 108.33 100.038 108.147 99.8506C108.049 99.7581 107.933 99.6876 107.805 99.6438C107.678 99.6 107.542 99.584 107.408 99.5968ZM107.206 100.349C107.23 100.32 107.261 100.295 107.296 100.279C107.331 100.262 107.369 100.253 107.408 100.253C107.448 100.253 107.488 100.262 107.524 100.279C107.56 100.295 107.593 100.319 107.619 100.349C107.675 100.412 107.706 100.493 107.707 100.577C107.703 100.657 107.672 100.734 107.619 100.796C107.592 100.825 107.56 100.847 107.523 100.862C107.487 100.878 107.448 100.885 107.408 100.883C107.37 100.885 107.332 100.877 107.297 100.862C107.262 100.847 107.231 100.824 107.206 100.796C107.149 100.737 107.118 100.658 107.118 100.577C107.117 100.534 107.126 100.492 107.142 100.453C107.159 100.414 107.184 100.379 107.215 100.349H107.206Z" fill="#9F854E"/>
<path d="M115.366 99.877C115.279 99.7878 115.175 99.7171 115.061 99.6689C114.946 99.6208 114.822 99.5963 114.698 99.5969C114.572 99.5961 114.447 99.6205 114.331 99.6686C114.214 99.7167 114.109 99.7876 114.021 99.877C113.838 100.064 113.736 100.316 113.739 100.577C113.734 100.701 113.754 100.824 113.798 100.94C113.842 101.055 113.909 101.161 113.994 101.251H113.598H113.396H113.273V101.365L113.194 101.767V101.898H113.326H113.581H113.897C114.232 101.933 114.569 101.869 114.866 101.713C115.164 101.558 115.408 101.317 115.568 101.023C115.677 100.838 115.72 100.622 115.691 100.41C115.663 100.198 115.564 100.001 115.41 99.8507L115.366 99.877ZM114.487 100.349C114.51 100.319 114.541 100.294 114.576 100.277C114.611 100.26 114.65 100.252 114.689 100.253C114.728 100.254 114.766 100.262 114.801 100.279C114.836 100.296 114.866 100.32 114.891 100.349C114.921 100.379 114.944 100.415 114.959 100.454C114.974 100.493 114.981 100.535 114.979 100.577C114.979 100.658 114.948 100.737 114.891 100.796C114.866 100.824 114.835 100.847 114.8 100.862C114.765 100.878 114.727 100.885 114.689 100.883C114.651 100.885 114.612 100.878 114.577 100.863C114.542 100.848 114.511 100.825 114.487 100.796C114.43 100.737 114.398 100.658 114.399 100.577C114.398 100.534 114.406 100.492 114.423 100.453C114.44 100.414 114.464 100.379 114.495 100.349H114.487Z" fill="#9F854E"/>
<path d="M116.746 106.921C116.754 106.972 116.751 107.024 116.737 107.074C116.723 107.123 116.7 107.17 116.667 107.21C116.575 107.265 116.467 107.289 116.36 107.28H115.929V103.097L113.774 103.911V106.921C113.782 106.972 113.778 107.024 113.765 107.074C113.751 107.123 113.728 107.17 113.695 107.21C113.597 107.267 113.483 107.291 113.37 107.28H112.93C112.937 107.213 112.937 107.145 112.93 107.078V103.097L110.767 103.911V106.921C110.774 106.972 110.771 107.024 110.758 107.074C110.744 107.123 110.72 107.17 110.688 107.21C110.59 107.267 110.476 107.291 110.363 107.28H108.164V102.625L106.001 103.5V107.49C106.001 107.936 106.001 108.277 106.001 108.505C106.001 108.732 106.001 109.012 105.913 109.336C105.882 109.608 105.808 109.874 105.693 110.124C105.578 110.352 105.436 110.566 105.271 110.762C105.069 111.001 104.838 111.216 104.586 111.401L106.344 112.757C106.863 112.408 107.291 111.94 107.593 111.392C107.873 110.822 108.046 110.205 108.103 109.572H110.503C110.888 109.607 111.276 109.545 111.631 109.392C111.986 109.239 112.296 109 112.535 108.697V109.572H113.484C113.871 109.608 114.26 109.546 114.616 109.393C114.973 109.241 115.285 109.001 115.524 108.697V109.572H116.456C116.789 109.62 117.129 109.59 117.448 109.485C117.768 109.38 118.058 109.203 118.297 108.967C118.535 108.731 118.716 108.443 118.824 108.126C118.932 107.809 118.964 107.471 118.918 107.14V102.625L116.746 103.43V106.921Z" fill="#424C61"/>
<path d="M124.766 100.848L123.394 99.5618L122.022 100.848L123.394 102.134L124.766 100.848Z" fill="#9F854E"/>
<path d="M130.481 105.048C130.241 104.597 129.946 104.177 129.602 103.797C129.279 103.448 128.919 103.134 128.529 102.861L131.088 101.111V98.3105L125.865 102.108V104.007C126.674 104.255 127.408 104.701 128.002 105.302C128.48 105.86 128.785 106.544 128.881 107.271H124.291V102.624L122.128 103.5V107.49C122.128 107.936 122.128 108.277 122.128 108.505C122.128 108.732 122.128 109.012 122.049 109.336C122.012 109.607 121.938 109.872 121.829 110.124C121.71 110.352 121.565 110.566 121.398 110.762C121.197 111.003 120.967 111.218 120.712 111.401L122.471 112.757C122.992 112.408 123.423 111.94 123.728 111.392C124.009 110.822 124.182 110.205 124.238 109.572H131.167C131.225 108.714 131.196 107.852 131.079 107C130.998 106.319 130.795 105.658 130.481 105.048Z" fill="#424C61"/>
<path d="M141.235 102.511C140.117 102.448 139.01 102.755 138.087 103.386C137.634 103.744 137.275 104.207 137.041 104.733C136.805 105.259 136.685 105.829 136.689 106.405C136.691 106.701 136.733 106.995 136.812 107.28H134.799V102.625L132.636 103.5V107.49C132.636 107.936 132.636 108.277 132.636 108.505C132.636 108.732 132.636 109.012 132.556 109.336C132.52 109.607 132.446 109.873 132.337 110.124C132.215 110.35 132.07 110.564 131.906 110.762C131.703 111.001 131.473 111.216 131.22 111.401L132.978 112.757C133.493 112.4 133.914 111.926 134.21 111.375C134.49 110.804 134.663 110.188 134.72 109.555H143.047V102.721C142.449 102.606 141.843 102.536 141.235 102.511ZM140.883 107.28H140.127C139.816 107.299 139.507 107.216 139.248 107.043C139.133 106.944 139.044 106.817 138.989 106.676C138.933 106.534 138.914 106.381 138.931 106.23C138.925 106.018 138.971 105.808 139.066 105.619C139.162 105.429 139.302 105.266 139.477 105.145C139.891 104.86 140.391 104.728 140.892 104.768L140.883 107.28Z" fill="#424C61"/>
</g>
<defs>
<clipPath id="clip0_704_8976">
<rect width="171" height="114" fill="white"/>
</clipPath>
</defs>
</svg>
