<svg width="466" height="263" viewBox="0 0 466 263" fill="none" xmlns="http://www.w3.org/2000/svg">
<path d="M457.158 146.52C449.444 128.964 434.626 114.312 416.826 107.103C398.289 99.5924 377.002 102.324 357.476 99.8102C340.51 97.6228 328.282 90.0487 318.154 76.5817C308.452 63.6784 299.755 49.3884 283.904 43.4187C271.369 38.7045 257.118 40.0111 244.659 44.9271C221.695 53.9649 204.355 73.219 189.752 92.3962C176.42 109.911 165.546 129.088 140.886 129.713C116.225 130.337 92.717 116.262 67.874 119.99C35.0348 124.922 7.695 152.272 1.95879 184.83C-3.4125 215.344 10.0637 244.943 33.2166 262.333H431.172C460.346 231.389 475.657 188.599 457.158 146.52Z" fill="white" fill-opacity="0.88"/>
<path d="M176.548 260.819H177.283C182.503 255.033 186.468 248.228 188.926 240.834C193.04 228.604 192.868 215.768 188.439 204.692C186.199 199.105 182.967 193.879 179.843 188.833C176.673 183.718 173.396 178.427 171.171 172.756C170.238 170.359 169.564 167.868 169.162 165.327C168.979 165.304 168.795 165.284 168.61 165.263C169.013 167.894 169.704 170.473 170.671 172.954C172.912 178.668 176.204 183.98 179.387 189.116C182.499 194.143 185.718 199.339 187.94 204.892C192.322 215.852 192.492 228.555 188.417 240.664C185.93 248.146 181.885 255.015 176.548 260.819Z" fill="white"/>
<path d="M399.325 237.518C404.83 238.692 410.136 239.745 415.266 240.407C415.354 240.237 415.438 240.065 415.526 239.895C410.353 239.238 404.996 238.176 399.439 236.994C390.972 235.189 381.817 233.238 372.718 233.238C367.09 233.238 361.492 233.986 356.106 235.982C354.059 236.743 352.09 237.7 350.227 238.84C345.364 236.766 340.475 234.503 335.633 232.019C339.147 229.374 342.697 226.78 346.288 224.283C372.935 205.679 397.517 195.132 421.272 192.138C421.225 191.964 421.176 191.79 421.126 191.616C397.307 194.625 372.664 205.209 345.978 223.851C342.325 226.41 338.689 229.06 335.102 231.764C329.601 228.935 324.248 225.825 319.067 222.446C309.622 216.256 298.385 207.422 288.573 195.684C326.61 191.416 365.313 186.042 396.929 164.913C398.128 164.109 399.458 163.164 400.835 162.091C400.683 161.982 400.53 161.876 400.376 161.769C399.056 162.792 397.782 163.703 396.63 164.466C365.023 185.59 326.236 190.924 288.16 195.196C281.227 186.815 275.032 176.956 270.725 165.54C264.02 147.775 264.373 130.342 271.699 117.711C272.017 117.16 272.343 116.621 272.698 116.086C272.393 116.228 272.09 116.374 271.787 116.516C271.598 116.821 271.413 117.128 271.232 117.438C263.827 130.211 263.46 147.811 270.225 165.73C274.505 177.072 280.645 186.884 287.524 195.252C285.319 195.5 283.117 195.744 280.918 195.985C272.988 196.862 264.801 197.767 256.828 198.779C253.922 199.155 250.968 199.591 248.017 200.137C241.712 186.833 234.788 173.855 225.837 162.723C225.711 162.852 225.579 162.975 225.45 163.101C234.324 174.147 241.205 187.03 247.471 200.24C234.644 202.686 222.19 207.284 215.542 217.986C209.331 227.981 209.337 241.797 215.559 259.049C215.774 259.647 215.989 260.235 216.221 260.82H216.794C216.549 260.175 216.304 259.531 216.064 258.867C209.9 241.778 209.879 228.119 215.997 218.27C222.569 207.695 234.953 203.158 247.708 200.741C249.953 205.454 252.102 210.194 254.23 214.909L254.462 215.423C261.882 231.802 269.556 247.608 279.605 260.818H280.275C270.134 247.584 262.417 231.682 254.952 215.201L254.72 214.688C252.601 210.012 250.469 205.305 248.273 200.638C251.157 200.105 254.056 199.677 256.905 199.312C264.856 198.287 273.057 197.378 280.974 196.518C283.289 196.262 285.608 196.004 287.93 195.747C297.837 207.669 309.205 216.626 318.77 222.886C323.895 226.233 329.187 229.317 334.625 232.127C325.486 239.038 316.595 246.31 307.918 253.402C304.909 255.86 301.873 258.336 298.808 260.829H299.668C302.559 258.482 305.424 256.144 308.264 253.816C317.004 246.667 325.956 239.341 335.16 232.389C339.976 234.867 344.831 237.117 349.675 239.195C343.058 243.402 337.664 249.918 334.404 257.833C333.996 258.824 333.639 259.823 333.31 260.829H333.875C334.187 259.892 334.52 258.961 334.9 258.035C338.171 250.101 343.608 243.589 350.276 239.448C363.798 245.193 377.085 249.456 388.505 252.834L388.934 252.961C393.746 254.384 398.667 255.843 403.019 258.185C403.141 258.046 403.264 257.908 403.384 257.768C398.961 255.368 393.967 253.889 389.085 252.447L388.655 252.321C377.353 248.975 364.219 244.765 350.833 239.104C352.569 238.07 354.395 237.196 356.289 236.491C370.232 231.321 385.689 234.613 399.325 237.518Z" fill="white"/>
<path d="M134.798 202.717C137.161 212.431 136.111 222.918 131.892 231.499C129.129 237.116 125.138 242.203 120.223 246.569C120.32 246.722 120.421 246.872 120.52 247.023C125.514 242.598 129.569 237.438 132.373 231.735C136.648 223.047 137.722 212.424 135.32 202.591C133.442 194.908 129.668 188.407 124.454 183.692C124.338 183.828 124.222 183.965 124.109 184.103C129.234 188.74 132.947 195.149 134.798 202.717Z" fill="white"/>
<path d="M291.449 85.9484C289.541 79.6052 286.185 73.7744 281.382 68.4561C276.579 63.1377 270.014 58.7386 261.689 55.2588C253.373 51.7822 242.808 50.0439 229.995 50.0439C219.772 50.0439 209.354 51.4228 198.74 54.1805C188.126 56.9383 178.906 60.8777 171.079 65.9989L181.254 93.9357L175.801 98.3467L183.709 100.672C191.515 96.5861 198.628 93.6193 205.046 91.771C211.464 89.9227 218.276 89.0034 225.482 89.0133C232.692 89.0133 238.151 90.7515 241.859 94.2281C245.566 97.7145 247.413 101.907 247.413 106.808C247.413 112.742 245.512 118.009 241.71 122.611C237.908 127.213 233.698 131.868 229.081 136.578C225.88 139.845 222.776 143.218 219.769 146.697C216.766 150.173 214.1 153.926 211.806 157.906C209.464 161.973 207.6 166.297 206.252 170.793C204.843 175.399 204.142 180.564 204.149 186.287C204.149 188.135 204.188 190.332 204.296 192.891C204.314 193.361 204.339 193.822 204.366 194.276H196.89L205.049 199.793H244.718C244.501 198.372 244.4 196.936 244.416 195.498V191.811C244.428 188.279 245.143 184.785 246.518 181.531C247.933 178.134 249.697 174.894 251.782 171.861C253.902 168.766 256.264 165.844 258.845 163.121C261.448 160.353 263.953 157.743 266.36 155.289C269.559 152.021 272.862 148.545 276.27 144.859C279.62 141.251 282.639 137.35 285.29 133.201C287.941 129.007 290.107 124.526 291.746 119.843C293.449 115.038 294.303 109.77 294.31 104.04C294.316 98.3103 293.363 92.2796 291.449 85.9484Z" fill="#715E37"/>
<path d="M217.083 87.0665C209.948 87.0665 203.216 87.9563 196.887 89.736C190.558 91.5157 183.529 94.3867 175.801 98.349L163.319 64.7923C171.044 59.8421 180.155 56.03 190.651 53.3562C201.147 50.6823 211.444 49.3481 221.54 49.3535C234.207 49.3535 244.649 51.0357 252.865 54.4001C261.082 57.7645 267.569 62.0215 272.328 67.171C277.074 72.3248 280.39 77.9683 282.275 84.1013C284.161 90.2343 285.102 96.0738 285.099 101.62C285.099 107.168 284.254 112.266 282.566 116.915C280.941 121.454 278.8 125.791 276.185 129.841C273.56 133.863 270.577 137.639 267.271 141.123C263.906 144.69 260.638 148.055 257.469 151.216C255.09 153.595 252.615 156.122 250.044 158.797C247.497 161.428 245.163 164.257 243.063 167.256C241.007 170.185 239.263 173.322 237.861 176.614C236.503 179.756 235.796 183.141 235.783 186.564V190.13C235.766 191.522 235.867 192.913 236.083 194.288H196.874C196.445 192.085 196.196 189.851 196.129 187.608C196.023 185.133 195.984 183.006 195.984 181.217C195.984 175.676 196.677 170.677 198.063 166.221C199.4 161.863 201.243 157.677 203.554 153.749C205.83 149.889 208.47 146.256 211.437 142.899C214.406 139.534 217.474 136.266 220.641 133.097C225.194 128.544 229.355 124.039 233.123 119.581C236.874 115.124 238.753 110.026 238.76 104.286C238.76 99.5286 236.931 95.4786 233.269 92.1033C229.606 88.728 224.21 87.0665 217.083 87.0665Z" fill="#9F854E"/>
<path d="M247.43 238.31C247.43 245.462 245.115 250.983 240.485 254.874C235.855 258.764 230.619 260.712 224.776 260.718C218.924 260.718 213.686 258.77 209.061 254.874C204.437 250.978 202.124 245.457 202.123 238.31C202.123 231.167 204.436 225.646 209.061 221.747C216.189 215.731 226.734 214.395 235.08 218.612C242.484 222.359 247.43 229.966 247.43 238.31Z" fill="#715E37"/>
<path d="M239.669 238.309C239.669 245.461 237.354 250.983 232.724 254.873C228.094 258.764 222.858 260.712 217.016 260.717C211.164 260.717 205.926 258.769 201.301 254.873C196.677 250.977 194.364 245.456 194.363 238.309C194.363 231.166 196.676 225.645 201.301 221.746C205.927 217.847 211.165 215.899 217.016 215.902C222.859 215.902 228.095 217.85 232.724 221.746C237.353 225.642 239.668 231.163 239.669 238.309Z" fill="#9F854E"/>
<path d="M370.635 153.264C371.145 149.843 370.923 146.46 369.969 143.117C369.014 139.773 367.108 136.624 364.248 133.669C361.392 130.716 357.201 128.291 351.674 126.393C347.265 124.878 342.481 124.017 337.324 123.81C332.167 123.602 327.362 124.186 322.91 125.561L321.428 140.893L318.149 142.268L321.072 144.59C325.297 143.724 328.988 143.31 332.145 143.346C335.302 143.382 338.433 143.936 341.539 145.009C344.649 146.077 346.638 147.746 347.506 150.015C348.373 152.29 348.289 154.638 347.259 157.064C346.012 160 344.085 162.325 341.478 164.039C338.871 165.753 336.077 167.433 333.096 169.08C331.029 170.223 328.981 171.432 326.953 172.708C324.928 173.983 322.989 175.446 321.164 177.075C319.299 178.741 317.586 180.605 316.06 182.63C314.485 184.7 313.097 187.152 311.897 189.986C311.509 190.9 311.064 191.993 310.573 193.275C310.482 193.511 310.395 193.742 310.312 193.971L307.088 192.864L309.447 196.803L326.557 202.679C326.762 201.944 327.02 201.218 327.329 200.509L328.104 198.684C328.851 196.938 329.894 195.315 331.171 193.909C332.495 192.437 333.937 191.095 335.473 189.903C337.038 188.686 338.67 187.589 340.356 186.624C342.06 185.64 343.689 184.719 345.243 183.862C347.309 182.719 349.464 181.488 351.709 180.169C353.912 178.88 356.034 177.396 358.049 175.735C360.074 174.053 361.95 172.156 363.641 170.082C365.385 167.956 366.86 165.476 368.067 162.641C369.274 159.807 370.13 156.681 370.635 153.264Z" fill="#3C4558"/>
<path d="M337.902 142.608C334.821 141.55 331.727 140.993 328.619 140.936C325.512 140.879 321.873 141.258 317.702 142.075L319.372 123.604C323.749 122.298 328.485 121.761 333.58 121.993C338.675 122.225 343.402 123.09 347.76 124.59C353.23 126.468 357.385 128.849 360.225 131.734C363.066 134.619 364.972 137.689 365.943 140.945C366.908 144.201 367.153 147.488 366.677 150.805C366.201 154.122 365.378 157.154 364.21 159.9C363.043 162.648 361.606 165.048 359.899 167.1C358.242 169.107 356.405 170.938 354.424 172.556C352.444 174.158 350.362 175.586 348.201 176.822C345.998 178.09 343.879 179.272 341.845 180.368C340.318 181.193 338.717 182.078 337.044 183.021C335.391 183.947 333.788 185.002 332.25 186.176C330.746 187.322 329.333 188.617 328.035 190.04C326.788 191.394 325.77 192.966 325.044 194.659L324.294 196.426C323.994 197.113 323.745 197.816 323.549 198.529L306.618 192.716C306.896 191.561 307.259 190.418 307.702 189.297C308.176 188.055 308.607 186.996 308.983 186.11C310.149 183.366 311.5 180.993 313.036 178.991C314.53 177.031 316.207 175.231 318.031 173.628C319.826 172.054 321.73 170.646 323.718 169.423C325.708 168.197 327.72 167.033 329.755 165.933C332.678 164.353 335.423 162.739 337.988 161.09C340.545 159.438 342.429 157.192 343.639 154.35C344.64 151.994 344.703 149.717 343.831 147.502C342.96 145.287 340.979 143.664 337.902 142.608Z" fill="#424C61"/>
<path d="M323.068 219.127C321.548 222.698 319.364 225.109 316.517 226.36C313.67 227.61 310.971 227.8 308.421 226.93C305.867 226.055 303.996 224.3 302.806 221.663C301.616 219.026 301.781 215.924 303.3 212.355C304.818 208.788 307.001 206.377 309.848 205.122C314.236 203.183 319.121 204.092 321.867 207.445C324.301 210.423 324.842 214.961 323.068 219.127Z" fill="#3C4558"/>
<path d="M319.412 217.748C317.892 221.318 315.709 223.729 312.863 224.979C310.017 226.229 307.319 226.419 304.769 225.549C302.217 224.674 300.346 222.919 299.156 220.283C297.967 217.647 298.131 214.545 299.65 210.977C301.168 207.412 303.35 205.001 306.196 203.746C309.042 202.491 311.741 202.301 314.292 203.177C316.841 204.05 318.711 205.805 319.902 208.442C321.094 211.078 320.93 214.18 319.412 217.748Z" fill="#687081"/>
<path d="M141.613 134.475C139.457 131.619 136.785 129.23 133.596 127.31C130.407 125.389 126.651 124.184 122.329 123.695C118.012 123.206 113.09 123.911 107.563 125.809C103.154 127.323 98.9496 129.548 94.9511 132.485C90.9525 135.421 87.8033 138.736 85.5035 142.43L95.7615 154.748L94.3361 157.739L98.2358 157.718C100.744 154.54 103.189 152.019 105.569 150.153C107.949 148.288 110.694 146.824 113.804 145.762C116.914 144.694 119.634 144.746 121.963 145.917C124.294 147.094 125.972 148.894 127.002 151.32C128.249 154.256 128.535 157.145 127.862 159.985C127.189 162.826 126.351 165.753 125.349 168.767C124.655 170.858 124.025 172.987 123.459 175.154C122.894 177.319 122.533 179.572 122.379 181.881C122.224 184.24 122.328 186.656 122.691 189.081C123.051 191.569 123.834 194.228 125.039 197.06C125.428 197.974 125.906 199.056 126.49 200.306C126.597 200.536 126.704 200.761 126.812 200.981L123.587 202.089L128.265 203.61L145.375 197.735C144.983 197.064 144.638 196.368 144.342 195.655L143.568 193.83C142.831 192.08 142.405 190.245 142.315 188.431C142.212 186.541 142.292 184.676 142.554 182.866C142.818 181.021 143.223 179.225 143.764 177.495C144.305 175.74 144.837 174.077 145.36 172.506C146.053 170.415 146.747 168.206 147.443 165.877C148.13 163.595 148.612 161.217 148.884 158.772C149.146 156.304 149.139 153.765 148.862 151.205C148.587 148.575 147.849 145.842 146.648 143.005C145.447 140.168 143.768 137.325 141.613 134.475Z" fill="#3C4558"/>
<path d="M109.529 146.36C106.448 147.418 103.728 148.856 101.369 150.676C99.0106 152.495 96.5792 154.959 94.0752 158.067L81.6268 143.297C83.9216 139.7 87.0541 136.462 91.0242 133.582C94.9943 130.701 99.1599 128.514 103.521 127.02C108.991 125.143 113.854 124.428 118.11 124.877C122.365 125.325 126.062 126.472 129.2 128.317C132.334 130.166 134.953 132.47 137.057 135.228C139.161 137.986 140.796 140.739 141.961 143.487C143.128 146.234 143.836 148.885 144.085 151.437C144.338 153.926 144.326 156.392 144.048 158.785C143.761 161.167 143.267 163.479 142.572 165.695C141.869 167.96 141.166 170.111 140.462 172.147C139.935 173.678 139.398 175.296 138.85 177.002C138.304 178.683 137.891 180.43 137.615 182.227C137.343 183.982 137.25 185.794 137.337 187.633C137.412 189.39 137.819 191.171 138.533 192.869L139.283 194.635C139.569 195.327 139.905 196.001 140.287 196.65L123.355 202.462C122.707 201.434 122.129 200.365 121.629 199.263C121.062 198.053 120.598 197.006 120.221 196.12C119.056 193.375 118.304 190.797 117.965 188.384C117.626 186.027 117.541 183.681 117.713 181.393C117.884 179.144 118.26 176.953 118.835 174.851C119.409 172.744 120.047 170.67 120.748 168.631C121.756 165.701 122.605 162.853 123.295 160.087C123.977 157.323 123.716 154.52 122.512 151.676C121.511 149.319 119.87 147.585 117.578 146.456C115.286 145.327 112.606 145.304 109.529 146.36Z" fill="#424C61"/>
<path d="M150.813 213.797C152.333 217.368 152.497 220.471 151.303 223.106C150.11 225.74 148.239 227.496 145.691 228.371C143.138 229.246 140.438 229.056 137.592 227.802C134.746 226.547 132.564 224.136 131.044 220.567C129.526 217 129.362 213.898 130.552 211.26C132.384 207.191 136.7 204.948 141.238 205.806C145.266 206.571 149.04 209.63 150.813 213.797Z" fill="#3C4558"/>
<path d="M147.167 215.183C148.686 218.753 148.85 221.856 147.657 224.49C146.463 227.123 144.593 228.878 142.046 229.754C139.493 230.628 136.795 230.438 133.95 229.184C131.105 227.93 128.923 225.519 127.404 221.951C125.886 218.386 125.722 215.284 126.911 212.646C128.101 210.009 129.972 208.254 132.525 207.381C135.073 206.508 137.771 206.699 140.618 207.952C143.465 209.205 145.648 211.616 147.167 215.183Z" fill="#687081"/>
<path d="M138.557 77.2263C139.279 73.3747 136.742 69.6669 132.891 68.9447C129.039 68.2225 125.331 70.7594 124.609 74.611C123.887 78.4626 126.424 82.1704 130.275 82.8926C134.127 83.6148 137.835 81.0779 138.557 77.2263Z" fill="#D3C7AE"/>
<path d="M141.928 90.5147C142.333 88.348 140.894 86.2602 138.713 85.8516C136.531 85.443 134.434 86.8681 134.028 89.0348C133.622 91.2015 135.061 93.2893 137.243 93.6979C139.424 94.1065 141.522 92.6814 141.928 90.5147Z" fill="#D3C7AE"/>
<path d="M133.818 59.9303C144.728 49.0202 144.728 31.3314 133.818 20.4213C122.908 9.51121 105.219 9.51121 94.3087 20.4213C83.3986 31.3314 83.3986 49.0202 94.3087 59.9303C105.219 70.8404 122.908 70.8404 133.818 59.9303Z" fill="#D3C7AE"/>
<path d="M103.35 43.6649C105.249 43.6649 106.789 42.0774 106.789 40.1191C106.789 38.1608 105.249 36.5732 103.35 36.5732C101.452 36.5732 99.9121 38.1608 99.9121 40.1191C99.9121 42.0774 101.452 43.6649 103.35 43.6649Z" fill="white"/>
<path d="M113.988 43.6649C115.946 43.6649 117.534 42.0774 117.534 40.1191C117.534 38.1608 115.946 36.5732 113.988 36.5732C112.03 36.5732 110.442 38.1608 110.442 40.1191C110.442 42.0774 112.03 43.6649 113.988 43.6649Z" fill="white"/>
<path d="M124.733 43.6649C126.691 43.6649 128.279 42.0774 128.279 40.1191C128.279 38.1608 126.691 36.5732 124.733 36.5732C122.775 36.5732 121.187 38.1608 121.187 40.1191C121.187 42.0774 122.775 43.6649 124.733 43.6649Z" fill="white"/>
<path d="M234.319 256.859C234.291 256.859 234.264 256.855 234.237 256.846C234.17 256.825 234.113 256.777 234.081 256.714C234.048 256.651 234.042 256.577 234.063 256.509C234.867 253.965 235.217 248.958 232.89 245.594C232.861 245.567 232.839 245.534 232.824 245.497C232.81 245.46 232.804 245.42 232.807 245.381C232.81 245.341 232.821 245.302 232.841 245.268C232.86 245.233 232.887 245.203 232.919 245.18C232.952 245.158 232.989 245.142 233.028 245.135C233.067 245.128 233.107 245.13 233.145 245.14C233.183 245.151 233.219 245.169 233.249 245.195C233.279 245.221 233.303 245.253 233.32 245.289C235.759 248.809 235.4 254.025 234.564 256.679C234.546 256.73 234.513 256.775 234.469 256.807C234.426 256.839 234.373 256.857 234.319 256.859Z" fill="white"/>
<path d="M229.013 257.865C228.986 257.865 228.959 257.86 228.934 257.852C228.9 257.842 228.869 257.825 228.842 257.802C228.814 257.78 228.792 257.752 228.776 257.721C228.759 257.69 228.749 257.656 228.746 257.621C228.743 257.586 228.747 257.55 228.757 257.517C229.561 254.97 229.911 249.965 227.584 246.602C227.564 246.573 227.55 246.54 227.543 246.506C227.535 246.471 227.535 246.436 227.541 246.401C227.547 246.366 227.561 246.333 227.58 246.303C227.599 246.274 227.624 246.248 227.653 246.228C227.682 246.208 227.715 246.194 227.749 246.187C227.784 246.179 227.819 246.179 227.854 246.185C227.889 246.191 227.922 246.205 227.952 246.224C227.981 246.243 228.007 246.268 228.027 246.297C230.464 249.817 230.105 255.033 229.269 257.687C229.25 257.739 229.216 257.785 229.17 257.817C229.124 257.849 229.069 257.866 229.013 257.865Z" fill="white"/>
<path d="M412.478 260.208H63.874V261.301H412.478V260.208Z" fill="#433821"/>
</svg>
