<svg width="345" height="140" viewBox="0 0 345 140" fill="none" xmlns="http://www.w3.org/2000/svg">
<g clip-path="url(#clip0_1_12169)">
<rect width="1920" height="960" fill="white"/>
<rect width="345" height="140" fill="#F5F3ED"/>
<path d="M121.125 61.9574V56.8182H143.254V61.9574H135.315V83H129.077V61.9574H121.125ZM152.676 83.3707C150.622 83.3707 148.849 82.9659 147.358 82.1562C145.875 81.3381 144.733 80.1747 143.932 78.6662C143.139 77.1491 142.743 75.3466 142.743 73.2585C142.743 71.2301 143.143 69.4574 143.945 67.9403C144.746 66.4148 145.875 65.2301 147.332 64.3864C148.79 63.5341 150.507 63.108 152.484 63.108C153.882 63.108 155.161 63.3253 156.32 63.7599C157.479 64.1946 158.48 64.8381 159.324 65.6903C160.168 66.5426 160.824 67.5952 161.293 68.848C161.761 70.0923 161.996 71.5199 161.996 73.1307V74.6903H144.929V71.0597H156.179C156.17 70.3949 156.013 69.8026 155.706 69.2827C155.399 68.7628 154.977 68.358 154.44 68.0682C153.912 67.7699 153.303 67.6207 152.612 67.6207C151.913 67.6207 151.287 67.7784 150.733 68.0938C150.179 68.4006 149.74 68.8224 149.416 69.3594C149.092 69.8878 148.922 70.4886 148.905 71.1619V74.8565C148.905 75.6577 149.063 76.3608 149.378 76.9659C149.693 77.5625 150.141 78.027 150.72 78.3594C151.3 78.6918 151.99 78.858 152.791 78.858C153.345 78.858 153.848 78.7812 154.3 78.6278C154.751 78.4744 155.139 78.2486 155.463 77.9503C155.787 77.652 156.03 77.2855 156.192 76.8509L161.932 77.017C161.693 78.304 161.169 79.4247 160.359 80.3793C159.558 81.3253 158.506 82.0625 157.202 82.5909C155.898 83.1108 154.389 83.3707 152.676 83.3707ZM171.44 56.8182V83H165.189V56.8182H171.44ZM184.598 83.3707C182.544 83.3707 180.771 82.9659 179.28 82.1562C177.797 81.3381 176.655 80.1747 175.854 78.6662C175.061 77.1491 174.665 75.3466 174.665 73.2585C174.665 71.2301 175.065 69.4574 175.866 67.9403C176.668 66.4148 177.797 65.2301 179.254 64.3864C180.712 63.5341 182.429 63.108 184.406 63.108C185.804 63.108 187.082 63.3253 188.241 63.7599C189.401 64.1946 190.402 64.8381 191.246 65.6903C192.089 66.5426 192.746 67.5952 193.214 68.848C193.683 70.0923 193.918 71.5199 193.918 73.1307V74.6903H176.851V71.0597H188.101C188.092 70.3949 187.935 69.8026 187.628 69.2827C187.321 68.7628 186.899 68.358 186.362 68.0682C185.834 67.7699 185.224 67.6207 184.534 67.6207C183.835 67.6207 183.209 67.7784 182.655 68.0938C182.101 68.4006 181.662 68.8224 181.338 69.3594C181.014 69.8878 180.844 70.4886 180.827 71.1619V74.8565C180.827 75.6577 180.984 76.3608 181.3 76.9659C181.615 77.5625 182.062 78.027 182.642 78.3594C183.222 78.6918 183.912 78.858 184.713 78.858C185.267 78.858 185.77 78.7812 186.222 78.6278C186.673 78.4744 187.061 78.2486 187.385 77.9503C187.709 77.652 187.952 77.2855 188.114 76.8509L193.854 77.017C193.615 78.304 193.091 79.4247 192.281 80.3793C191.48 81.3253 190.428 82.0625 189.124 82.5909C187.82 83.1108 186.311 83.3707 184.598 83.3707ZM206.264 90.7727C204.397 90.7727 202.799 90.5128 201.47 89.9929C200.14 89.473 199.096 88.7614 198.338 87.858C197.579 86.9545 197.123 85.9318 196.97 84.7898L202.889 84.4574C203 84.858 203.204 85.2074 203.502 85.5057C203.809 85.804 204.206 86.0341 204.691 86.196C205.186 86.358 205.765 86.4389 206.43 86.4389C207.478 86.4389 208.343 86.1832 209.025 85.6719C209.716 85.169 210.061 84.2869 210.061 83.0256V79.5739H209.843C209.596 80.179 209.221 80.7202 208.718 81.1974C208.216 81.6747 207.589 82.0497 206.839 82.3224C206.098 82.5952 205.245 82.7315 204.282 82.7315C202.85 82.7315 201.538 82.3991 200.345 81.7344C199.16 81.0611 198.21 80.0213 197.494 78.6151C196.787 77.2003 196.433 75.3807 196.433 73.1562C196.433 70.8636 196.799 68.9759 197.532 67.4929C198.265 66.0014 199.224 64.8977 200.409 64.1818C201.602 63.4659 202.885 63.108 204.257 63.108C205.288 63.108 206.17 63.2869 206.903 63.6449C207.645 63.9943 208.254 64.446 208.731 65C209.208 65.554 209.571 66.1293 209.818 66.7259H209.997V63.3636H216.223V83.0767C216.223 84.7386 215.805 86.1406 214.97 87.2827C214.135 88.4247 212.967 89.2898 211.467 89.8778C209.967 90.4744 208.233 90.7727 206.264 90.7727ZM206.456 78.1804C207.214 78.1804 207.862 77.9801 208.399 77.5795C208.936 77.179 209.349 76.6037 209.639 75.8537C209.929 75.1037 210.074 74.2045 210.074 73.1562C210.074 72.0909 209.929 71.1747 209.639 70.4077C209.358 69.6321 208.944 69.0355 208.399 68.6179C207.862 68.2003 207.214 67.9915 206.456 67.9915C205.68 67.9915 205.024 68.2045 204.487 68.6307C203.95 69.0568 203.541 69.6577 203.26 70.4332C202.987 71.2003 202.85 72.108 202.85 73.1562C202.85 74.2045 202.991 75.1037 203.272 75.8537C203.554 76.6037 203.958 77.179 204.487 77.5795C205.024 77.9801 205.68 78.1804 206.456 78.1804ZM220.208 83V63.3636H226.281V66.9432H226.485C226.843 65.6477 227.427 64.6847 228.237 64.054C229.046 63.4148 229.988 63.0952 231.062 63.0952C231.352 63.0952 231.65 63.1165 231.957 63.1591C232.263 63.1932 232.549 63.2486 232.813 63.3253V68.7585C232.515 68.6562 232.123 68.5753 231.637 68.5156C231.16 68.456 230.734 68.4261 230.359 68.4261C229.617 68.4261 228.948 68.5923 228.352 68.9247C227.763 69.2486 227.299 69.7045 226.958 70.2926C226.626 70.8722 226.46 71.554 226.46 72.3381V83H220.208ZM240.158 83.3324C238.905 83.3324 237.793 83.1236 236.821 82.706C235.858 82.2798 235.095 81.6406 234.533 80.7884C233.979 79.9276 233.702 78.8494 233.702 77.554C233.702 76.4631 233.893 75.5426 234.277 74.7926C234.661 74.0426 235.189 73.4332 235.862 72.9645C236.536 72.4957 237.311 72.142 238.189 71.9034C239.067 71.6562 240.004 71.4901 241.001 71.4048C242.118 71.3026 243.017 71.196 243.699 71.0852C244.381 70.9659 244.875 70.7997 245.182 70.5866C245.497 70.3651 245.655 70.054 245.655 69.6534V69.5895C245.655 68.9332 245.429 68.4261 244.977 68.0682C244.526 67.7102 243.916 67.5312 243.149 67.5312C242.322 67.5312 241.658 67.7102 241.155 68.0682C240.652 68.4261 240.332 68.9205 240.196 69.5511L234.43 69.3466C234.601 68.1534 235.04 67.0881 235.747 66.1506C236.463 65.2045 237.443 64.4631 238.688 63.9261C239.94 63.3807 241.445 63.108 243.2 63.108C244.453 63.108 245.608 63.2571 246.665 63.5554C247.722 63.8452 248.642 64.2713 249.426 64.8338C250.21 65.3878 250.815 66.0696 251.241 66.8793C251.676 67.6889 251.893 68.6136 251.893 69.6534V83H246.013V80.2642H245.859C245.51 80.929 245.063 81.4915 244.517 81.9517C243.98 82.4119 243.345 82.7571 242.612 82.9872C241.888 83.2173 241.07 83.3324 240.158 83.3324ZM242.088 79.2415C242.761 79.2415 243.366 79.1051 243.903 78.8324C244.449 78.5597 244.884 78.1847 245.207 77.7074C245.531 77.2216 245.693 76.6591 245.693 76.0199V74.1534C245.514 74.2472 245.297 74.3324 245.041 74.4091C244.794 74.4858 244.521 74.5582 244.223 74.6264C243.925 74.6946 243.618 74.7543 243.303 74.8054C242.987 74.8565 242.685 74.9034 242.395 74.946C241.807 75.0398 241.304 75.1847 240.886 75.3807C240.477 75.5767 240.162 75.8324 239.94 76.1477C239.727 76.4545 239.621 76.821 239.621 77.2472C239.621 77.8949 239.851 78.3892 240.311 78.7301C240.78 79.071 241.372 79.2415 242.088 79.2415ZM255.716 83V63.3636H261.661V66.9688H261.878C262.287 65.7756 262.977 64.8338 263.949 64.1435C264.92 63.4531 266.08 63.108 267.426 63.108C268.79 63.108 269.957 63.4574 270.929 64.1562C271.901 64.8551 272.518 65.7926 272.783 66.9688H272.987C273.354 65.8011 274.07 64.8679 275.135 64.169C276.2 63.4616 277.457 63.108 278.906 63.108C280.764 63.108 282.273 63.7045 283.432 64.8977C284.591 66.0824 285.17 67.7102 285.17 69.7812V83H278.919V71.2131C278.919 70.233 278.668 69.4872 278.165 68.9759C277.662 68.456 277.01 68.196 276.209 68.196C275.348 68.196 274.67 68.4773 274.176 69.0398C273.69 69.5937 273.447 70.3395 273.447 71.277V83H267.439V71.1491C267.439 70.2372 267.192 69.517 266.697 68.9886C266.203 68.4602 265.551 68.196 264.741 68.196C264.196 68.196 263.714 68.3281 263.297 68.5923C262.879 68.848 262.551 69.2145 262.312 69.6918C262.082 70.169 261.967 70.7315 261.967 71.3793V83H255.716Z" fill="black"/>
<path d="M115.798 47.0967L105.083 85.2836C104.275 87.9787 102.167 88.6495 99.1714 87.3798L82.8463 78.2883L74.9691 84.0139C74.0973 84.6727 73.3682 85.2237 71.6882 85.2237L72.8611 72.6584L103.118 51.9958C104.434 51.1094 102.833 50.6183 101.073 51.5047L63.6683 69.3045L47.5651 65.4954C44.0623 64.6689 43.9989 62.8482 48.2941 61.5785L111.281 43.2396C114.197 42.4131 116.749 43.7307 115.798 47.0967Z" fill="#37AEE2"/>
</g>
<defs>
<clipPath id="clip0_1_12169">
<rect width="345" height="140" fill="white"/>
</clipPath>
</defs>
</svg>
