<svg width="767" height="1012" viewBox="0 0 767 1012" fill="none" xmlns="http://www.w3.org/2000/svg">
<path d="M291.493 59.1327C226.874 43.5728 139.923 -25.6367 52.0422 11.6074C-5.53122 36.0072 -68.6146 68.2374 -83.8891 175C-96.0554 260.168 -197.126 290.582 -197.126 290.582C-265.889 323.543 -271.047 387.854 -250.049 452.784C-229.052 517.715 -153.755 535.207 -187.473 610.082C-221.19 684.957 -231.371 797.996 -91.6967 818.923C19.3673 835.572 62.9961 835.464 111.681 935.618C173.044 1061.86 345.068 1012.12 391.68 926.447C394.023 922.185 396.197 917.966 398.248 913.827C437.555 834.99 432.629 793.554 545.903 752.995C716.727 691.59 772.579 602.251 766.244 513.988C759.436 418.645 629.916 371.846 629.334 292.74C628.696 207.833 652.341 134.809 572.053 74.1787C495.764 16.3599 356.149 74.7048 291.493 59.1327Z" fill="white"/>
</svg>
